<?xml version="1.0"?>
<!-- Generated by SVGo and Plotinum VG -->
<svg width="12in" height="8in"
	xmlns="http://www.w3.org/2000/svg"
	xmlns:xlink="http://www.w3.org/1999/xlink">
<g transform="scale(1, -1) translate(0, -720)">
<path d="M0,0L1080,0L1080,720L0,720Z" style="fill:#FFFFFF" />
<text x="198.31" y="-705.6" transform="scale(1, -1)"
	style="font-family:Helvetica;font-weight:normal;font-style:normal;font-size:12pt">Linearizable-Read 2M keys, 1000-client (etcd v3.1 100-conn), 8-byte key, 256-byte value, Memory(MB)</text>
<text x="544.98" y="-4.8486" transform="scale(1, -1)"
	style="font-family:Helvetica;font-weight:normal;font-style:normal;font-size:12pt">Second</text>
<text x="57.358" y="-19.498" transform="scale(1, -1)"
	style="font-family:Helvetica;font-weight:normal;font-style:normal;font-size:10pt">0</text>
<text x="329.33" y="-19.498" transform="scale(1, -1)"
	style="font-family:Helvetica;font-weight:normal;font-style:normal;font-size:10pt">10</text>
<text x="604.78" y="-19.498" transform="scale(1, -1)"
	style="font-family:Helvetica;font-weight:normal;font-style:normal;font-size:10pt">20</text>
<text x="880.23" y="-19.498" transform="scale(1, -1)"
	style="font-family:Helvetica;font-weight:normal;font-style:normal;font-size:10pt">30</text>
<path d="M60.834,31.498L60.834,41.498" style="fill:none;stroke:#000000;stroke-width:0.625" />
<path d="M336.28,31.498L336.28,41.498" style="fill:none;stroke:#000000;stroke-width:0.625" />
<path d="M611.73,31.498L611.73,41.498" style="fill:none;stroke:#000000;stroke-width:0.625" />
<path d="M887.18,31.498L887.18,41.498" style="fill:none;stroke:#000000;stroke-width:0.625" />
<path d="M198.56,36.498L198.56,41.498" style="fill:none;stroke:#000000;stroke-width:0.625" />
<path d="M474.01,36.498L474.01,41.498" style="fill:none;stroke:#000000;stroke-width:0.625" />
<path d="M749.46,36.498L749.46,41.498" style="fill:none;stroke:#000000;stroke-width:0.625" />
<path d="M1024.9,36.498L1024.9,41.498" style="fill:none;stroke:#000000;stroke-width:0.625" />
<path d="M60.834,41.498L1080,41.498" style="fill:none;stroke:#000000;stroke-width:0.625" />
<g transform="rotate(90)">
<text x="331.08" y="14.399" transform="scale(1, -1)"
	style="font-family:Helvetica;font-weight:normal;font-style:normal;font-size:12pt">Memory(MB)</text>
</g>
<text x="26.2" y="-185.89" transform="scale(1, -1)"
	style="font-family:Helvetica;font-weight:normal;font-style:normal;font-size:10pt">80</text>
<text x="19.248" y="-366.17" transform="scale(1, -1)"
	style="font-family:Helvetica;font-weight:normal;font-style:normal;font-size:10pt">160</text>
<text x="19.248" y="-546.44" transform="scale(1, -1)"
	style="font-family:Helvetica;font-weight:normal;font-style:normal;font-size:10pt">240</text>
<path d="M43.577,191.76L53.577,191.76" style="fill:none;stroke:#000000;stroke-width:0.625" />
<path d="M43.577,372.04L53.577,372.04" style="fill:none;stroke:#000000;stroke-width:0.625" />
<path d="M43.577,552.32L53.577,552.32" style="fill:none;stroke:#000000;stroke-width:0.625" />
<path d="M48.577,101.63L53.577,101.63" style="fill:none;stroke:#000000;stroke-width:0.625" />
<path d="M48.577,281.9L53.577,281.9" style="fill:none;stroke:#000000;stroke-width:0.625" />
<path d="M48.577,462.18L53.577,462.18" style="fill:none;stroke:#000000;stroke-width:0.625" />
<path d="M48.577,642.45L53.577,642.45" style="fill:none;stroke:#000000;stroke-width:0.625" />
<path d="M53.577,48.06L53.577,700.75" style="fill:none;stroke:#000000;stroke-width:0.625" />
<path d="M60.834,52.049L88.379,112.49L115.92,117.89L143.47,123.66L171.01,127.43L198.56,130.97L226.1,136.98L253.65,140.61L281.19,144.94L308.74,149.2L336.28,153.34L363.83,160.76L391.37,167.47L418.92,168.12L446.46,173.85L474.01,176.08L501.55,180.09L529.1,185.72L556.64,188.34L584.19,194.11L611.73,196.7L639.28,202.76L666.82,206.19L694.37,211.86L721.91,223.47L749.46,226.89L777,229.17L804.55,232.8L832.09,237.13L859.64,241.38L887.18,245.15L914.73,248.28L942.27,252.22L969.82,257.56L997.36,262.52L1024.9,267.68L1052.5,271.31L1080,271.31" style="fill:none;stroke:#F15A60;stroke-width:1.875" />
<path d="M60.834,302.14L88.379,367.26L115.92,511.01L143.47,611.85L171.01,700.75L198.56,696.27L226.1,693.83L253.65,693.07L281.19,692.28L308.74,690.34L336.28,689.17L363.83,687.23L391.37,684.14L418.92,683.76L446.46,679.5L474.01,677.68L501.55,674.66L529.1,673.87L556.64,671.95L584.19,668.87" style="fill:none;stroke:#7AC36A;stroke-width:1.875;stroke-dasharray:7.5,2.5" />
<path d="M60.834,48.06L88.379,109.4L115.92,110.01L143.47,110.01L171.01,110.17L198.56,112.01L226.1,112.15L253.65,112.15L281.19,112.15L308.74,112.28L336.28,112.28L363.83,112.28L391.37,112.28L418.92,112.44L446.46,112.44L474.01,112.44L501.55,112.6L529.1,112.6L556.64,112.78L584.19,112.91L611.73,112.91L639.28,113.57L666.82,114.2L694.37,114.2L721.91,114.99L749.46,114.99L777,115.17L804.55,115.17L832.09,115.35L859.64,115.35L887.18,115.53L914.73,115.53L942.27,115.53L969.82,115.53L997.36,115.53L1024.9,115.53" style="fill:none;stroke:#5A9BD4;stroke-width:1.875;stroke-dasharray:2.5,2.5" />
<path d="M1055,693.4L1080,693.4" style="fill:none;stroke:#F15A60;stroke-width:1.875" />
<text x="918.26" y="-686.35" transform="scale(1, -1)"
	style="font-family:Helvetica;font-weight:normal;font-style:normal;font-size:12pt">etcd v3.1 (Go 1.7.3)</text>
<path d="M1055,678.7L1080,678.7" style="fill:none;stroke:#7AC36A;stroke-width:1.875;stroke-dasharray:7.5,2.5" />
<text x="875.74" y="-671.65" transform="scale(1, -1)"
	style="font-family:Helvetica;font-weight:normal;font-style:normal;font-size:12pt">Zookeeper v3.4.9 (Java 8)</text>
<path d="M1055,664L1080,664" style="fill:none;stroke:#5A9BD4;stroke-width:1.875;stroke-dasharray:2.5,2.5" />
<text x="887.41" y="-656.95" transform="scale(1, -1)"
	style="font-family:Helvetica;font-weight:normal;font-style:normal;font-size:12pt">Consul v0.7.3 (Go 1.7.3)</text>
</g>
</svg>
