<?xml version="1.0"?>
<!-- Generated by SVGo and Plotinum VG -->
<svg width="12in" height="8in"
	xmlns="http://www.w3.org/2000/svg"
	xmlns:xlink="http://www.w3.org/1999/xlink">
<g transform="scale(1, -1) translate(0, -720)">
<path d="M0,0L1080,0L1080,720L0,720Z" style="fill:#FFFFFF" />
<text x="205.09" y="-705.6" transform="scale(1, -1)"
	style="font-family:Helvetica;font-weight:normal;font-style:normal;font-size:12pt">Serializable-Read 2M keys, 1000-client (etcd v3.1 100-conn), 8-byte key, 256-byte value, Throughput</text>
<text x="557.32" y="-4.8486" transform="scale(1, -1)"
	style="font-family:Helvetica;font-weight:normal;font-style:normal;font-size:12pt">Second</text>
<text x="82.034" y="-19.498" transform="scale(1, -1)"
	style="font-family:Helvetica;font-weight:normal;font-style:normal;font-size:10pt">0</text>
<text x="366.17" y="-19.498" transform="scale(1, -1)"
	style="font-family:Helvetica;font-weight:normal;font-style:normal;font-size:10pt">8</text>
<text x="646.84" y="-19.498" transform="scale(1, -1)"
	style="font-family:Helvetica;font-weight:normal;font-style:normal;font-size:10pt">16</text>
<text x="930.98" y="-19.498" transform="scale(1, -1)"
	style="font-family:Helvetica;font-weight:normal;font-style:normal;font-size:10pt">24</text>
<path d="M85.51,31.498L85.51,41.498" style="fill:none;stroke:#000000;stroke-width:0.625" />
<path d="M369.65,31.498L369.65,41.498" style="fill:none;stroke:#000000;stroke-width:0.625" />
<path d="M653.79,31.498L653.79,41.498" style="fill:none;stroke:#000000;stroke-width:0.625" />
<path d="M937.93,31.498L937.93,41.498" style="fill:none;stroke:#000000;stroke-width:0.625" />
<path d="M227.58,36.498L227.58,41.498" style="fill:none;stroke:#000000;stroke-width:0.625" />
<path d="M511.72,36.498L511.72,41.498" style="fill:none;stroke:#000000;stroke-width:0.625" />
<path d="M795.86,36.498L795.86,41.498" style="fill:none;stroke:#000000;stroke-width:0.625" />
<path d="M1080,36.498L1080,41.498" style="fill:none;stroke:#000000;stroke-width:0.625" />
<path d="M85.51,41.498L1080,41.498" style="fill:none;stroke:#000000;stroke-width:0.625" />
<g transform="rotate(90)">
<text x="336.05" y="14.399" transform="scale(1, -1)"
	style="font-family:Helvetica;font-weight:normal;font-style:normal;font-size:12pt">Throughput</text>
</g>
<text x="29.673" y="-237.14" transform="scale(1, -1)"
	style="font-family:Helvetica;font-weight:normal;font-style:normal;font-size:10pt">8e+04</text>
<text x="19.248" y="-441.86" transform="scale(1, -1)"
	style="font-family:Helvetica;font-weight:normal;font-style:normal;font-size:10pt">1.6e+05</text>
<text x="19.248" y="-646.57" transform="scale(1, -1)"
	style="font-family:Helvetica;font-weight:normal;font-style:normal;font-size:10pt">2.4e+05</text>
<path d="M68.253,243.01L78.253,243.01" style="fill:none;stroke:#000000;stroke-width:0.625" />
<path d="M68.253,447.73L78.253,447.73" style="fill:none;stroke:#000000;stroke-width:0.625" />
<path d="M68.253,652.45L78.253,652.45" style="fill:none;stroke:#000000;stroke-width:0.625" />
<path d="M73.253,140.65L78.253,140.65" style="fill:none;stroke:#000000;stroke-width:0.625" />
<path d="M73.253,345.37L78.253,345.37" style="fill:none;stroke:#000000;stroke-width:0.625" />
<path d="M73.253,550.09L78.253,550.09" style="fill:none;stroke:#000000;stroke-width:0.625" />
<path d="M78.253,48.06L78.253,700.75" style="fill:none;stroke:#000000;stroke-width:0.625" />
<path d="M85.51,250.02L121.03,252.84L156.55,216.31L192.06,210.6L227.58,211.69L263.1,212.04L298.62,211.66L334.13,212.03L369.65,209.74L405.17,210.62L440.69,210.37L476.2,212.33L511.72,211.1L547.24,211.27L582.76,211.38L618.27,212.85L653.79,211.76L689.31,212L724.83,210.62L760.34,211.23L795.86,212.03L831.38,211.11L866.9,211.76L902.41,211.12L937.93,212.68L973.45,210.83L1009,211.61L1044.5,211.36L1080,210.98" style="fill:none;stroke:#F15A60;stroke-width:1.875" />
<path d="M85.51,48.06L121.03,535.92L156.55,700.75L192.06,613.11L227.58,558.19L263.1,574.93L298.62,622.23L334.13,618.54L369.65,432.25L405.17,288.09L440.69,512.98" style="fill:none;stroke:#7AC36A;stroke-width:1.875;stroke-dasharray:7.5,2.5" />
<path d="M85.51,230.05L121.03,453.21L156.55,407.3L192.06,378.82L227.58,388.17L263.1,390.97L298.62,393.76L334.13,401.65L369.65,401.68L405.17,407.79L440.69,401.64L476.2,404.68L511.72,406.14L547.24,401.69" style="fill:none;stroke:#5A9BD4;stroke-width:1.875;stroke-dasharray:2.5,2.5" />
<path d="M1055,693.4L1080,693.4" style="fill:none;stroke:#F15A60;stroke-width:1.875" />
<text x="918.26" y="-686.35" transform="scale(1, -1)"
	style="font-family:Helvetica;font-weight:normal;font-style:normal;font-size:12pt">etcd v3.1 (Go 1.7.3)</text>
<path d="M1055,678.7L1080,678.7" style="fill:none;stroke:#7AC36A;stroke-width:1.875;stroke-dasharray:7.5,2.5" />
<text x="875.74" y="-671.65" transform="scale(1, -1)"
	style="font-family:Helvetica;font-weight:normal;font-style:normal;font-size:12pt">Zookeeper v3.4.9 (Java 8)</text>
<path d="M1055,664L1080,664" style="fill:none;stroke:#5A9BD4;stroke-width:1.875;stroke-dasharray:2.5,2.5" />
<text x="887.41" y="-656.95" transform="scale(1, -1)"
	style="font-family:Helvetica;font-weight:normal;font-style:normal;font-size:12pt">Consul v0.7.1 (Go 1.7.3)</text>
</g>
</svg>
