<?xml version="1.0"?>
<!-- Generated by SVGo and Plotinum VG -->
<svg width="12in" height="8in"
	xmlns="http://www.w3.org/2000/svg"
	xmlns:xlink="http://www.w3.org/1999/xlink">
<g transform="scale(1, -1) translate(0, -720)">
<path d="M0,0L1080,0L1080,720L0,720Z" style="fill:#FFFFFF" />
<text x="216.79" y="-705.6" transform="scale(1, -1)"
	style="font-family:Helvetica;font-weight:normal;font-style:normal;font-size:12pt">Write 2M keys, 1000-client (etcd v3.1 100-conn), 8-byte key, 256-byte value, Latency(millisecond)</text>
<text x="548.46" y="-4.8486" transform="scale(1, -1)"
	style="font-family:Helvetica;font-weight:normal;font-style:normal;font-size:12pt">Second</text>
<text x="64.31" y="-19.498" transform="scale(1, -1)"
	style="font-family:Helvetica;font-weight:normal;font-style:normal;font-size:10pt">0</text>
<text x="272.72" y="-19.498" transform="scale(1, -1)"
	style="font-family:Helvetica;font-weight:normal;font-style:normal;font-size:10pt">100</text>
<text x="488.09" y="-19.498" transform="scale(1, -1)"
	style="font-family:Helvetica;font-weight:normal;font-style:normal;font-size:10pt">200</text>
<text x="703.45" y="-19.498" transform="scale(1, -1)"
	style="font-family:Helvetica;font-weight:normal;font-style:normal;font-size:10pt">300</text>
<text x="918.82" y="-19.498" transform="scale(1, -1)"
	style="font-family:Helvetica;font-weight:normal;font-style:normal;font-size:10pt">400</text>
<path d="M67.786,31.498L67.786,41.498" style="fill:none;stroke:#000000;stroke-width:0.625" />
<path d="M283.15,31.498L283.15,41.498" style="fill:none;stroke:#000000;stroke-width:0.625" />
<path d="M498.52,31.498L498.52,41.498" style="fill:none;stroke:#000000;stroke-width:0.625" />
<path d="M713.88,31.498L713.88,41.498" style="fill:none;stroke:#000000;stroke-width:0.625" />
<path d="M929.24,31.498L929.24,41.498" style="fill:none;stroke:#000000;stroke-width:0.625" />
<path d="M175.47,36.498L175.47,41.498" style="fill:none;stroke:#000000;stroke-width:0.625" />
<path d="M390.83,36.498L390.83,41.498" style="fill:none;stroke:#000000;stroke-width:0.625" />
<path d="M606.2,36.498L606.2,41.498" style="fill:none;stroke:#000000;stroke-width:0.625" />
<path d="M821.56,36.498L821.56,41.498" style="fill:none;stroke:#000000;stroke-width:0.625" />
<path d="M1036.9,36.498L1036.9,41.498" style="fill:none;stroke:#000000;stroke-width:0.625" />
<path d="M67.786,41.498L1080,41.498" style="fill:none;stroke:#000000;stroke-width:0.625" />
<g transform="rotate(90)">
<text x="306.05" y="14.399" transform="scale(1, -1)"
	style="font-family:Helvetica;font-weight:normal;font-style:normal;font-size:12pt">Latency(millisecond)</text>
</g>
<text x="40.104" y="-42.186" transform="scale(1, -1)"
	style="font-family:Helvetica;font-weight:normal;font-style:normal;font-size:10pt">0</text>
<text x="19.248" y="-231.89" transform="scale(1, -1)"
	style="font-family:Helvetica;font-weight:normal;font-style:normal;font-size:10pt">3000</text>
<text x="19.248" y="-421.6" transform="scale(1, -1)"
	style="font-family:Helvetica;font-weight:normal;font-style:normal;font-size:10pt">6000</text>
<text x="19.248" y="-611.31" transform="scale(1, -1)"
	style="font-family:Helvetica;font-weight:normal;font-style:normal;font-size:10pt">9000</text>
<path d="M50.529,48.06L60.529,48.06" style="fill:none;stroke:#000000;stroke-width:0.625" />
<path d="M50.529,237.77L60.529,237.77" style="fill:none;stroke:#000000;stroke-width:0.625" />
<path d="M50.529,427.47L60.529,427.47" style="fill:none;stroke:#000000;stroke-width:0.625" />
<path d="M50.529,617.18L60.529,617.18" style="fill:none;stroke:#000000;stroke-width:0.625" />
<path d="M55.529,111.3L60.529,111.3" style="fill:none;stroke:#000000;stroke-width:0.625" />
<path d="M55.529,174.53L60.529,174.53" style="fill:none;stroke:#000000;stroke-width:0.625" />
<path d="M55.529,301L60.529,301" style="fill:none;stroke:#000000;stroke-width:0.625" />
<path d="M55.529,364.24L60.529,364.24" style="fill:none;stroke:#000000;stroke-width:0.625" />
<path d="M55.529,490.71L60.529,490.71" style="fill:none;stroke:#000000;stroke-width:0.625" />
<path d="M55.529,553.94L60.529,553.94" style="fill:none;stroke:#000000;stroke-width:0.625" />
<path d="M55.529,680.42L60.529,680.42" style="fill:none;stroke:#000000;stroke-width:0.625" />
<path d="M60.529,48.06L60.529,700.75" style="fill:none;stroke:#000000;stroke-width:0.625" />
<path d="M67.786,49.191L69.939,49.303L72.093,49.372L74.247,49.607L76.4,49.557L78.554,49.555L80.708,49.647L82.861,49.575L85.015,49.749L87.168,49.648L89.322,49.593L91.476,49.673L93.629,49.663L95.783,49.882L97.937,49.679L100.09,49.585L102.24,49.728L104.4,49.711L106.55,49.696L108.7,49.608L110.86,49.616L113.01,49.705L115.17,49.704L117.32,49.632L119.47,49.664L121.63,49.704L123.78,49.541L125.93,49.773L128.09,49.605L130.24,49.692L132.4,49.562L134.55,49.785L136.7,49.605L138.86,49.711L141.01,49.733L143.16,49.701L145.32,49.608L147.47,49.653L149.62,49.632L151.78,49.659L153.93,49.688L156.09,49.679L158.24,49.658L160.39,49.691L162.55,49.697L164.7,49.603L166.85,49.776L169.01,49.719L171.16,49.607L173.31,49.769L175.47,49.621" style="fill:none;stroke:#F15A60;stroke-width:1.875" />
<path d="M67.786,49.09L69.939,48.576L72.093,49.711L74.247,49.166L76.4,49.193L78.554,49.468L80.708,49.187L82.861,49.109L85.015,50.334L87.168,52.265L89.322,49.179L91.476,49.122L93.629,49.138L95.783,50.491L97.937,49.202L100.09,49.588L102.24,51.41L104.4,49.355L106.55,49.138L108.7,49.475L110.86,49.094L113.01,49.429L115.17,49.142L117.32,49.139L119.47,63.298L121.63,48.766L123.78,49.709L125.93,49.582L128.09,49.973L130.24,51.436L132.4,49.553L134.55,49.605L136.7,69.867L138.86,100.74L141.01,101.6L143.16,101.93L145.32,91.966L147.47,147.65L149.62,49.859L151.78,49.118L153.93,49.163L156.09,49.224L158.24,49.27L160.39,49.165L162.55,49.458L164.7,49.141L166.85,56.995L169.01,48.06L171.16,52.671L173.31,49.265L175.47,49.136L177.62,50.723L179.78,49.882L181.93,49.606L184.08,49.556L186.24,49.328" style="fill:none;stroke:#7AC36A;stroke-width:1.875;stroke-dasharray:7.5,2.5" />
<path d="M67.786,52.897L69.939,52.742L72.093,52.621L74.247,52.912L76.4,53.392L78.554,53.158L80.708,53.383L82.861,53.181L85.015,53.467L87.168,53.299L89.322,53.393L91.476,53.266L93.629,53.397L95.783,53.231L97.937,53.259L100.09,53.351L102.24,53.282L104.4,53.138L106.55,53.169L108.7,53.571L110.86,53.187L113.01,53.557L115.17,52.853L117.32,53.487L119.47,53.605L121.63,53.34L123.78,52.836L125.93,53.183L128.09,53.589L130.24,53.209L132.4,53.302L134.55,53.286L136.7,53.346L138.86,53.449L141.01,53.067L143.16,53.438L145.32,52.81L147.47,53.355L149.62,53.702L151.78,52.816L153.93,53.596L156.09,53.051L158.24,53.642L160.39,53.595L162.55,52.908L164.7,53.501L166.85,52.619L169.01,53.768L171.16,52.626L173.31,53.997L175.47,52.553L177.62,54.535L179.78,52.69L181.93,53.715L184.08,52.858L186.24,53.774L188.39,52.66L190.54,54.453L192.7,52.91L194.85,54.188L197,53.085L199.16,52.955L201.31,54.191L203.47,52.754L205.62,54.499L207.77,52.947L209.93,53.198L212.08,54.464L214.23,52.721L216.39,54.554L218.54,52.932L220.69,52.717L222.85,54.389L225,52.74L227.16,53.186L229.31,53.52L231.46,52.87L233.62,54.471L235.77,52.863L237.92,52.708L240.08,54.611L242.23,52.986L244.38,52.625L246.54,54.594L248.69,52.709L250.85,53.04L253,55.075L255.15,53.259L257.31,52.959L259.46,53.666L261.61,53.498L263.77,53.055L265.92,52.789L268.07,54.759L270.23,53.453L272.38,52.925L274.54,53.918L276.69,53.991L278.84,53.013L281,52.855L283.15,54.917L285.3,53.101L287.46,52.717L289.61,53.293L291.76,53.936L293.92,52.978L296.07,52.917L298.23,55.348L300.38,52.903L302.53,52.802L304.69,53.255L306.84,55.321L308.99,52.812L311.15,53.031L313.3,52.874L315.46,55.463L317.61,53.497L319.76,54.939L321.92,56.293L324.07,58.064L326.22,58.198L328.38,57.855L330.53,56.477L332.68,55.429L334.84,57.868L336.99,57.328L339.15,56.34L341.3,57.645L343.45,57.624L345.61,60.386L347.76,56.12L349.91,52.847L352.07,52.945L354.22,54.799L356.37,55.251L358.53,53.042L360.68,48.06L362.84,141.61L364.99,104.04L367.14,48.06L369.3,142.51L371.45,66.736L373.6,71.703L375.76,65.55L377.91,70.917L380.06,63.699L382.22,68.096L384.37,63.84L386.53,67.753L388.68,68.286L390.83,92.821L392.99,124.29L395.14,149.82L397.29,163.31L399.45,183.99L401.6,202.56L403.75,224.55L405.91,235.32L408.06,250.44L410.22,266.68L412.37,266.46L414.52,306.35L416.68,365.59L418.83,447.3L420.98,48.06L423.14,576.37L425.29,48.06L427.44,700.75L429.6,698.4L431.75,697.34L433.91,698.47L436.06,286.66L438.21,255.34L440.37,255.64L442.52,254.03L444.67,253.9L446.83,254.3L448.98,252.44L451.13,250.78L453.29,249.16L455.44,247.22L457.6,245.4L459.75,244.51L461.9,243.07L464.06,241.2L466.21,238.38L468.36,237.7L470.52,236.61L472.67,234.86L474.83,234.58L476.98,234L479.13,232.7L481.29,229.26L483.44,229.44L485.59,229.07L487.75,229.01L489.9,226.66L492.05,226.99L494.21,226.98L496.36,224.32L498.52,221.62L500.67,220.83L502.82,221.33L504.98,220.49L507.13,219.79L509.28,219.63L511.44,217.11L513.59,216.85L515.74,213.85L517.9,214.19L520.05,212.93L522.21,211.39L524.36,211.07L526.51,208.26L528.67,207.14L530.82,141.5L532.97,90.497L535.13,87.543L537.28,89.327L539.43,87.652L541.59,88.824L543.74,89.075L545.9,88.462L548.05,88.799L550.2,89.622L552.36,87.851L554.51,88.09L556.66,88.844L558.82,87.278L560.97,88.852L563.12,88.78L565.28,87.69L567.43,88.058L569.59,87.919L571.74,88.005L573.89,88.52L576.05,87.146L578.2,88.11L580.35,88.267L582.51,88.521L584.66,87.987L586.81,87.033L588.97,87.859L591.12,86.587L593.28,89.119L595.43,86.596L597.58,87.985L599.74,86.913L601.89,88.48L604.04,87.492L606.2,86.986L608.35,86.406L610.5,86.829L612.66,88.725L614.81,87.531L616.97,86.881L619.12,86.681L621.27,87.148L623.43,86.647L625.58,86.889L627.73,87.328L629.89,85.788L632.04,87.478L634.19,87.854L636.35,86.852L638.5,85.052L640.66,86.731L642.81,87.465L644.96,86.006L647.12,87.383L649.27,86.451L651.42,85.89L653.58,86.139L655.73,87.124L657.89,86.189L660.04,85.979L662.19,86.033L664.35,85.714L666.5,86.232L668.65,85.878L670.81,85.391L672.96,86.862L675.11,86.315L677.27,85.468L679.42,83.179L681.58,85.743L683.73,86.587L685.88,84.793L688.04,87.885L690.19,83.438L692.34,87.813L694.5,83.432L696.65,86.079L698.8,86.705L700.96,90.075L703.11,81.607L705.27,85.776L707.42,85.561L709.57,84.256L711.73,84.882L713.88,86.236L716.03,85.375L718.19,85.501L720.34,83.163L722.49,83.458L724.65,84.958L726.8,85.586L728.96,85.465L731.11,83.652L733.26,84.158L735.42,84.694L737.57,85.512L739.72,84.279L741.88,84.714L744.03,83.959L746.18,84.643L748.34,83.871L750.49,84.704L752.65,84.35L754.8,83.791L756.95,89.495L759.11,97.477L761.26,78.198L763.41,84.21L765.57,83.005L767.72,83.434L769.87,84.211L772.03,83.792L774.18,83.034L776.34,84.551L778.49,83.809L780.64,83.615L782.8,83.591L784.95,83.744L787.1,84.263L789.26,81.763L791.41,84.791L793.56,81.963L795.72,82.987L797.87,83.622L800.03,83.215L802.18,84.454L804.33,81.215L806.49,83.363L808.64,85.593L810.79,86.185L812.95,89.449L815.1,83.239L817.25,82.214L819.41,82.06L821.56,82.839L823.72,82.94L825.87,86.152L828.02,83.013L830.18,79.465L832.33,92.182L834.48,93.748L836.64,90.306L838.79,89.335L840.95,93.098L843.1,89.51L845.25,92.682L847.41,89.105L849.56,91.074L851.71,91.086L853.87,93.586L856.02,88.12L858.17,91.242L860.33,92.851L862.48,88.26L864.64,90.12L866.79,90.662L868.94,90.565L871.1,92.985L873.25,89.233L875.4,90.928L877.56,89.68L879.71,102.09L881.86,122.96L884.02,146.78L886.17,48.06L888.33,48.06L890.48,339.23L892.63,48.06L894.79,48.06L896.94,48.06L899.09,417.88L901.25,89.026L903.4,88.882L905.55,90.008L907.71,91.176L909.86,89.475L912.02,95.018L914.17,85.796L916.32,90.033L918.48,89.563L920.63,90.101L922.78,90.585L924.94,91.779L927.09,88.075L929.24,91.907L931.4,87.885L933.55,91.053L935.71,89.303L937.86,89.106L940.01,90.641L942.17,89.347L944.32,89.072L946.47,90.915L948.63,89.05L950.78,88.954L952.93,89.7L955.09,90.157L957.24,88.703L959.4,89.169L961.55,89.844L963.7,89.274L965.86,88.828L968.01,89.663L970.16,88.99L972.32,89.917L974.47,88.121L976.62,88.941L978.78,88.624L980.93,89.194L983.09,89.305L985.24,90.058L987.39,87.436L989.55,89.123L991.7,89.461L993.85,87.763L996.01,88.152L998.16,89.534L1000.3,88.272L1002.5,87.805L1004.6,88.798L1006.8,88.289L1008.9,89.754L1011.1,87.064L1013.2,87.692L1015.4,88.699L1017.5,87.908L1019.7,88.518L1021.9,88.377L1024,87.17L1026.2,88.594L1028.3,87.168L1030.5,88.383L1032.6,88.365L1034.8,87.542L1036.9,89.263L1039.1,86.487L1041.2,87.356L1043.4,87.824L1045.5,88.604L1047.7,87.516L1049.8,87.762L1052,86.753L1054.2,87.028L1056.3,87.872L1058.5,88.321L1060.6,85.914L1062.8,88.43L1064.9,87.506L1067.1,87.545L1069.2,85.351L1071.4,87.073L1073.5,88.152L1075.7,86.796L1077.8,86.278L1080,87.18" style="fill:none;stroke:#5A9BD4;stroke-width:1.875;stroke-dasharray:2.5,2.5" />
<path d="M1055,693.4L1080,693.4" style="fill:none;stroke:#F15A60;stroke-width:1.875" />
<text x="918.26" y="-686.35" transform="scale(1, -1)"
	style="font-family:Helvetica;font-weight:normal;font-style:normal;font-size:12pt">etcd v3.1 (Go 1.7.3)</text>
<path d="M1055,678.7L1080,678.7" style="fill:none;stroke:#7AC36A;stroke-width:1.875;stroke-dasharray:7.5,2.5" />
<text x="875.74" y="-671.65" transform="scale(1, -1)"
	style="font-family:Helvetica;font-weight:normal;font-style:normal;font-size:12pt">Zookeeper v3.4.9 (Java 8)</text>
<path d="M1055,664L1080,664" style="fill:none;stroke:#5A9BD4;stroke-width:1.875;stroke-dasharray:2.5,2.5" />
<text x="887.41" y="-656.95" transform="scale(1, -1)"
	style="font-family:Helvetica;font-weight:normal;font-style:normal;font-size:12pt">Consul v0.7.1 (Go 1.7.3)</text>
</g>
</svg>
