<?xml version="1.0"?>
<!-- Generated by SVGo and Plotinum VG -->
<svg width="12in" height="8in"
	xmlns="http://www.w3.org/2000/svg"
	xmlns:xlink="http://www.w3.org/1999/xlink">
<g transform="scale(1, -1) translate(0, -720)">
<path d="M0,0L1080,0L1080,720L0,720Z" style="fill:#FFFFFF" />
<text x="203.42" y="-705.6" transform="scale(1, -1)"
	style="font-family:Helvetica;font-weight:normal;font-style:normal;font-size:12pt">Linearizable-Read 2M keys, 1000-client (etcd v3.1 100-conn), 8-byte key, 256-byte value, Throughput</text>
<text x="557.32" y="-4.8486" transform="scale(1, -1)"
	style="font-family:Helvetica;font-weight:normal;font-style:normal;font-size:12pt">Second</text>
<text x="82.034" y="-19.498" transform="scale(1, -1)"
	style="font-family:Helvetica;font-weight:normal;font-style:normal;font-size:10pt">0</text>
<text x="340.27" y="-19.498" transform="scale(1, -1)"
	style="font-family:Helvetica;font-weight:normal;font-style:normal;font-size:10pt">10</text>
<text x="601.97" y="-19.498" transform="scale(1, -1)"
	style="font-family:Helvetica;font-weight:normal;font-style:normal;font-size:10pt">20</text>
<text x="863.68" y="-19.498" transform="scale(1, -1)"
	style="font-family:Helvetica;font-weight:normal;font-style:normal;font-size:10pt">30</text>
<path d="M85.51,31.498L85.51,41.498" style="fill:none;stroke:#000000;stroke-width:0.625" />
<path d="M347.22,31.498L347.22,41.498" style="fill:none;stroke:#000000;stroke-width:0.625" />
<path d="M608.93,31.498L608.93,41.498" style="fill:none;stroke:#000000;stroke-width:0.625" />
<path d="M870.63,31.498L870.63,41.498" style="fill:none;stroke:#000000;stroke-width:0.625" />
<path d="M216.36,36.498L216.36,41.498" style="fill:none;stroke:#000000;stroke-width:0.625" />
<path d="M478.07,36.498L478.07,41.498" style="fill:none;stroke:#000000;stroke-width:0.625" />
<path d="M739.78,36.498L739.78,41.498" style="fill:none;stroke:#000000;stroke-width:0.625" />
<path d="M1001.5,36.498L1001.5,41.498" style="fill:none;stroke:#000000;stroke-width:0.625" />
<path d="M85.51,41.498L1080,41.498" style="fill:none;stroke:#000000;stroke-width:0.625" />
<g transform="rotate(90)">
<text x="336.05" y="14.399" transform="scale(1, -1)"
	style="font-family:Helvetica;font-weight:normal;font-style:normal;font-size:12pt">Throughput</text>
</g>
<text x="29.673" y="-245.77" transform="scale(1, -1)"
	style="font-family:Helvetica;font-weight:normal;font-style:normal;font-size:10pt">4e+04</text>
<text x="29.673" y="-455.69" transform="scale(1, -1)"
	style="font-family:Helvetica;font-weight:normal;font-style:normal;font-size:10pt">8e+04</text>
<text x="19.248" y="-665.61" transform="scale(1, -1)"
	style="font-family:Helvetica;font-weight:normal;font-style:normal;font-size:10pt">1.2e+05</text>
<path d="M68.253,251.64L78.253,251.64" style="fill:none;stroke:#000000;stroke-width:0.625" />
<path d="M68.253,461.57L78.253,461.57" style="fill:none;stroke:#000000;stroke-width:0.625" />
<path d="M68.253,671.49L78.253,671.49" style="fill:none;stroke:#000000;stroke-width:0.625" />
<path d="M73.253,146.68L78.253,146.68" style="fill:none;stroke:#000000;stroke-width:0.625" />
<path d="M73.253,356.6L78.253,356.6" style="fill:none;stroke:#000000;stroke-width:0.625" />
<path d="M73.253,566.53L78.253,566.53" style="fill:none;stroke:#000000;stroke-width:0.625" />
<path d="M78.253,48.06L78.253,700.75" style="fill:none;stroke:#000000;stroke-width:0.625" />
<path d="M85.51,282.62L111.68,382.4L137.85,317.75L164.02,308.25L190.19,309.82L216.36,307.68L242.53,310.05L268.71,309.29L294.88,308.18L321.05,306.56L347.22,307.58L373.39,309.8L399.56,307.71L425.73,308.14L451.9,310.05L478.07,308.55L504.24,308.69L530.41,305L556.58,308.75L582.76,303.61L608.93,308.04L635.1,307.51L661.27,303.65L687.44,305.88L713.61,309.21L739.78,307.77L765.95,307.81L792.12,311L818.29,307.89L844.46,305.98L870.63,300.38L896.8,309.66L922.98,311.58L949.15,308.3L975.32,302.99L1001.5,308.07L1027.7,300.66L1053.8,303.81L1080,305.91" style="fill:none;stroke:#F15A60;stroke-width:1.875" />
<path d="M85.51,48.06L111.68,568.84L137.85,685.14L164.02,607.22L190.19,523.39L216.36,287.74L242.53,522.67L268.71,412.68L294.88,428.25L321.05,605.59L347.22,546.73L373.39,222.92L399.56,560.75L425.73,622.16L451.9,650.05L478.07,641.86L504.24,653.61L530.41,643.6L556.58,700.75L582.76,661.88L608.93,663.29" style="fill:none;stroke:#7AC36A;stroke-width:1.875;stroke-dasharray:7.5,2.5" />
<path d="M85.51,223.88L111.68,389.34L137.85,318.96L164.02,318.79L190.19,314.89L216.36,303.07L242.53,281.04L268.71,319.83L294.88,320.66L321.05,308.19L347.22,316.11L373.39,316.46L399.56,322.85L425.73,321.79L451.9,320.84L478.07,319.91L504.24,327.35L530.41,322.5L556.58,308.58L582.76,328.53L608.93,336.31L635.1,332.26L661.27,328.64L687.44,320.71L713.61,332.9L739.78,323.24L765.95,329.79L792.12,328.95L818.29,326.22L844.46,324.34L870.63,328.78L896.8,328.45L922.98,327.41L949.15,331.7L975.32,323.96L1001.5,330.15L1027.7,337.27" style="fill:none;stroke:#5A9BD4;stroke-width:1.875;stroke-dasharray:2.5,2.5" />
<path d="M1055,693.4L1080,693.4" style="fill:none;stroke:#F15A60;stroke-width:1.875" />
<text x="918.26" y="-686.35" transform="scale(1, -1)"
	style="font-family:Helvetica;font-weight:normal;font-style:normal;font-size:12pt">etcd v3.1 (Go 1.7.3)</text>
<path d="M1055,678.7L1080,678.7" style="fill:none;stroke:#7AC36A;stroke-width:1.875;stroke-dasharray:7.5,2.5" />
<text x="875.74" y="-671.65" transform="scale(1, -1)"
	style="font-family:Helvetica;font-weight:normal;font-style:normal;font-size:12pt">Zookeeper v3.4.9 (Java 8)</text>
<path d="M1055,664L1080,664" style="fill:none;stroke:#5A9BD4;stroke-width:1.875;stroke-dasharray:2.5,2.5" />
<text x="887.41" y="-656.95" transform="scale(1, -1)"
	style="font-family:Helvetica;font-weight:normal;font-style:normal;font-size:12pt">Consul v0.7.1 (Go 1.7.3)</text>
</g>
</svg>
