<?xml version="1.0"?>
<!-- Generated by SVGo and Plotinum VG -->
<svg width="12in" height="8in"
	xmlns="http://www.w3.org/2000/svg"
	xmlns:xlink="http://www.w3.org/1999/xlink">
<g transform="scale(1, -1) translate(0, -720)">
<path d="M0,0L1080,0L1080,720L0,720Z" style="fill:#FFFFFF" />
<text x="203.42" y="-705.6" transform="scale(1, -1)"
	style="font-family:Helvetica;font-weight:normal;font-style:normal;font-size:12pt">Linearizable-Read 2M keys, 1000-client (etcd v3.1 100-conn), 8-byte key, 256-byte value, Throughput</text>
<text x="552.11" y="-4.8486" transform="scale(1, -1)"
	style="font-family:Helvetica;font-weight:normal;font-style:normal;font-size:12pt">Second</text>
<text x="71.609" y="-19.498" transform="scale(1, -1)"
	style="font-family:Helvetica;font-weight:normal;font-style:normal;font-size:10pt">0</text>
<text x="332.58" y="-19.498" transform="scale(1, -1)"
	style="font-family:Helvetica;font-weight:normal;font-style:normal;font-size:10pt">10</text>
<text x="597.04" y="-19.498" transform="scale(1, -1)"
	style="font-family:Helvetica;font-weight:normal;font-style:normal;font-size:10pt">20</text>
<text x="861.49" y="-19.498" transform="scale(1, -1)"
	style="font-family:Helvetica;font-weight:normal;font-style:normal;font-size:10pt">30</text>
<path d="M75.085,31.498L75.085,41.498" style="fill:none;stroke:#000000;stroke-width:0.625" />
<path d="M339.54,31.498L339.54,41.498" style="fill:none;stroke:#000000;stroke-width:0.625" />
<path d="M603.99,31.498L603.99,41.498" style="fill:none;stroke:#000000;stroke-width:0.625" />
<path d="M868.44,31.498L868.44,41.498" style="fill:none;stroke:#000000;stroke-width:0.625" />
<path d="M207.31,36.498L207.31,41.498" style="fill:none;stroke:#000000;stroke-width:0.625" />
<path d="M471.76,36.498L471.76,41.498" style="fill:none;stroke:#000000;stroke-width:0.625" />
<path d="M736.21,36.498L736.21,41.498" style="fill:none;stroke:#000000;stroke-width:0.625" />
<path d="M1000.7,36.498L1000.7,41.498" style="fill:none;stroke:#000000;stroke-width:0.625" />
<path d="M75.085,41.498L1080,41.498" style="fill:none;stroke:#000000;stroke-width:0.625" />
<g transform="rotate(90)">
<text x="336.05" y="14.399" transform="scale(1, -1)"
	style="font-family:Helvetica;font-weight:normal;font-style:normal;font-size:12pt">Throughput</text>
</g>
<text x="19.248" y="-92.263" transform="scale(1, -1)"
	style="font-family:Helvetica;font-weight:normal;font-style:normal;font-size:10pt">3e+04</text>
<text x="19.248" y="-294.11" transform="scale(1, -1)"
	style="font-family:Helvetica;font-weight:normal;font-style:normal;font-size:10pt">6e+04</text>
<text x="19.248" y="-495.95" transform="scale(1, -1)"
	style="font-family:Helvetica;font-weight:normal;font-style:normal;font-size:10pt">9e+04</text>
<path d="M57.828,98.138L67.828,98.138" style="fill:none;stroke:#000000;stroke-width:0.625" />
<path d="M57.828,299.98L67.828,299.98" style="fill:none;stroke:#000000;stroke-width:0.625" />
<path d="M57.828,501.83L67.828,501.83" style="fill:none;stroke:#000000;stroke-width:0.625" />
<path d="M62.828,165.42L67.828,165.42" style="fill:none;stroke:#000000;stroke-width:0.625" />
<path d="M62.828,232.7L67.828,232.7" style="fill:none;stroke:#000000;stroke-width:0.625" />
<path d="M62.828,367.26L67.828,367.26" style="fill:none;stroke:#000000;stroke-width:0.625" />
<path d="M62.828,434.55L67.828,434.55" style="fill:none;stroke:#000000;stroke-width:0.625" />
<path d="M62.828,569.11L67.828,569.11" style="fill:none;stroke:#000000;stroke-width:0.625" />
<path d="M62.828,636.39L67.828,636.39" style="fill:none;stroke:#000000;stroke-width:0.625" />
<path d="M67.828,48.06L67.828,700.75" style="fill:none;stroke:#000000;stroke-width:0.625" />
<path d="M75.085,140.13L101.53,343.83L127.98,241.86L154.42,240.4L180.87,242.05L207.31,239.72L233.76,237.25L260.2,239.73L286.65,241.01L313.09,237.84L339.54,240.24L365.98,238.88L392.43,239.98L418.87,236.15L445.32,241.21L471.76,223.61L498.21,242.58L524.65,226.14L551.1,239.6L577.54,239.42L603.99,237.02L630.43,238.08L656.88,238.64L683.32,238.63L709.77,239.55L736.21,235.75L762.66,241.29L789.1,236.51L815.55,238.43L841.99,240.49L868.44,239.5L894.88,231.1L921.33,242.88L947.77,229.6L974.22,237.96L1000.7,240.59L1027.1,246.08L1053.6,233.28L1080,239.74" style="fill:none;stroke:#F15A60;stroke-width:1.875" />
<path d="M75.085,214.27L101.53,475.18L127.98,576.12L154.42,681.22L180.87,700.75L207.31,688.27L233.76,685.19L260.2,675.74L286.65,665.18L313.09,481.31L339.54,478.84L365.98,596.16L392.43,490.64L418.87,495.66L445.32,623.13L471.76,636.98L498.21,460.66L524.65,566.24L551.1,672.59" style="fill:none;stroke:#7AC36A;stroke-width:1.875;stroke-dasharray:7.5,2.5" />
<path d="M75.085,48.06L101.53,287.06L127.98,251.49L154.42,258.83L180.87,261.81L207.31,255.69L233.76,254.06L260.2,249.71L286.65,256.15L313.09,249.56L339.54,251.88L365.98,256.3L392.43,255.95L418.87,260.94L445.32,266.14L471.76,266.38L498.21,263.15L524.65,268.41L551.1,266.52L577.54,246.7L603.99,270.21L630.43,270.18L656.88,272.21L683.32,268.7L709.77,264.9L736.21,268.52L762.66,264.16L789.1,274.91L815.55,267.42L841.99,263.62L868.44,274.55L894.88,277.81L921.33,263.84L947.77,267.4L974.22,272.57L1000.7,266.99L1027.1,269.54" style="fill:none;stroke:#5A9BD4;stroke-width:1.875;stroke-dasharray:2.5,2.5" />
<path d="M1055,693.4L1080,693.4" style="fill:none;stroke:#F15A60;stroke-width:1.875" />
<text x="918.26" y="-686.35" transform="scale(1, -1)"
	style="font-family:Helvetica;font-weight:normal;font-style:normal;font-size:12pt">etcd v3.1 (Go 1.7.4)</text>
<path d="M1055,678.7L1080,678.7" style="fill:none;stroke:#7AC36A;stroke-width:1.875;stroke-dasharray:7.5,2.5" />
<text x="875.74" y="-671.65" transform="scale(1, -1)"
	style="font-family:Helvetica;font-weight:normal;font-style:normal;font-size:12pt">Zookeeper v3.4.9 (Java 8)</text>
<path d="M1055,664L1080,664" style="fill:none;stroke:#5A9BD4;stroke-width:1.875;stroke-dasharray:2.5,2.5" />
<text x="887.41" y="-656.95" transform="scale(1, -1)"
	style="font-family:Helvetica;font-weight:normal;font-style:normal;font-size:12pt">Consul v0.7.1 (Go 1.7.3)</text>
</g>
</svg>
