<?xml version="1.0"?>
<!-- Generated by SVGo and Plotinum VG -->
<svg width="12in" height="8in"
	xmlns="http://www.w3.org/2000/svg"
	xmlns:xlink="http://www.w3.org/1999/xlink">
<g transform="scale(1, -1) translate(0, -720)">
<path d="M0,0L1080,0L1080,720L0,720Z" style="fill:#FFFFFF" />
<text x="199.99" y="-705.6" transform="scale(1, -1)"
	style="font-family:Helvetica;font-weight:normal;font-style:normal;font-size:12pt">Serializable-Read 2M keys, 1000-client (etcd v3.1 100-conn), 8-byte key, 256-byte value, Memory(MB)</text>
<text x="544.98" y="-4.8486" transform="scale(1, -1)"
	style="font-family:Helvetica;font-weight:normal;font-style:normal;font-size:12pt">Second</text>
<text x="57.358" y="-19.498" transform="scale(1, -1)"
	style="font-family:Helvetica;font-weight:normal;font-style:normal;font-size:10pt">0</text>
<text x="359.33" y="-19.498" transform="scale(1, -1)"
	style="font-family:Helvetica;font-weight:normal;font-style:normal;font-size:10pt">8</text>
<text x="657.83" y="-19.498" transform="scale(1, -1)"
	style="font-family:Helvetica;font-weight:normal;font-style:normal;font-size:10pt">16</text>
<text x="959.81" y="-19.498" transform="scale(1, -1)"
	style="font-family:Helvetica;font-weight:normal;font-style:normal;font-size:10pt">24</text>
<path d="M60.834,31.498L60.834,41.498" style="fill:none;stroke:#000000;stroke-width:0.625" />
<path d="M362.81,31.498L362.81,41.498" style="fill:none;stroke:#000000;stroke-width:0.625" />
<path d="M664.78,31.498L664.78,41.498" style="fill:none;stroke:#000000;stroke-width:0.625" />
<path d="M966.76,31.498L966.76,41.498" style="fill:none;stroke:#000000;stroke-width:0.625" />
<path d="M211.82,36.498L211.82,41.498" style="fill:none;stroke:#000000;stroke-width:0.625" />
<path d="M513.8,36.498L513.8,41.498" style="fill:none;stroke:#000000;stroke-width:0.625" />
<path d="M815.77,36.498L815.77,41.498" style="fill:none;stroke:#000000;stroke-width:0.625" />
<path d="M60.834,41.498L1080,41.498" style="fill:none;stroke:#000000;stroke-width:0.625" />
<g transform="rotate(90)">
<text x="331.08" y="14.399" transform="scale(1, -1)"
	style="font-family:Helvetica;font-weight:normal;font-style:normal;font-size:12pt">Memory(MB)</text>
</g>
<text x="19.248" y="-171.55" transform="scale(1, -1)"
	style="font-family:Helvetica;font-weight:normal;font-style:normal;font-size:10pt">100</text>
<text x="19.248" y="-323.93" transform="scale(1, -1)"
	style="font-family:Helvetica;font-weight:normal;font-style:normal;font-size:10pt">200</text>
<text x="19.248" y="-476.31" transform="scale(1, -1)"
	style="font-family:Helvetica;font-weight:normal;font-style:normal;font-size:10pt">300</text>
<text x="19.248" y="-628.68" transform="scale(1, -1)"
	style="font-family:Helvetica;font-weight:normal;font-style:normal;font-size:10pt">400</text>
<path d="M43.577,177.43L53.577,177.43" style="fill:none;stroke:#000000;stroke-width:0.625" />
<path d="M43.577,329.81L53.577,329.81" style="fill:none;stroke:#000000;stroke-width:0.625" />
<path d="M43.577,482.18L53.577,482.18" style="fill:none;stroke:#000000;stroke-width:0.625" />
<path d="M43.577,634.56L53.577,634.56" style="fill:none;stroke:#000000;stroke-width:0.625" />
<path d="M48.577,101.24L53.577,101.24" style="fill:none;stroke:#000000;stroke-width:0.625" />
<path d="M48.577,253.62L53.577,253.62" style="fill:none;stroke:#000000;stroke-width:0.625" />
<path d="M48.577,405.99L53.577,405.99" style="fill:none;stroke:#000000;stroke-width:0.625" />
<path d="M48.577,558.37L53.577,558.37" style="fill:none;stroke:#000000;stroke-width:0.625" />
<path d="M53.577,48.06L53.577,700.75" style="fill:none;stroke:#000000;stroke-width:0.625" />
<path d="M60.834,52.769L98.581,89.461L136.33,89.461L174.07,89.461L211.82,89.461L249.57,89.461L287.32,89.461L325.06,89.461L362.81,89.568L400.56,89.766L438.3,89.873L476.05,89.873L513.8,90.086L551.54,90.086L589.29,90.086L627.04,90.086L664.78,90.086L702.53,90.208L740.28,90.208L778.02,90.208L815.77,90.65L853.52,90.65L891.27,90.65L929.01,90.65L966.76,90.65L1004.5,90.65L1042.3,90.65L1080,90.65" style="fill:none;stroke:#F15A60;stroke-width:1.875" />
<path d="M60.834,228.73L98.581,263.13L136.33,363.18L174.07,551.36L211.82,550.97L249.57,630.05L287.32,700.75L325.06,695.54L362.81,695.54L400.56,695.54" style="fill:none;stroke:#7AC36A;stroke-width:1.875;stroke-dasharray:7.5,2.5" />
<path d="M60.834,48.06L98.581,62.871L136.33,67.046L174.07,67.046L211.82,67.046L249.57,67.046L287.32,67.519L325.06,67.519L362.81,68.022L400.56,68.631L438.3,68.631L476.05,68.631L513.8,68.631" style="fill:none;stroke:#5A9BD4;stroke-width:1.875;stroke-dasharray:2.5,2.5" />
<path d="M1055,693.4L1080,693.4" style="fill:none;stroke:#F15A60;stroke-width:1.875" />
<text x="918.26" y="-686.35" transform="scale(1, -1)"
	style="font-family:Helvetica;font-weight:normal;font-style:normal;font-size:12pt">etcd v3.1 (Go 1.7.3)</text>
<path d="M1055,678.7L1080,678.7" style="fill:none;stroke:#7AC36A;stroke-width:1.875;stroke-dasharray:7.5,2.5" />
<text x="875.74" y="-671.65" transform="scale(1, -1)"
	style="font-family:Helvetica;font-weight:normal;font-style:normal;font-size:12pt">Zookeeper v3.4.9 (Java 8)</text>
<path d="M1055,664L1080,664" style="fill:none;stroke:#5A9BD4;stroke-width:1.875;stroke-dasharray:2.5,2.5" />
<text x="887.41" y="-656.95" transform="scale(1, -1)"
	style="font-family:Helvetica;font-weight:normal;font-style:normal;font-size:12pt">Consul v0.7.3 (Go 1.7.3)</text>
</g>
</svg>
