<?xml version="1.0"?>
<!-- Generated by SVGo and Plotinum VG -->
<svg width="12in" height="8in"
	xmlns="http://www.w3.org/2000/svg"
	xmlns:xlink="http://www.w3.org/1999/xlink">
<g transform="scale(1, -1) translate(0, -720)">
<path d="M0,0L1080,0L1080,720L0,720Z" style="fill:#FFFFFF" />
<text x="173.28" y="-705.6" transform="scale(1, -1)"
	style="font-family:Helvetica;font-weight:normal;font-style:normal;font-size:12pt">Linearizable-Read 2M keys, 1000-client (etcd v3.1 100-conn), 8-byte key, 256-byte value, Latency(millisecond)</text>
<text x="541.5" y="-4.8486" transform="scale(1, -1)"
	style="font-family:Helvetica;font-weight:normal;font-style:normal;font-size:12pt">Second</text>
<text x="50.406" y="-19.498" transform="scale(1, -1)"
	style="font-family:Helvetica;font-weight:normal;font-style:normal;font-size:10pt">0</text>
<text x="316.96" y="-19.498" transform="scale(1, -1)"
	style="font-family:Helvetica;font-weight:normal;font-style:normal;font-size:10pt">10</text>
<text x="586.99" y="-19.498" transform="scale(1, -1)"
	style="font-family:Helvetica;font-weight:normal;font-style:normal;font-size:10pt">20</text>
<text x="857.02" y="-19.498" transform="scale(1, -1)"
	style="font-family:Helvetica;font-weight:normal;font-style:normal;font-size:10pt">30</text>
<path d="M53.882,31.498L53.882,41.498" style="fill:none;stroke:#000000;stroke-width:0.625" />
<path d="M323.91,31.498L323.91,41.498" style="fill:none;stroke:#000000;stroke-width:0.625" />
<path d="M593.94,31.498L593.94,41.498" style="fill:none;stroke:#000000;stroke-width:0.625" />
<path d="M863.98,31.498L863.98,41.498" style="fill:none;stroke:#000000;stroke-width:0.625" />
<path d="M188.9,36.498L188.9,41.498" style="fill:none;stroke:#000000;stroke-width:0.625" />
<path d="M458.93,36.498L458.93,41.498" style="fill:none;stroke:#000000;stroke-width:0.625" />
<path d="M728.96,36.498L728.96,41.498" style="fill:none;stroke:#000000;stroke-width:0.625" />
<path d="M998.99,36.498L998.99,41.498" style="fill:none;stroke:#000000;stroke-width:0.625" />
<path d="M53.882,41.498L1080,41.498" style="fill:none;stroke:#000000;stroke-width:0.625" />
<g transform="rotate(90)">
<text x="306.05" y="14.399" transform="scale(1, -1)"
	style="font-family:Helvetica;font-weight:normal;font-style:normal;font-size:12pt">Latency(millisecond)</text>
</g>
<text x="19.248" y="-251.45" transform="scale(1, -1)"
	style="font-family:Helvetica;font-weight:normal;font-style:normal;font-size:10pt">12</text>
<text x="19.248" y="-461.09" transform="scale(1, -1)"
	style="font-family:Helvetica;font-weight:normal;font-style:normal;font-size:10pt">16</text>
<text x="19.248" y="-670.73" transform="scale(1, -1)"
	style="font-family:Helvetica;font-weight:normal;font-style:normal;font-size:10pt">20</text>
<path d="M36.625,257.32L46.625,257.32" style="fill:none;stroke:#000000;stroke-width:0.625" />
<path d="M36.625,466.97L46.625,466.97" style="fill:none;stroke:#000000;stroke-width:0.625" />
<path d="M36.625,676.61L46.625,676.61" style="fill:none;stroke:#000000;stroke-width:0.625" />
<path d="M41.625,152.5L46.625,152.5" style="fill:none;stroke:#000000;stroke-width:0.625" />
<path d="M41.625,362.14L46.625,362.14" style="fill:none;stroke:#000000;stroke-width:0.625" />
<path d="M41.625,571.79L46.625,571.79" style="fill:none;stroke:#000000;stroke-width:0.625" />
<path d="M46.625,48.06L46.625,700.75" style="fill:none;stroke:#000000;stroke-width:0.625" />
<path d="M53.882,381.91L80.885,407.45L107.89,642.71L134.89,650.39L161.89,640.47L188.9,651.7L215.9,655.55L242.9,654.24L269.91,646.55L296.91,655.84L323.91,649.53L350.92,653.73L377.92,650.21L404.92,662.5L431.93,646.11L458.93,700.75L485.93,643.4L512.93,693.14L539.94,652.12L566.94,650.83L593.94,661.54L620.95,656.76L647.95,654.76L674.95,655.86L701.96,652.34L728.96,661.1L755.96,650.94L782.97,660.54L809.97,655.99L836.97,650.19L863.98,652.91L890.98,677.58L917.98,645.37L944.98,685.13L971.99,655.76L998.99,650.57L1026,631.44L1053,674.55L1080,653.03" style="fill:none;stroke:#F15A60;stroke-width:1.875" />
<path d="M53.882,280.06L80.885,71.582L107.89,81.66L134.89,75.05L161.89,58.62L188.9,70.74L215.9,69.077L242.9,54.234L269.91,48.06L296.91,189.45L323.91,186.81L350.92,108.39L377.92,110.07L404.92,245.52L431.93,78.627L458.93,75.413L485.93,131.5L512.93,184.88L539.94,68.413" style="fill:none;stroke:#7AC36A;stroke-width:1.875;stroke-dasharray:7.5,2.5" />
<path d="M53.882,518.42L80.885,512.69L107.89,592.35L134.89,588.79L161.89,580.23L188.9,589.02L215.9,590.67L242.9,600.99L269.91,597.23L296.91,607.31L323.91,609.54L350.92,581.97L377.92,595.14L404.92,582.34L431.93,564.73L458.93,564.17L485.93,570.44L512.93,561.36L539.94,576.07L566.94,623.87L593.94,558.74L620.95,555.84L647.95,554.94L674.95,561.36L701.96,562.24L728.96,571.96L755.96,569.96L782.97,551.36L809.97,572.03L836.97,569.25L863.98,551.34L890.98,541.99L917.98,573.63L944.98,562.79L971.99,553.11L998.99,568.63L1026,567.73" style="fill:none;stroke:#5A9BD4;stroke-width:1.875;stroke-dasharray:2.5,2.5" />
<path d="M1055,693.4L1080,693.4" style="fill:none;stroke:#F15A60;stroke-width:1.875" />
<text x="918.26" y="-686.35" transform="scale(1, -1)"
	style="font-family:Helvetica;font-weight:normal;font-style:normal;font-size:12pt">etcd v3.1 (Go 1.7.4)</text>
<path d="M1055,678.7L1080,678.7" style="fill:none;stroke:#7AC36A;stroke-width:1.875;stroke-dasharray:7.5,2.5" />
<text x="875.74" y="-671.65" transform="scale(1, -1)"
	style="font-family:Helvetica;font-weight:normal;font-style:normal;font-size:12pt">Zookeeper v3.4.9 (Java 8)</text>
<path d="M1055,664L1080,664" style="fill:none;stroke:#5A9BD4;stroke-width:1.875;stroke-dasharray:2.5,2.5" />
<text x="887.41" y="-656.95" transform="scale(1, -1)"
	style="font-family:Helvetica;font-weight:normal;font-style:normal;font-size:12pt">Consul v0.7.1 (Go 1.7.3)</text>
</g>
</svg>
