<?xml version="1.0"?>
<!-- Generated by SVGo and Plotinum VG -->
<svg width="12in" height="8in"
	xmlns="http://www.w3.org/2000/svg"
	xmlns:xlink="http://www.w3.org/1999/xlink">
<g transform="scale(1, -1) translate(0, -720)">
<path d="M0,0L1080,0L1080,720L0,720Z" style="fill:#FFFFFF" />
<text x="173.28" y="-705.6" transform="scale(1, -1)"
	style="font-family:Helvetica;font-weight:normal;font-style:normal;font-size:12pt">Linearizable-Read 2M keys, 1000-client (etcd v3.1 100-conn), 8-byte key, 256-byte value, Latency(millisecond)</text>
<text x="541.5" y="-4.8486" transform="scale(1, -1)"
	style="font-family:Helvetica;font-weight:normal;font-style:normal;font-size:12pt">Second</text>
<text x="50.406" y="-19.498" transform="scale(1, -1)"
	style="font-family:Helvetica;font-weight:normal;font-style:normal;font-size:10pt">0</text>
<text x="316.96" y="-19.498" transform="scale(1, -1)"
	style="font-family:Helvetica;font-weight:normal;font-style:normal;font-size:10pt">10</text>
<text x="586.99" y="-19.498" transform="scale(1, -1)"
	style="font-family:Helvetica;font-weight:normal;font-style:normal;font-size:10pt">20</text>
<text x="857.02" y="-19.498" transform="scale(1, -1)"
	style="font-family:Helvetica;font-weight:normal;font-style:normal;font-size:10pt">30</text>
<path d="M53.882,31.498L53.882,41.498" style="fill:none;stroke:#000000;stroke-width:0.625" />
<path d="M323.91,31.498L323.91,41.498" style="fill:none;stroke:#000000;stroke-width:0.625" />
<path d="M593.94,31.498L593.94,41.498" style="fill:none;stroke:#000000;stroke-width:0.625" />
<path d="M863.98,31.498L863.98,41.498" style="fill:none;stroke:#000000;stroke-width:0.625" />
<path d="M188.9,36.498L188.9,41.498" style="fill:none;stroke:#000000;stroke-width:0.625" />
<path d="M458.93,36.498L458.93,41.498" style="fill:none;stroke:#000000;stroke-width:0.625" />
<path d="M728.96,36.498L728.96,41.498" style="fill:none;stroke:#000000;stroke-width:0.625" />
<path d="M998.99,36.498L998.99,41.498" style="fill:none;stroke:#000000;stroke-width:0.625" />
<path d="M53.882,41.498L1080,41.498" style="fill:none;stroke:#000000;stroke-width:0.625" />
<g transform="rotate(90)">
<text x="306.05" y="14.399" transform="scale(1, -1)"
	style="font-family:Helvetica;font-weight:normal;font-style:normal;font-size:12pt">Latency(millisecond)</text>
</g>
<text x="19.248" y="-75.447" transform="scale(1, -1)"
	style="font-family:Helvetica;font-weight:normal;font-style:normal;font-size:10pt">10</text>
<text x="19.248" y="-223.15" transform="scale(1, -1)"
	style="font-family:Helvetica;font-weight:normal;font-style:normal;font-size:10pt">20</text>
<text x="19.248" y="-370.85" transform="scale(1, -1)"
	style="font-family:Helvetica;font-weight:normal;font-style:normal;font-size:10pt">30</text>
<text x="19.248" y="-518.56" transform="scale(1, -1)"
	style="font-family:Helvetica;font-weight:normal;font-style:normal;font-size:10pt">40</text>
<text x="19.248" y="-666.26" transform="scale(1, -1)"
	style="font-family:Helvetica;font-weight:normal;font-style:normal;font-size:10pt">50</text>
<path d="M36.625,81.322L46.625,81.322" style="fill:none;stroke:#000000;stroke-width:0.625" />
<path d="M36.625,229.02L46.625,229.02" style="fill:none;stroke:#000000;stroke-width:0.625" />
<path d="M36.625,376.73L46.625,376.73" style="fill:none;stroke:#000000;stroke-width:0.625" />
<path d="M36.625,524.43L46.625,524.43" style="fill:none;stroke:#000000;stroke-width:0.625" />
<path d="M36.625,672.13L46.625,672.13" style="fill:none;stroke:#000000;stroke-width:0.625" />
<path d="M41.625,155.17L46.625,155.17" style="fill:none;stroke:#000000;stroke-width:0.625" />
<path d="M41.625,302.88L46.625,302.88" style="fill:none;stroke:#000000;stroke-width:0.625" />
<path d="M41.625,450.58L46.625,450.58" style="fill:none;stroke:#000000;stroke-width:0.625" />
<path d="M41.625,598.28L46.625,598.28" style="fill:none;stroke:#000000;stroke-width:0.625" />
<path d="M46.625,48.06L46.625,700.75" style="fill:none;stroke:#000000;stroke-width:0.625" />
<path d="M53.882,151.58L80.885,159.23L107.89,213.06L134.89,224.1L161.89,221.52L188.9,223.68L215.9,221.59L242.9,221.93L269.91,223.82L296.91,225.5L323.91,224.28L350.92,221.83L377.92,224.05L404.92,223.19L431.93,221.05L458.93,223.67L485.93,223.47L512.93,227.06L539.94,223L566.94,228.89L593.94,223.58L620.95,224.91L647.95,228.18L674.95,226.24L701.96,222.86L728.96,224.4L755.96,224.02L782.97,220.05L809.97,223.75L836.97,225.93L863.98,225.61L890.98,228.46L917.98,220.62L944.98,224.53L971.99,229.24L998.99,223.54L1026,232.39L1053,228.94L1080,226.17" style="fill:none;stroke:#F15A60;stroke-width:1.875" />
<path d="M53.882,700.75L80.885,63.993L107.89,48.06L134.89,67.711L161.89,57.011L188.9,215.47L215.9,80.836L242.9,114.87L269.91,119.84L296.91,48.856L323.91,79.23L350.92,294.44L377.92,54.105L404.92,56.72L431.93,56.039L458.93,61.673L485.93,59.06L512.93,61.499L539.94,48.811L566.94,56.466L593.94,56.538" style="fill:none;stroke:#7AC36A;stroke-width:1.875;stroke-dasharray:7.5,2.5" />
<path d="M53.882,178.41L80.885,149.98L107.89,209.14L134.89,204.99L161.89,214.99L188.9,211.24L215.9,232.58L242.9,210.2L269.91,204.96L296.91,219.61L323.91,213.27L350.92,210.89L377.92,205L404.92,206.07L431.93,208.98L458.93,206.78L485.93,202.68L512.93,205.64L539.94,206.38L566.94,200.29L593.94,194.23L620.95,196.21L647.95,199.41L674.95,207.1L701.96,196.3L728.96,200.67L755.96,202.52L782.97,201.17L809.97,202.76L836.97,204.77L863.98,200.98L890.98,201.01L917.98,200.88L944.98,196.07L971.99,206.23L998.99,200.13L1026,194.37" style="fill:none;stroke:#5A9BD4;stroke-width:1.875;stroke-dasharray:2.5,2.5" />
<path d="M1055,693.4L1080,693.4" style="fill:none;stroke:#F15A60;stroke-width:1.875" />
<text x="918.26" y="-686.35" transform="scale(1, -1)"
	style="font-family:Helvetica;font-weight:normal;font-style:normal;font-size:12pt">etcd v3.1 (Go 1.7.3)</text>
<path d="M1055,678.7L1080,678.7" style="fill:none;stroke:#7AC36A;stroke-width:1.875;stroke-dasharray:7.5,2.5" />
<text x="875.74" y="-671.65" transform="scale(1, -1)"
	style="font-family:Helvetica;font-weight:normal;font-style:normal;font-size:12pt">Zookeeper v3.4.9 (Java 8)</text>
<path d="M1055,664L1080,664" style="fill:none;stroke:#5A9BD4;stroke-width:1.875;stroke-dasharray:2.5,2.5" />
<text x="887.41" y="-656.95" transform="scale(1, -1)"
	style="font-family:Helvetica;font-weight:normal;font-style:normal;font-size:12pt">Consul v0.7.1 (Go 1.7.3)</text>
</g>
</svg>
