<?xml version="1.0"?>
<!-- Generated by SVGo and Plotinum VG -->
<svg width="12in" height="8in"
	xmlns="http://www.w3.org/2000/svg"
	xmlns:xlink="http://www.w3.org/1999/xlink">
<g transform="scale(1, -1) translate(0, -720)">
<path d="M0,0L1080,0L1080,720L0,720Z" style="fill:#FFFFFF" />
<text x="198.31" y="-705.6" transform="scale(1, -1)"
	style="font-family:Helvetica;font-weight:normal;font-style:normal;font-size:12pt">Linearizable-Read 2M keys, 1000-client (etcd v3.1 100-conn), 8-byte key, 256-byte value, Memory(MB)</text>
<text x="544.98" y="-4.8486" transform="scale(1, -1)"
	style="font-family:Helvetica;font-weight:normal;font-style:normal;font-size:12pt">Second</text>
<text x="57.358" y="-19.498" transform="scale(1, -1)"
	style="font-family:Helvetica;font-weight:normal;font-style:normal;font-size:10pt">0</text>
<text x="329.33" y="-19.498" transform="scale(1, -1)"
	style="font-family:Helvetica;font-weight:normal;font-style:normal;font-size:10pt">10</text>
<text x="604.78" y="-19.498" transform="scale(1, -1)"
	style="font-family:Helvetica;font-weight:normal;font-style:normal;font-size:10pt">20</text>
<text x="880.23" y="-19.498" transform="scale(1, -1)"
	style="font-family:Helvetica;font-weight:normal;font-style:normal;font-size:10pt">30</text>
<path d="M60.834,31.498L60.834,41.498" style="fill:none;stroke:#000000;stroke-width:0.625" />
<path d="M336.28,31.498L336.28,41.498" style="fill:none;stroke:#000000;stroke-width:0.625" />
<path d="M611.73,31.498L611.73,41.498" style="fill:none;stroke:#000000;stroke-width:0.625" />
<path d="M887.18,31.498L887.18,41.498" style="fill:none;stroke:#000000;stroke-width:0.625" />
<path d="M198.56,36.498L198.56,41.498" style="fill:none;stroke:#000000;stroke-width:0.625" />
<path d="M474.01,36.498L474.01,41.498" style="fill:none;stroke:#000000;stroke-width:0.625" />
<path d="M749.46,36.498L749.46,41.498" style="fill:none;stroke:#000000;stroke-width:0.625" />
<path d="M1024.9,36.498L1024.9,41.498" style="fill:none;stroke:#000000;stroke-width:0.625" />
<path d="M60.834,41.498L1080,41.498" style="fill:none;stroke:#000000;stroke-width:0.625" />
<g transform="rotate(90)">
<text x="331.08" y="14.399" transform="scale(1, -1)"
	style="font-family:Helvetica;font-weight:normal;font-style:normal;font-size:12pt">Memory(MB)</text>
</g>
<text x="26.2" y="-168.96" transform="scale(1, -1)"
	style="font-family:Helvetica;font-weight:normal;font-style:normal;font-size:10pt">60</text>
<text x="19.248" y="-342.1" transform="scale(1, -1)"
	style="font-family:Helvetica;font-weight:normal;font-style:normal;font-size:10pt">120</text>
<text x="19.248" y="-515.24" transform="scale(1, -1)"
	style="font-family:Helvetica;font-weight:normal;font-style:normal;font-size:10pt">180</text>
<text x="19.248" y="-688.38" transform="scale(1, -1)"
	style="font-family:Helvetica;font-weight:normal;font-style:normal;font-size:10pt">240</text>
<path d="M43.577,174.83L53.577,174.83" style="fill:none;stroke:#000000;stroke-width:0.625" />
<path d="M43.577,347.97L53.577,347.97" style="fill:none;stroke:#000000;stroke-width:0.625" />
<path d="M43.577,521.12L53.577,521.12" style="fill:none;stroke:#000000;stroke-width:0.625" />
<path d="M43.577,694.26L53.577,694.26" style="fill:none;stroke:#000000;stroke-width:0.625" />
<path d="M48.577,59.401L53.577,59.401" style="fill:none;stroke:#000000;stroke-width:0.625" />
<path d="M48.577,117.12L53.577,117.12" style="fill:none;stroke:#000000;stroke-width:0.625" />
<path d="M48.577,232.54L53.577,232.54" style="fill:none;stroke:#000000;stroke-width:0.625" />
<path d="M48.577,290.26L53.577,290.26" style="fill:none;stroke:#000000;stroke-width:0.625" />
<path d="M48.577,405.69L53.577,405.69" style="fill:none;stroke:#000000;stroke-width:0.625" />
<path d="M48.577,463.4L53.577,463.4" style="fill:none;stroke:#000000;stroke-width:0.625" />
<path d="M48.577,578.83L53.577,578.83" style="fill:none;stroke:#000000;stroke-width:0.625" />
<path d="M48.577,636.54L53.577,636.54" style="fill:none;stroke:#000000;stroke-width:0.625" />
<path d="M53.577,48.06L53.577,700.75" style="fill:none;stroke:#000000;stroke-width:0.625" />
<path d="M60.834,58.997L88.379,138.15L115.92,147.93L143.47,153.79L171.01,158.67L198.56,164.04L226.1,170.1L253.65,176.24L281.19,183.43L308.74,188.62L336.28,196.13L363.83,200.14L391.37,212.23L418.92,214.6L446.46,219.15L474.01,223.11L501.55,228.79L529.1,235.31L556.64,239.44L584.19,245.73L611.73,248.7L639.28,257.56L666.82,260.94L694.37,268.18L721.91,285.32L749.46,290.69L777,291.56L804.55,292.42L832.09,297.88L859.64,303.5L887.18,307.66L914.73,312.71L942.27,317.53L969.82,321.94L997.36,328.15L1024.9,333.17L1052.5,340.82L1080,347.54" style="fill:none;stroke:#F15A60;stroke-width:1.875" />
<path d="M60.834,372.53L88.379,473.82L115.92,482.13L143.47,601.63L171.01,621.83L198.56,700.75L226.1,685.8L253.65,681.01L281.19,669.73L308.74,662.83L336.28,657.41L363.83,654.44L391.37,648.17L418.92,646.39L446.46,640.93L474.01,639.46L501.55,635.51L529.1,635.51" style="fill:none;stroke:#7AC36A;stroke-width:1.875;stroke-dasharray:7.5,2.5" />
<path d="M60.834,48.06L88.379,122.86L115.92,128.2L143.47,128.83L171.01,129.06L198.56,129.55L226.1,129.55L253.65,129.55L281.19,129.55L308.74,129.55L336.28,129.55L363.83,129.55L391.37,131.43L418.92,131.43L446.46,131.66L474.01,131.86L501.55,131.86L529.1,131.86L556.64,132.61L584.19,132.61L611.73,132.61L639.28,132.61L666.82,132.61L694.37,132.61L721.91,133.13L749.46,133.36L777,133.36L804.55,133.59L832.09,133.59L859.64,133.59L887.18,133.59L914.73,133.59L942.27,133.59L969.82,133.59L997.36,133.59L1024.9,133.59" style="fill:none;stroke:#5A9BD4;stroke-width:1.875;stroke-dasharray:2.5,2.5" />
<path d="M1055,693.4L1080,693.4" style="fill:none;stroke:#F15A60;stroke-width:1.875" />
<text x="918.26" y="-686.35" transform="scale(1, -1)"
	style="font-family:Helvetica;font-weight:normal;font-style:normal;font-size:12pt">etcd v3.1 (Go 1.7.4)</text>
<path d="M1055,678.7L1080,678.7" style="fill:none;stroke:#7AC36A;stroke-width:1.875;stroke-dasharray:7.5,2.5" />
<text x="875.74" y="-671.65" transform="scale(1, -1)"
	style="font-family:Helvetica;font-weight:normal;font-style:normal;font-size:12pt">Zookeeper v3.4.9 (Java 8)</text>
<path d="M1055,664L1080,664" style="fill:none;stroke:#5A9BD4;stroke-width:1.875;stroke-dasharray:2.5,2.5" />
<text x="887.41" y="-656.95" transform="scale(1, -1)"
	style="font-family:Helvetica;font-weight:normal;font-style:normal;font-size:12pt">Consul v0.7.3 (Go 1.7.3)</text>
</g>
</svg>
