<?xml version="1.0"?>
<!-- Generated by SVGo and Plotinum VG -->
<svg width="12in" height="8in"
	xmlns="http://www.w3.org/2000/svg"
	xmlns:xlink="http://www.w3.org/1999/xlink">
<g transform="scale(1, -1) translate(0, -720)">
<path d="M0,0L1080,0L1080,720L0,720Z" style="fill:#FFFFFF" />
<text x="225.81" y="-705.6" transform="scale(1, -1)"
	style="font-family:Helvetica;font-weight:normal;font-style:normal;font-size:12pt">Linearizable-Read 2M keys, 1000-client (etcd v3.1 100-conn), 8-byte key, 256-byte value, CPU</text>
<text x="544.98" y="-4.8486" transform="scale(1, -1)"
	style="font-family:Helvetica;font-weight:normal;font-style:normal;font-size:12pt">Second</text>
<text x="57.358" y="-19.498" transform="scale(1, -1)"
	style="font-family:Helvetica;font-weight:normal;font-style:normal;font-size:10pt">0</text>
<text x="329.33" y="-19.498" transform="scale(1, -1)"
	style="font-family:Helvetica;font-weight:normal;font-style:normal;font-size:10pt">10</text>
<text x="604.78" y="-19.498" transform="scale(1, -1)"
	style="font-family:Helvetica;font-weight:normal;font-style:normal;font-size:10pt">20</text>
<text x="880.23" y="-19.498" transform="scale(1, -1)"
	style="font-family:Helvetica;font-weight:normal;font-style:normal;font-size:10pt">30</text>
<path d="M60.834,31.498L60.834,41.498" style="fill:none;stroke:#000000;stroke-width:0.625" />
<path d="M336.28,31.498L336.28,41.498" style="fill:none;stroke:#000000;stroke-width:0.625" />
<path d="M611.73,31.498L611.73,41.498" style="fill:none;stroke:#000000;stroke-width:0.625" />
<path d="M887.18,31.498L887.18,41.498" style="fill:none;stroke:#000000;stroke-width:0.625" />
<path d="M198.56,36.498L198.56,41.498" style="fill:none;stroke:#000000;stroke-width:0.625" />
<path d="M474.01,36.498L474.01,41.498" style="fill:none;stroke:#000000;stroke-width:0.625" />
<path d="M749.46,36.498L749.46,41.498" style="fill:none;stroke:#000000;stroke-width:0.625" />
<path d="M1024.9,36.498L1024.9,41.498" style="fill:none;stroke:#000000;stroke-width:0.625" />
<path d="M60.834,41.498L1080,41.498" style="fill:none;stroke:#000000;stroke-width:0.625" />
<g transform="rotate(90)">
<text x="358.57" y="14.399" transform="scale(1, -1)"
	style="font-family:Helvetica;font-weight:normal;font-style:normal;font-size:12pt">CPU</text>
</g>
<text x="19.248" y="-197.68" transform="scale(1, -1)"
	style="font-family:Helvetica;font-weight:normal;font-style:normal;font-size:10pt">100</text>
<text x="19.248" y="-354.68" transform="scale(1, -1)"
	style="font-family:Helvetica;font-weight:normal;font-style:normal;font-size:10pt">200</text>
<text x="19.248" y="-511.69" transform="scale(1, -1)"
	style="font-family:Helvetica;font-weight:normal;font-style:normal;font-size:10pt">300</text>
<text x="19.248" y="-668.69" transform="scale(1, -1)"
	style="font-family:Helvetica;font-weight:normal;font-style:normal;font-size:10pt">400</text>
<path d="M43.577,203.56L53.577,203.56" style="fill:none;stroke:#000000;stroke-width:0.625" />
<path d="M43.577,360.56L53.577,360.56" style="fill:none;stroke:#000000;stroke-width:0.625" />
<path d="M43.577,517.56L53.577,517.56" style="fill:none;stroke:#000000;stroke-width:0.625" />
<path d="M43.577,674.56L53.577,674.56" style="fill:none;stroke:#000000;stroke-width:0.625" />
<path d="M48.577,125.05L53.577,125.05" style="fill:none;stroke:#000000;stroke-width:0.625" />
<path d="M48.577,282.06L53.577,282.06" style="fill:none;stroke:#000000;stroke-width:0.625" />
<path d="M48.577,439.06L53.577,439.06" style="fill:none;stroke:#000000;stroke-width:0.625" />
<path d="M48.577,596.06L53.577,596.06" style="fill:none;stroke:#000000;stroke-width:0.625" />
<path d="M53.577,48.06L53.577,700.75" style="fill:none;stroke:#000000;stroke-width:0.625" />
<path d="M60.834,49.803L88.379,121.79L115.92,176.96L143.47,219.96L171.01,254.77L198.56,283.63L226.1,308.01L253.65,329.17L281.19,347.53L308.74,363.64L336.28,377.95L363.83,390.59L391.37,402.13L418.92,412.29L446.46,421.46L474.01,429.86L501.55,437.46L529.1,444.55L556.64,450.68L584.19,456.69L611.73,462.01L639.28,467.29L666.82,472.03L694.37,476.41L721.91,480.51L749.46,484.56L777,488.33L804.55,491.91L832.09,495.08L859.64,498.19L887.18,501.11L914.73,503.71L942.27,506.37L969.82,508.88L997.36,511.12L1024.9,513.38L1052.5,515.41L1080,517.33" style="fill:none;stroke:#F15A60;stroke-width:1.875" />
<path d="M60.834,89.996L88.379,139.92L115.92,170.48L143.47,193.98L171.01,213.23L198.56,211.28L226.1,222.13L253.65,228.14L281.19,237.55L308.74,248.32L336.28,256.98L363.83,253.09L391.37,263.72L418.92,270.53L446.46,280.53L474.01,289.45L501.55,298.39L529.1,306.64L556.64,314.45L584.19,321.21" style="fill:none;stroke:#7AC36A;stroke-width:1.875;stroke-dasharray:7.5,2.5" />
<path d="M60.834,48.06L88.379,140.24L115.92,215.77L143.47,275.81L171.01,324.23L198.56,365.71L226.1,393.83L253.65,423.7L281.19,450.88L308.74,474.04L336.28,494.78L363.83,513.57L391.37,530.25L418.92,545.59L446.46,559.31L474.01,572.32L501.55,583.42L529.1,594.49L556.64,603.02L584.19,612.28L611.73,621.17L639.28,629.8L666.82,637.43L694.37,643.73L721.91,650.23L749.46,656.41L777,662.07L804.55,667.53L832.09,672.1L859.64,676.73L887.18,681.53L914.73,685.82L942.27,689.93L969.82,693.86L997.36,697.42L1024.9,700.75" style="fill:none;stroke:#5A9BD4;stroke-width:1.875;stroke-dasharray:2.5,2.5" />
<path d="M1055,693.4L1080,693.4" style="fill:none;stroke:#F15A60;stroke-width:1.875" />
<text x="918.26" y="-686.35" transform="scale(1, -1)"
	style="font-family:Helvetica;font-weight:normal;font-style:normal;font-size:12pt">etcd v3.1 (Go 1.7.3)</text>
<path d="M1055,678.7L1080,678.7" style="fill:none;stroke:#7AC36A;stroke-width:1.875;stroke-dasharray:7.5,2.5" />
<text x="875.74" y="-671.65" transform="scale(1, -1)"
	style="font-family:Helvetica;font-weight:normal;font-style:normal;font-size:12pt">Zookeeper v3.4.9 (Java 8)</text>
<path d="M1055,664L1080,664" style="fill:none;stroke:#5A9BD4;stroke-width:1.875;stroke-dasharray:2.5,2.5" />
<text x="887.41" y="-656.95" transform="scale(1, -1)"
	style="font-family:Helvetica;font-weight:normal;font-style:normal;font-size:12pt">Consul v0.7.1 (Go 1.7.3)</text>
</g>
</svg>
