<?xml version="1.0"?>
<!-- Generated by SVGo and Plotinum VG -->
<svg width="12in" height="8in"
	xmlns="http://www.w3.org/2000/svg"
	xmlns:xlink="http://www.w3.org/1999/xlink">
<g transform="scale(1, -1) translate(0, -720)">
<path d="M0,0L1080,0L1080,720L0,720Z" style="fill:#FFFFFF" />
<text x="174.96" y="-705.6" transform="scale(1, -1)"
	style="font-family:Helvetica;font-weight:normal;font-style:normal;font-size:12pt">Serializable-Read 2M keys, 1000-client (etcd v3.1 100-conn), 8-byte key, 256-byte value, Latency(millisecond)</text>
<text x="541.5" y="-4.8486" transform="scale(1, -1)"
	style="font-family:Helvetica;font-weight:normal;font-style:normal;font-size:12pt">Second</text>
<text x="50.406" y="-19.498" transform="scale(1, -1)"
	style="font-family:Helvetica;font-weight:normal;font-style:normal;font-size:10pt">0</text>
<text x="343.58" y="-19.498" transform="scale(1, -1)"
	style="font-family:Helvetica;font-weight:normal;font-style:normal;font-size:10pt">8</text>
<text x="633.28" y="-19.498" transform="scale(1, -1)"
	style="font-family:Helvetica;font-weight:normal;font-style:normal;font-size:10pt">16</text>
<text x="926.46" y="-19.498" transform="scale(1, -1)"
	style="font-family:Helvetica;font-weight:normal;font-style:normal;font-size:10pt">24</text>
<path d="M53.882,31.498L53.882,41.498" style="fill:none;stroke:#000000;stroke-width:0.625" />
<path d="M347.06,31.498L347.06,41.498" style="fill:none;stroke:#000000;stroke-width:0.625" />
<path d="M640.24,31.498L640.24,41.498" style="fill:none;stroke:#000000;stroke-width:0.625" />
<path d="M933.41,31.498L933.41,41.498" style="fill:none;stroke:#000000;stroke-width:0.625" />
<path d="M200.47,36.498L200.47,41.498" style="fill:none;stroke:#000000;stroke-width:0.625" />
<path d="M493.65,36.498L493.65,41.498" style="fill:none;stroke:#000000;stroke-width:0.625" />
<path d="M786.82,36.498L786.82,41.498" style="fill:none;stroke:#000000;stroke-width:0.625" />
<path d="M1080,36.498L1080,41.498" style="fill:none;stroke:#000000;stroke-width:0.625" />
<path d="M53.882,41.498L1080,41.498" style="fill:none;stroke:#000000;stroke-width:0.625" />
<g transform="rotate(90)">
<text x="306.05" y="14.399" transform="scale(1, -1)"
	style="font-family:Helvetica;font-weight:normal;font-style:normal;font-size:12pt">Latency(millisecond)</text>
</g>
<text x="26.2" y="-114.89" transform="scale(1, -1)"
	style="font-family:Helvetica;font-weight:normal;font-style:normal;font-size:10pt">4</text>
<text x="26.2" y="-329.35" transform="scale(1, -1)"
	style="font-family:Helvetica;font-weight:normal;font-style:normal;font-size:10pt">8</text>
<text x="19.248" y="-543.81" transform="scale(1, -1)"
	style="font-family:Helvetica;font-weight:normal;font-style:normal;font-size:10pt">12</text>
<path d="M36.625,120.77L46.625,120.77" style="fill:none;stroke:#000000;stroke-width:0.625" />
<path d="M36.625,335.23L46.625,335.23" style="fill:none;stroke:#000000;stroke-width:0.625" />
<path d="M36.625,549.68L46.625,549.68" style="fill:none;stroke:#000000;stroke-width:0.625" />
<path d="M41.625,228L46.625,228" style="fill:none;stroke:#000000;stroke-width:0.625" />
<path d="M41.625,442.45L46.625,442.45" style="fill:none;stroke:#000000;stroke-width:0.625" />
<path d="M41.625,656.91L46.625,656.91" style="fill:none;stroke:#000000;stroke-width:0.625" />
<path d="M46.625,48.06L46.625,700.75" style="fill:none;stroke:#000000;stroke-width:0.625" />
<path d="M53.882,465.52L90.529,536.04L127.18,667.68L163.82,696.21L200.47,690.05L237.12,689.94L273.76,690.26L310.41,687.92L347.06,700.75L383.71,696.08L420.35,695.12L457,687.82L493.65,694.45L530.29,695.23L566.94,691.27L603.59,687.4L640.24,690.91L676.88,691.94L713.53,695.71L750.18,695.26L786.82,690.35L823.47,694.04L860.12,694.2L896.76,693.6L933.41,689.65L970.06,696.42L1006.7,692.4L1043.4,695.13L1080,693.25" style="fill:none;stroke:#F15A60;stroke-width:1.875" />
<path d="M53.882,555.39L90.529,110.81L127.18,105.1L163.82,59.232L200.47,55.224L237.12,53.578L273.76,57.843L310.41,48.06L347.06,90.328L383.71,277.26L420.35,95.831" style="fill:none;stroke:#7AC36A;stroke-width:1.875;stroke-dasharray:7.5,2.5" />
<path d="M53.882,145.45L90.529,196.84L127.18,181.17L163.82,185.67L200.47,180.28L237.12,177.81L273.76,178.76L310.41,165.3L347.06,174.15L383.71,163.25L420.35,160.76L457,156.02L493.65,163.21L530.29,158.05" style="fill:none;stroke:#5A9BD4;stroke-width:1.875;stroke-dasharray:2.5,2.5" />
<path d="M1055,693.4L1080,693.4" style="fill:none;stroke:#F15A60;stroke-width:1.875" />
<text x="918.26" y="-686.35" transform="scale(1, -1)"
	style="font-family:Helvetica;font-weight:normal;font-style:normal;font-size:12pt">etcd v3.1 (Go 1.7.3)</text>
<path d="M1055,678.7L1080,678.7" style="fill:none;stroke:#7AC36A;stroke-width:1.875;stroke-dasharray:7.5,2.5" />
<text x="875.74" y="-671.65" transform="scale(1, -1)"
	style="font-family:Helvetica;font-weight:normal;font-style:normal;font-size:12pt">Zookeeper v3.4.9 (Java 8)</text>
<path d="M1055,664L1080,664" style="fill:none;stroke:#5A9BD4;stroke-width:1.875;stroke-dasharray:2.5,2.5" />
<text x="887.41" y="-656.95" transform="scale(1, -1)"
	style="font-family:Helvetica;font-weight:normal;font-style:normal;font-size:12pt">Consul v0.7.1 (Go 1.7.3)</text>
</g>
</svg>
