<?xml version="1.0"?>
<!-- Generated by SVGo and Plotinum VG -->
<svg width="12in" height="8in"
	xmlns="http://www.w3.org/2000/svg"
	xmlns:xlink="http://www.w3.org/1999/xlink">
<g transform="scale(1, -1) translate(0, -720)">
<path d="M0,0L1080,0L1080,720L0,720Z" style="fill:#FFFFFF" />
<text x="227.48" y="-705.6" transform="scale(1, -1)"
	style="font-family:Helvetica;font-weight:normal;font-style:normal;font-size:12pt">Serializable-Read 2M keys, 1000-client (etcd v3.1 100-conn), 8-byte key, 256-byte value, CPU</text>
<text x="544.98" y="-4.8486" transform="scale(1, -1)"
	style="font-family:Helvetica;font-weight:normal;font-style:normal;font-size:12pt">Second</text>
<text x="57.358" y="-19.498" transform="scale(1, -1)"
	style="font-family:Helvetica;font-weight:normal;font-style:normal;font-size:10pt">0</text>
<text x="359.33" y="-19.498" transform="scale(1, -1)"
	style="font-family:Helvetica;font-weight:normal;font-style:normal;font-size:10pt">8</text>
<text x="657.83" y="-19.498" transform="scale(1, -1)"
	style="font-family:Helvetica;font-weight:normal;font-style:normal;font-size:10pt">16</text>
<text x="959.81" y="-19.498" transform="scale(1, -1)"
	style="font-family:Helvetica;font-weight:normal;font-style:normal;font-size:10pt">24</text>
<path d="M60.834,31.498L60.834,41.498" style="fill:none;stroke:#000000;stroke-width:0.625" />
<path d="M362.81,31.498L362.81,41.498" style="fill:none;stroke:#000000;stroke-width:0.625" />
<path d="M664.78,31.498L664.78,41.498" style="fill:none;stroke:#000000;stroke-width:0.625" />
<path d="M966.76,31.498L966.76,41.498" style="fill:none;stroke:#000000;stroke-width:0.625" />
<path d="M211.82,36.498L211.82,41.498" style="fill:none;stroke:#000000;stroke-width:0.625" />
<path d="M513.8,36.498L513.8,41.498" style="fill:none;stroke:#000000;stroke-width:0.625" />
<path d="M815.77,36.498L815.77,41.498" style="fill:none;stroke:#000000;stroke-width:0.625" />
<path d="M60.834,41.498L1080,41.498" style="fill:none;stroke:#000000;stroke-width:0.625" />
<g transform="rotate(90)">
<text x="358.57" y="14.399" transform="scale(1, -1)"
	style="font-family:Helvetica;font-weight:normal;font-style:normal;font-size:12pt">CPU</text>
</g>
<text x="19.248" y="-221.58" transform="scale(1, -1)"
	style="font-family:Helvetica;font-weight:normal;font-style:normal;font-size:10pt">100</text>
<text x="19.248" y="-402.32" transform="scale(1, -1)"
	style="font-family:Helvetica;font-weight:normal;font-style:normal;font-size:10pt">200</text>
<text x="19.248" y="-583.06" transform="scale(1, -1)"
	style="font-family:Helvetica;font-weight:normal;font-style:normal;font-size:10pt">300</text>
<path d="M43.577,227.46L53.577,227.46" style="fill:none;stroke:#000000;stroke-width:0.625" />
<path d="M43.577,408.19L53.577,408.19" style="fill:none;stroke:#000000;stroke-width:0.625" />
<path d="M43.577,588.93L53.577,588.93" style="fill:none;stroke:#000000;stroke-width:0.625" />
<path d="M48.577,137.09L53.577,137.09" style="fill:none;stroke:#000000;stroke-width:0.625" />
<path d="M48.577,317.83L53.577,317.83" style="fill:none;stroke:#000000;stroke-width:0.625" />
<path d="M48.577,498.56L53.577,498.56" style="fill:none;stroke:#000000;stroke-width:0.625" />
<path d="M48.577,679.3L53.577,679.3" style="fill:none;stroke:#000000;stroke-width:0.625" />
<path d="M53.577,48.06L53.577,700.75" style="fill:none;stroke:#000000;stroke-width:0.625" />
<path d="M60.834,50.32L98.581,137.11L136.33,202.23L174.07,253.12L211.82,294.64L249.57,328.78L287.32,358.17L325.06,383.34L362.81,405.25L400.56,424.24L438.3,441.03L476.05,455.85L513.8,469.3L551.54,481.1L589.29,492.04L627.04,501.98L664.78,511.3L702.53,519.33L740.28,527.21L778.02,534.17L815.77,540.76L853.52,546.78L891.27,552.69L929.01,558.17L966.76,563.19L1004.5,567.86L1042.3,572.27L1080,576.59" style="fill:none;stroke:#F15A60;stroke-width:1.875" />
<path d="M60.834,98.504L98.581,145.44L136.33,172.03L174.07,194.47L211.82,210.83L249.57,221.87L287.32,233.87L325.06,244.36L362.81,247.85L400.56,246.02" style="fill:none;stroke:#7AC36A;stroke-width:1.875;stroke-dasharray:7.5,2.5" />
<path d="M60.834,48.06L98.581,161.74L136.33,272.97L174.07,348.15L211.82,412.86L249.57,467.93L287.32,515.03L325.06,557.21L362.81,593.39L400.56,626.04L438.3,653.98L476.05,678.86L513.8,700.75" style="fill:none;stroke:#5A9BD4;stroke-width:1.875;stroke-dasharray:2.5,2.5" />
<path d="M1055,693.4L1080,693.4" style="fill:none;stroke:#F15A60;stroke-width:1.875" />
<text x="918.26" y="-686.35" transform="scale(1, -1)"
	style="font-family:Helvetica;font-weight:normal;font-style:normal;font-size:12pt">etcd v3.1 (Go 1.7.3)</text>
<path d="M1055,678.7L1080,678.7" style="fill:none;stroke:#7AC36A;stroke-width:1.875;stroke-dasharray:7.5,2.5" />
<text x="875.74" y="-671.65" transform="scale(1, -1)"
	style="font-family:Helvetica;font-weight:normal;font-style:normal;font-size:12pt">Zookeeper v3.4.9 (Java 8)</text>
<path d="M1055,664L1080,664" style="fill:none;stroke:#5A9BD4;stroke-width:1.875;stroke-dasharray:2.5,2.5" />
<text x="887.41" y="-656.95" transform="scale(1, -1)"
	style="font-family:Helvetica;font-weight:normal;font-style:normal;font-size:12pt">Consul v0.7.1 (Go 1.7.3)</text>
</g>
</svg>
