<?xml version="1.0"?>
<!-- Generated by SVGo and Plotinum VG -->
<svg width="12in" height="8in"
	xmlns="http://www.w3.org/2000/svg"
	xmlns:xlink="http://www.w3.org/1999/xlink">
<g transform="scale(1, -1) translate(0, -720)">
<path d="M0,0L1080,0L1080,720L0,720Z" style="fill:#FFFFFF" />
<text x="225.81" y="-705.6" transform="scale(1, -1)"
	style="font-family:Helvetica;font-weight:normal;font-style:normal;font-size:12pt">Linearizable-Read 2M keys, 1000-client (etcd v3.1 100-conn), 8-byte key, 256-byte value, CPU</text>
<text x="544.98" y="-4.8486" transform="scale(1, -1)"
	style="font-family:Helvetica;font-weight:normal;font-style:normal;font-size:12pt">Second</text>
<text x="57.358" y="-19.498" transform="scale(1, -1)"
	style="font-family:Helvetica;font-weight:normal;font-style:normal;font-size:10pt">0</text>
<text x="329.33" y="-19.498" transform="scale(1, -1)"
	style="font-family:Helvetica;font-weight:normal;font-style:normal;font-size:10pt">10</text>
<text x="604.78" y="-19.498" transform="scale(1, -1)"
	style="font-family:Helvetica;font-weight:normal;font-style:normal;font-size:10pt">20</text>
<text x="880.23" y="-19.498" transform="scale(1, -1)"
	style="font-family:Helvetica;font-weight:normal;font-style:normal;font-size:10pt">30</text>
<path d="M60.834,31.498L60.834,41.498" style="fill:none;stroke:#000000;stroke-width:0.625" />
<path d="M336.28,31.498L336.28,41.498" style="fill:none;stroke:#000000;stroke-width:0.625" />
<path d="M611.73,31.498L611.73,41.498" style="fill:none;stroke:#000000;stroke-width:0.625" />
<path d="M887.18,31.498L887.18,41.498" style="fill:none;stroke:#000000;stroke-width:0.625" />
<path d="M198.56,36.498L198.56,41.498" style="fill:none;stroke:#000000;stroke-width:0.625" />
<path d="M474.01,36.498L474.01,41.498" style="fill:none;stroke:#000000;stroke-width:0.625" />
<path d="M749.46,36.498L749.46,41.498" style="fill:none;stroke:#000000;stroke-width:0.625" />
<path d="M1024.9,36.498L1024.9,41.498" style="fill:none;stroke:#000000;stroke-width:0.625" />
<path d="M60.834,41.498L1080,41.498" style="fill:none;stroke:#000000;stroke-width:0.625" />
<g transform="rotate(90)">
<text x="358.57" y="14.399" transform="scale(1, -1)"
	style="font-family:Helvetica;font-weight:normal;font-style:normal;font-size:12pt">CPU</text>
</g>
<text x="19.248" y="-197.49" transform="scale(1, -1)"
	style="font-family:Helvetica;font-weight:normal;font-style:normal;font-size:10pt">100</text>
<text x="19.248" y="-354.55" transform="scale(1, -1)"
	style="font-family:Helvetica;font-weight:normal;font-style:normal;font-size:10pt">200</text>
<text x="19.248" y="-511.6" transform="scale(1, -1)"
	style="font-family:Helvetica;font-weight:normal;font-style:normal;font-size:10pt">300</text>
<text x="19.248" y="-668.65" transform="scale(1, -1)"
	style="font-family:Helvetica;font-weight:normal;font-style:normal;font-size:10pt">400</text>
<path d="M43.577,203.37L53.577,203.37" style="fill:none;stroke:#000000;stroke-width:0.625" />
<path d="M43.577,360.42L53.577,360.42" style="fill:none;stroke:#000000;stroke-width:0.625" />
<path d="M43.577,517.47L53.577,517.47" style="fill:none;stroke:#000000;stroke-width:0.625" />
<path d="M43.577,674.52L53.577,674.52" style="fill:none;stroke:#000000;stroke-width:0.625" />
<path d="M48.577,124.84L53.577,124.84" style="fill:none;stroke:#000000;stroke-width:0.625" />
<path d="M48.577,281.89L53.577,281.89" style="fill:none;stroke:#000000;stroke-width:0.625" />
<path d="M48.577,438.95L53.577,438.95" style="fill:none;stroke:#000000;stroke-width:0.625" />
<path d="M48.577,596L53.577,596" style="fill:none;stroke:#000000;stroke-width:0.625" />
<path d="M53.577,48.06L53.577,700.75" style="fill:none;stroke:#000000;stroke-width:0.625" />
<path d="M60.834,49.647L88.379,121.37L115.92,176.34L143.47,219.39L171.01,254.44L198.56,283.5L226.1,308.01L253.65,329.51L281.19,347.87L308.74,363.99L336.28,378.25L363.83,390.94L391.37,402.34L418.92,412.45L446.46,421.61L474.01,429.99L501.55,437.28L529.1,444.08L556.64,450.58L584.19,456.6L611.73,462.1L639.28,467.22L666.82,472.01L694.37,476.54L721.91,480.75L749.46,484.62L777,488.32L804.55,491.83L832.09,495.01L859.64,498.17L887.18,501.19L914.73,503.92L942.27,506.49L969.82,509.04L997.36,511.17L1024.9,513.48L1052.5,515.84L1080,517.87" style="fill:none;stroke:#F15A60;stroke-width:1.875" />
<path d="M60.834,89.271L88.379,138.1L115.92,165.64L143.47,190.71L171.01,213.04L198.56,232.66L226.1,249.65L253.65,264.26L281.19,277.26L308.74,288.55L336.28,293.22L363.83,300.55L391.37,306.96L418.92,309.65L446.46,315.49L474.01,322.26L501.55,328.9L529.1,332.03" style="fill:none;stroke:#7AC36A;stroke-width:1.875;stroke-dasharray:7.5,2.5" />
<path d="M60.834,48.06L88.379,134.55L115.92,205.27L143.47,265.17L171.01,316.27L198.56,358.94L226.1,395.63L253.65,426.54L281.19,452.5L308.74,475.34L336.28,494.95L363.83,514.03L391.37,530.34L418.92,545.46L446.46,559.63L474.01,572.61L501.55,583.98L529.1,594.46L556.64,604.1L584.19,612.93L611.73,619.92L639.28,628.07L666.82,635.7L694.37,642.71L721.91,649.52L749.46,655.18L777,660.86L804.55,666.25L832.09,671.51L859.64,676.3L887.18,681.06L914.73,685.86L942.27,689.59L969.82,693.39L997.36,697.19L1024.9,700.75" style="fill:none;stroke:#5A9BD4;stroke-width:1.875;stroke-dasharray:2.5,2.5" />
<path d="M1055,693.4L1080,693.4" style="fill:none;stroke:#F15A60;stroke-width:1.875" />
<text x="918.26" y="-686.35" transform="scale(1, -1)"
	style="font-family:Helvetica;font-weight:normal;font-style:normal;font-size:12pt">etcd v3.1 (Go 1.7.4)</text>
<path d="M1055,678.7L1080,678.7" style="fill:none;stroke:#7AC36A;stroke-width:1.875;stroke-dasharray:7.5,2.5" />
<text x="875.74" y="-671.65" transform="scale(1, -1)"
	style="font-family:Helvetica;font-weight:normal;font-style:normal;font-size:12pt">Zookeeper v3.4.9 (Java 8)</text>
<path d="M1055,664L1080,664" style="fill:none;stroke:#5A9BD4;stroke-width:1.875;stroke-dasharray:2.5,2.5" />
<text x="887.41" y="-656.95" transform="scale(1, -1)"
	style="font-family:Helvetica;font-weight:normal;font-style:normal;font-size:12pt">Consul v0.7.1 (Go 1.7.3)</text>
</g>
</svg>
