<?xml version="1.0"?>
<!-- Generated by SVGo and Plotinum VG -->
<svg width="12in" height="8in"
	xmlns="http://www.w3.org/2000/svg"
	xmlns:xlink="http://www.w3.org/1999/xlink">
<g transform="scale(1, -1) translate(0, -720)">
<path d="M0,0L1080,0L1080,720L0,720Z" style="fill:#FFFFFF" />
<text x="241.82" y="-705.6" transform="scale(1, -1)"
	style="font-family:Helvetica;font-weight:normal;font-style:normal;font-size:12pt">Write 2M keys, 1000-client (etcd v3.1 100-conn), 8-byte key, 256-byte value, Memory(MB)</text>
<text x="548.46" y="-4.8486" transform="scale(1, -1)"
	style="font-family:Helvetica;font-weight:normal;font-style:normal;font-size:12pt">Second</text>
<text x="64.31" y="-19.498" transform="scale(1, -1)"
	style="font-family:Helvetica;font-weight:normal;font-style:normal;font-size:10pt">0</text>
<text x="273.18" y="-19.498" transform="scale(1, -1)"
	style="font-family:Helvetica;font-weight:normal;font-style:normal;font-size:10pt">100</text>
<text x="489.01" y="-19.498" transform="scale(1, -1)"
	style="font-family:Helvetica;font-weight:normal;font-style:normal;font-size:10pt">200</text>
<text x="704.83" y="-19.498" transform="scale(1, -1)"
	style="font-family:Helvetica;font-weight:normal;font-style:normal;font-size:10pt">300</text>
<text x="920.65" y="-19.498" transform="scale(1, -1)"
	style="font-family:Helvetica;font-weight:normal;font-style:normal;font-size:10pt">400</text>
<path d="M67.786,31.498L67.786,41.498" style="fill:none;stroke:#000000;stroke-width:0.625" />
<path d="M283.61,31.498L283.61,41.498" style="fill:none;stroke:#000000;stroke-width:0.625" />
<path d="M499.43,31.498L499.43,41.498" style="fill:none;stroke:#000000;stroke-width:0.625" />
<path d="M715.26,31.498L715.26,41.498" style="fill:none;stroke:#000000;stroke-width:0.625" />
<path d="M931.08,31.498L931.08,41.498" style="fill:none;stroke:#000000;stroke-width:0.625" />
<path d="M175.7,36.498L175.7,41.498" style="fill:none;stroke:#000000;stroke-width:0.625" />
<path d="M391.52,36.498L391.52,41.498" style="fill:none;stroke:#000000;stroke-width:0.625" />
<path d="M607.35,36.498L607.35,41.498" style="fill:none;stroke:#000000;stroke-width:0.625" />
<path d="M823.17,36.498L823.17,41.498" style="fill:none;stroke:#000000;stroke-width:0.625" />
<path d="M1039,36.498L1039,41.498" style="fill:none;stroke:#000000;stroke-width:0.625" />
<path d="M67.786,41.498L1080,41.498" style="fill:none;stroke:#000000;stroke-width:0.625" />
<g transform="rotate(90)">
<text x="331.08" y="14.399" transform="scale(1, -1)"
	style="font-family:Helvetica;font-weight:normal;font-style:normal;font-size:12pt">Memory(MB)</text>
</g>
<text x="19.248" y="-176.27" transform="scale(1, -1)"
	style="font-family:Helvetica;font-weight:normal;font-style:normal;font-size:10pt">1000</text>
<text x="19.248" y="-312.57" transform="scale(1, -1)"
	style="font-family:Helvetica;font-weight:normal;font-style:normal;font-size:10pt">2000</text>
<text x="19.248" y="-448.88" transform="scale(1, -1)"
	style="font-family:Helvetica;font-weight:normal;font-style:normal;font-size:10pt">3000</text>
<text x="19.248" y="-585.18" transform="scale(1, -1)"
	style="font-family:Helvetica;font-weight:normal;font-style:normal;font-size:10pt">4000</text>
<path d="M50.529,182.14L60.529,182.14" style="fill:none;stroke:#000000;stroke-width:0.625" />
<path d="M50.529,318.45L60.529,318.45" style="fill:none;stroke:#000000;stroke-width:0.625" />
<path d="M50.529,454.75L60.529,454.75" style="fill:none;stroke:#000000;stroke-width:0.625" />
<path d="M50.529,591.05L60.529,591.05" style="fill:none;stroke:#000000;stroke-width:0.625" />
<path d="M55.529,113.99L60.529,113.99" style="fill:none;stroke:#000000;stroke-width:0.625" />
<path d="M55.529,250.3L60.529,250.3" style="fill:none;stroke:#000000;stroke-width:0.625" />
<path d="M55.529,386.6L60.529,386.6" style="fill:none;stroke:#000000;stroke-width:0.625" />
<path d="M55.529,522.9L60.529,522.9" style="fill:none;stroke:#000000;stroke-width:0.625" />
<path d="M55.529,659.21L60.529,659.21" style="fill:none;stroke:#000000;stroke-width:0.625" />
<path d="M60.529,48.06L60.529,700.75" style="fill:none;stroke:#000000;stroke-width:0.625" />
<path d="M67.786,48.303L69.944,56.297L72.102,58.971L74.26,61.034L76.419,62.661L78.577,64.501L80.735,66.863L82.893,68.436L85.052,70.512L87.21,72.134L89.368,74.788L91.526,76.024L93.685,77.804L95.843,79.691L98.001,81.594L100.16,83.637L102.32,85.155L104.48,87.707L106.63,89.567L108.79,91.563L110.95,93.579L113.11,94.975L115.27,97.643L117.43,98.843L119.58,100.32L121.74,101.98L123.9,103.77L126.06,106L128.22,107.7L130.37,109.5L132.53,111.01L134.69,112.94L136.85,115.53L139.01,117.24L141.17,118.86L143.32,121.6L145.48,122.96L147.64,124.36L149.8,125.93L151.96,127.76L154.12,130.05L156.27,131.99L158.43,133.34L160.59,135.88L162.75,137.2L164.91,139.47L167.06,141.31L169.22,142.72L171.38,144.78L173.54,146.5" style="fill:none;stroke:#F15A60;stroke-width:1.875" />
<path d="M67.786,53.953L69.944,72.823L72.102,91.32L74.26,118.28L76.419,145.28L78.577,166.64L80.735,170.45L82.893,200.1L85.052,221.85L87.21,231.67L89.368,231.66L91.526,240.04L93.685,274.76L95.843,279.61L98.001,279.61L100.16,279.85L102.32,291.55L104.48,291.63L106.63,292.14L108.79,294.36L110.95,298.31L113.11,299.07L115.27,304.91L117.43,310.6L119.58,310.62L121.74,318.11L123.9,319.9L126.06,319.96L128.22,326.28L130.37,326.42L132.53,326.48L134.69,326.98L136.85,327.01L139.01,327.01L141.17,327.01L143.32,327.01L145.48,327.01L147.64,327.01L149.8,327.01L151.96,331.37L154.12,331.94L156.27,335.41L158.43,343.32L160.59,343.32L162.75,345.86L164.91,349.71L167.06,357.91L169.22,361.38L171.38,361.46L173.54,366.36L175.7,371.52L177.86,370.54L180.01,369.76L182.17,369.99L184.33,369.39" style="fill:none;stroke:#7AC36A;stroke-width:1.875;stroke-dasharray:7.5,2.5" />
<path d="M67.786,48.06L69.944,54.216L72.102,57.439L74.26,59.776L76.419,63.437L78.577,65.701L80.735,66.914L82.893,70.482L85.052,74.4L87.21,77.757L89.368,81.298L91.526,77.002L93.685,80.897L95.843,84.869L98.001,88.074L100.16,92.168L102.32,95.814L104.48,98.967L106.63,102.57L108.79,106.29L110.95,109.86L113.11,106.91L115.27,102.24L117.43,105.53L119.58,109.01L121.74,112.78L123.9,116.5L126.06,120.26L128.22,123.73L130.37,128.45L132.53,130.53L134.69,133.88L136.85,138.73L139.01,140.83L141.17,144.22L143.32,149.51L145.48,152.04L147.64,155.82L149.8,159.8L151.96,162.12L154.12,166.09L156.27,168.98L158.43,172.48L160.59,145.2L162.75,148.49L164.91,152.84L167.06,155.56L169.22,160.12L171.38,162.93L173.54,167.34L175.7,169.67L177.86,172.92L180.01,175.88L182.17,180.29L184.33,183.59L186.49,186.59L188.65,189.52L190.81,194.35L192.96,197.33L195.12,201.38L197.28,203.52L199.44,206.88L201.6,210.13L203.75,213.18L205.91,218.3L208.07,219.41L210.23,222.9L212.39,227.13L214.55,228.97L216.7,234.47L218.86,235.55L221.02,239.62L223.18,245.23L225.34,246.68L227.5,252.44L229.65,253.62L231.81,257.39L233.97,260.67L236.13,264.42L238.29,268.57L240.44,271.77L242.6,275.56L244.76,277.33L246.92,283.1L249.08,284.41L251.24,288.58L253.39,230.8L255.55,234.95L257.71,236.52L259.87,242.93L262.03,244L264.19,247.08L266.34,250.2L268.5,253.32L270.66,257.45L272.82,258.81L274.98,265.71L277.13,266.79L279.29,271.61L281.45,273.43L283.61,277.43L285.77,281.39L287.93,282.93L290.08,289.98L292.24,291.37L294.4,295.47L296.56,297.54L298.72,301.18L300.88,305.94L303.03,307.22L305.19,311.97L307.35,315.96L309.51,317.04L311.67,322.07L313.82,323.61L315.98,328.71L318.14,332.88L320.3,337.52L322.46,340.52L324.62,341.18L326.77,341.87L328.93,342.93L331.09,350.7L333.25,356.51L335.41,408.08L337.57,410.12L339.72,419.65L341.88,429.26L344.04,436.33L346.2,457.37L348.36,460.24L350.52,462.88L352.67,463.79L354.83,465.75L356.99,472.03L359.15,473.4L361.31,526.69L363.46,528.45L365.62,551L367.78,606.71L369.94,631.39L372.1,636.35L374.26,654L376.41,668.72L378.57,668.78L380.73,669.63L382.89,669.67L385.05,670.04L387.21,670.06L389.36,671.21L391.52,671.21L393.68,671.21L395.84,674.46L398,674.48L400.15,674.48L402.31,677.75L404.47,678.54L406.63,678.97L408.79,678.99L410.95,679.01L413.1,679.01L415.26,679.01L417.42,679.02L419.58,679.02L421.74,679.02L423.9,679.02L426.05,679.02L428.21,679.02L430.37,679.02L432.53,679.02L434.69,679.02L436.84,679.02L439,679.02L441.16,679.02L443.32,679.02L445.48,679.02L447.64,679.02L449.79,679.53L451.95,679.53L454.11,679.53L456.27,679.53L458.43,679.53L460.59,680.11L462.74,680.12L464.9,680.12L467.06,680.12L469.22,680.12L471.38,680.17L473.53,680.17L475.69,680.17L477.85,680.17L480.01,680.31L482.17,680.5L484.33,680.5L486.48,680.5L488.64,680.5L490.8,680.53L492.96,680.62L495.12,680.62L497.28,680.62L499.43,680.62L501.59,680.62L503.75,680.91L505.91,680.91L508.07,680.91L510.22,680.91L512.38,680.91L514.54,680.91L516.7,680.91L518.86,680.91L521.02,680.91L523.17,680.91L525.33,681.01L527.49,681.01L529.65,681.01L531.81,681.01L533.97,681.01L536.12,681.01L538.28,681.01L540.44,681.01L542.6,681.02L544.76,681.02L546.91,681.02L549.07,681.02L551.23,681.02L553.39,681.02L555.55,681.02L557.71,681.02L559.86,681.05L562.02,681.07L564.18,681.07L566.34,681.07L568.5,681.07L570.66,681.07L572.81,681.07L574.97,681.07L577.13,681.07L579.29,681.07L581.45,681.51L583.6,681.51L585.76,681.51L587.92,681.51L590.08,681.51L592.24,681.51L594.4,681.51L596.55,681.51L598.71,681.51L600.87,681.51L603.03,681.51L605.19,681.61L607.35,681.61L609.5,681.61L611.66,681.61L613.82,681.61L615.98,681.9L618.14,681.9L620.29,681.9L622.45,681.9L624.61,681.9L626.77,682L628.93,682L631.09,682L633.24,682L635.4,682L637.56,682L639.72,682.37L641.88,682.37L644.04,682.37L646.19,682.37L648.35,682.37L650.51,682.56L652.67,682.56L654.83,682.56L656.99,682.56L659.14,682.56L661.3,682.56L663.46,682.56L665.62,682.56L667.78,682.56L669.93,682.56L672.09,682.56L674.25,682.92L676.41,682.92L678.57,682.92L680.73,682.92L682.88,682.92L685.04,682.92L687.2,683.23L689.36,683.23L691.52,683.55L693.68,683.55L695.83,683.56L697.99,683.56L700.15,683.56L702.31,683.57L704.47,683.76L706.62,683.76L708.78,683.76L710.94,683.76L713.1,683.76L715.26,683.76L717.42,683.76L719.57,684.7L721.73,685.89L723.89,686.15L726.05,686.15L728.21,686.15L730.37,686.82L732.52,686.82L734.68,686.82L736.84,686.82L739,686.82L741.16,687.39L743.31,687.39L745.47,687.39L747.63,687.39L749.79,687.59L751.95,687.59L754.11,687.59L756.26,687.78L758.42,687.78L760.58,687.78L762.74,687.78L764.9,688.06L767.06,688.06L769.21,688.06L771.37,688.06L773.53,688.13L775.69,688.13L777.85,688.13L780,688.13L782.16,688.13L784.32,688.13L786.48,688.33L788.64,688.33L790.8,688.33L792.95,688.33L795.11,688.33L797.27,688.33L799.43,688.46L801.59,688.47L803.75,688.47L805.9,688.47L808.06,689.23L810.22,689.71L812.38,689.71L814.54,689.71L816.69,689.71L818.85,690.41L821.01,690.41L823.17,691.66L825.33,691.66L827.49,691.66L829.64,691.66L831.8,691.66L833.96,692.71L836.12,692.71L838.28,692.71L840.44,692.71L842.59,692.71L844.75,693.48L846.91,693.48L849.07,693.72L851.23,695.77L853.38,695.77L855.54,696.13L857.7,696.13L859.86,696.13L862.02,696.13L864.18,696.13L866.33,696.13L868.49,696.13L870.65,696.13L872.81,696.13L874.97,696.13L877.13,696.13L879.28,696.13L881.44,696.13L883.6,696.13L885.76,696.13L887.92,696.13L890.07,696.13L892.23,696.13L894.39,696.13L896.55,696.13L898.71,696.13L900.87,696.71L903.02,696.71L905.18,696.71L907.34,696.71L909.5,696.71L911.66,696.71L913.82,696.72L915.97,696.72L918.13,696.72L920.29,696.84L922.45,696.84L924.61,696.84L926.76,696.84L928.92,696.84L931.08,696.84L933.24,697.02L935.4,697.05L937.56,697.05L939.71,697.05L941.87,697.05L944.03,697.05L946.19,698.04L948.35,698.04L950.51,698.04L952.66,698.04L954.82,698.04L956.98,698.04L959.14,698.31L961.3,698.31L963.46,698.31L965.61,698.31L967.77,698.38L969.93,698.55L972.09,698.55L974.25,698.55L976.4,698.94L978.56,698.94L980.72,698.94L982.88,699.05L985.04,699.16L987.2,699.25L989.35,699.25L991.51,699.25L993.67,699.25L995.83,699.25L997.99,699.25L1000.1,699.63L1002.3,699.63L1004.5,699.63L1006.6,699.63L1008.8,699.97L1010.9,699.97L1013.1,700.47L1015.3,700.47L1017.4,700.47L1019.6,700.75L1021.7,695.6L1023.9,695.6L1026,691.93L1028.2,686.9L1030.4,686.9L1032.5,687.5L1034.7,687.5L1036.8,687.63L1039,687.63L1041.2,688.1L1043.3,688.1L1045.5,688.1L1047.6,688.88L1049.8,688.88L1051.9,688.88L1054.1,689.08L1056.3,689.08L1058.4,689.08L1060.6,689.08L1062.7,689.08L1064.9,689.08L1067.1,689.69L1069.2,689.69L1071.4,689.69L1073.5,689.69L1075.7,689.73L1077.8,689.73L1080,690.05" style="fill:none;stroke:#5A9BD4;stroke-width:1.875;stroke-dasharray:2.5,2.5" />
<path d="M1055,693.4L1080,693.4" style="fill:none;stroke:#F15A60;stroke-width:1.875" />
<text x="918.26" y="-686.35" transform="scale(1, -1)"
	style="font-family:Helvetica;font-weight:normal;font-style:normal;font-size:12pt">etcd v3.1 (Go 1.7.3)</text>
<path d="M1055,678.7L1080,678.7" style="fill:none;stroke:#7AC36A;stroke-width:1.875;stroke-dasharray:7.5,2.5" />
<text x="875.74" y="-671.65" transform="scale(1, -1)"
	style="font-family:Helvetica;font-weight:normal;font-style:normal;font-size:12pt">Zookeeper v3.4.9 (Java 8)</text>
<path d="M1055,664L1080,664" style="fill:none;stroke:#5A9BD4;stroke-width:1.875;stroke-dasharray:2.5,2.5" />
<text x="887.41" y="-656.95" transform="scale(1, -1)"
	style="font-family:Helvetica;font-weight:normal;font-style:normal;font-size:12pt">Consul v0.7.3 (Go 1.7.3)</text>
</g>
</svg>
