<?xml version="1.0"?>
<!-- Generated by SVGo and Plotinum VG -->
<svg width="12in" height="8in"
	xmlns="http://www.w3.org/2000/svg"
	xmlns:xlink="http://www.w3.org/1999/xlink">
<g transform="scale(1, -1) translate(0, -720)">
<path d="M0,0L1080,0L1080,720L0,720Z" style="fill:#FFFFFF" />
<text x="216.79" y="-705.6" transform="scale(1, -1)"
	style="font-family:Helvetica;font-weight:normal;font-style:normal;font-size:12pt">Write 2M keys, 1000-client (etcd v3.1 100-conn), 8-byte key, 256-byte value, Latency(millisecond)</text>
<text x="548.46" y="-4.8486" transform="scale(1, -1)"
	style="font-family:Helvetica;font-weight:normal;font-style:normal;font-size:12pt">Second</text>
<text x="64.31" y="-19.498" transform="scale(1, -1)"
	style="font-family:Helvetica;font-weight:normal;font-style:normal;font-size:10pt">0</text>
<text x="240.73" y="-19.498" transform="scale(1, -1)"
	style="font-family:Helvetica;font-weight:normal;font-style:normal;font-size:10pt">100</text>
<text x="424.1" y="-19.498" transform="scale(1, -1)"
	style="font-family:Helvetica;font-weight:normal;font-style:normal;font-size:10pt">200</text>
<text x="607.47" y="-19.498" transform="scale(1, -1)"
	style="font-family:Helvetica;font-weight:normal;font-style:normal;font-size:10pt">300</text>
<text x="790.85" y="-19.498" transform="scale(1, -1)"
	style="font-family:Helvetica;font-weight:normal;font-style:normal;font-size:10pt">400</text>
<text x="974.22" y="-19.498" transform="scale(1, -1)"
	style="font-family:Helvetica;font-weight:normal;font-style:normal;font-size:10pt">500</text>
<path d="M67.786,31.498L67.786,41.498" style="fill:none;stroke:#000000;stroke-width:0.625" />
<path d="M251.16,31.498L251.16,41.498" style="fill:none;stroke:#000000;stroke-width:0.625" />
<path d="M434.53,31.498L434.53,41.498" style="fill:none;stroke:#000000;stroke-width:0.625" />
<path d="M617.9,31.498L617.9,41.498" style="fill:none;stroke:#000000;stroke-width:0.625" />
<path d="M801.27,31.498L801.27,41.498" style="fill:none;stroke:#000000;stroke-width:0.625" />
<path d="M984.65,31.498L984.65,41.498" style="fill:none;stroke:#000000;stroke-width:0.625" />
<path d="M159.47,36.498L159.47,41.498" style="fill:none;stroke:#000000;stroke-width:0.625" />
<path d="M342.84,36.498L342.84,41.498" style="fill:none;stroke:#000000;stroke-width:0.625" />
<path d="M526.22,36.498L526.22,41.498" style="fill:none;stroke:#000000;stroke-width:0.625" />
<path d="M709.59,36.498L709.59,41.498" style="fill:none;stroke:#000000;stroke-width:0.625" />
<path d="M892.96,36.498L892.96,41.498" style="fill:none;stroke:#000000;stroke-width:0.625" />
<path d="M1076.3,36.498L1076.3,41.498" style="fill:none;stroke:#000000;stroke-width:0.625" />
<path d="M67.786,41.498L1080,41.498" style="fill:none;stroke:#000000;stroke-width:0.625" />
<g transform="rotate(90)">
<text x="306.05" y="14.399" transform="scale(1, -1)"
	style="font-family:Helvetica;font-weight:normal;font-style:normal;font-size:12pt">Latency(millisecond)</text>
</g>
<text x="40.104" y="-42.186" transform="scale(1, -1)"
	style="font-family:Helvetica;font-weight:normal;font-style:normal;font-size:10pt">0</text>
<text x="19.248" y="-205.58" transform="scale(1, -1)"
	style="font-family:Helvetica;font-weight:normal;font-style:normal;font-size:10pt">2000</text>
<text x="19.248" y="-368.98" transform="scale(1, -1)"
	style="font-family:Helvetica;font-weight:normal;font-style:normal;font-size:10pt">4000</text>
<text x="19.248" y="-532.38" transform="scale(1, -1)"
	style="font-family:Helvetica;font-weight:normal;font-style:normal;font-size:10pt">6000</text>
<path d="M50.529,48.06L60.529,48.06" style="fill:none;stroke:#000000;stroke-width:0.625" />
<path d="M50.529,211.46L60.529,211.46" style="fill:none;stroke:#000000;stroke-width:0.625" />
<path d="M50.529,374.86L60.529,374.86" style="fill:none;stroke:#000000;stroke-width:0.625" />
<path d="M50.529,538.25L60.529,538.25" style="fill:none;stroke:#000000;stroke-width:0.625" />
<path d="M55.529,129.76L60.529,129.76" style="fill:none;stroke:#000000;stroke-width:0.625" />
<path d="M55.529,293.16L60.529,293.16" style="fill:none;stroke:#000000;stroke-width:0.625" />
<path d="M55.529,456.56L60.529,456.56" style="fill:none;stroke:#000000;stroke-width:0.625" />
<path d="M55.529,619.95L60.529,619.95" style="fill:none;stroke:#000000;stroke-width:0.625" />
<path d="M60.529,48.06L60.529,700.75" style="fill:none;stroke:#000000;stroke-width:0.625" />
<path d="M67.786,49.48L69.619,49.624L71.453,49.895L73.287,49.979L75.121,49.962L76.954,50.008L78.788,50.052L80.622,50.028L82.455,50.044L84.289,50.104L86.123,50.04L87.957,50.119L89.79,50.094L91.624,50.017L93.458,50.083L95.291,50.125L97.125,50.035L98.959,50.09L100.79,50.103L102.63,50.18L104.46,50.081L106.29,50.117L108.13,50.223L109.96,50.175L111.79,50.018L113.63,50.095L115.46,50.188L117.3,50.037L119.13,50.264L120.96,50.075L122.8,50.101L124.63,50.167L126.46,50.061L128.3,50.064L130.13,50.396L131.97,50.072L133.8,50.019L135.63,50.112L137.47,50.113L139.3,50.239L141.13,50.151L142.97,50.164L144.8,50.086L146.64,50.152L148.47,50.127L150.3,50.206L152.14,50.141L153.97,50.129L155.8,50.208L157.64,50.209" style="fill:none;stroke:#F15A60;stroke-width:1.875" />
<path d="M67.786,49.181L69.619,49.273L71.453,49.996L73.287,49.375L75.121,49.4L76.954,49.381L78.788,49.346L80.622,50.977L82.455,50.419L84.289,49.397L86.123,49.249L87.957,52.045L89.79,49.41L91.624,49.2L93.458,51.237L95.291,49.416L97.125,49.553L98.959,49.283L100.79,49.421L102.63,49.235L104.46,48.06L106.29,51.625L108.13,49.005L109.96,50.399L111.79,50.058L113.63,49.468L115.46,56.487L117.3,50.178L119.13,50.034L120.96,115.69L122.8,114.08L124.63,117.91L126.46,131.47L128.3,111.15L130.13,50.153L131.97,49.689L133.8,49.531L135.63,49.473L137.47,49.617L139.3,50.023L141.13,49.666L142.97,49.425L144.8,48.06L146.64,48.06L148.47,54.137L150.3,49.403L152.14,49.113L153.97,49.026L155.8,252.69L157.64,50.592L159.47,50.636" style="fill:none;stroke:#7AC36A;stroke-width:1.875;stroke-dasharray:7.5,2.5" />
<path d="M67.786,57.895L69.619,53.909L71.453,54.386L73.287,54.413L75.121,54.448L76.954,54.532L78.788,54.931L80.622,54.745L82.455,54.59L84.289,54.704L86.123,55.012L87.957,54.646L89.79,55.51L91.624,54.519L93.458,54.927L95.291,54.534L97.125,56.321L98.959,57.234L100.79,57.64L102.63,55.865L104.46,54.733L106.29,54.637L108.13,54.706L109.96,54.565L111.79,54.636L113.63,55.163L115.46,57.508L117.3,55.927L119.13,55.031L120.96,54.199L122.8,54.592L124.63,55.721L126.46,54.271L128.3,54.778L130.13,55.072L131.97,54.422L133.8,56.18L135.63,56.096L137.47,57.098L139.3,54.348L141.13,54.939L142.97,54.209L144.8,55.694L146.64,59.365L148.47,63.666L150.3,62.085L152.14,60.423L153.97,62.686L155.8,66.08L157.64,64.399L159.47,66.837L161.31,70.302L163.14,72.066L164.97,73.182L166.81,69.144L168.64,66.462L170.47,69.416L172.31,70.468L174.14,70.293L175.98,74.041L177.81,66.843L179.64,65.633L181.48,66.771L183.31,67.961L185.14,73.753L186.98,70.835L188.81,70.951L190.64,69.605L192.48,66.319L194.31,68.764L196.15,64.517L197.98,61.891L199.81,65.359L201.65,68.351L203.48,69.47L205.31,65.062L207.15,66.329L208.98,69.147L210.82,69.178L212.65,69.97L214.48,62.169L216.32,54.173L218.15,55.822L219.98,54.367L221.82,54.434L223.65,55.057L225.49,55.314L227.32,56.452L229.15,54.413L230.99,58.327L232.82,63L234.65,54.917L236.49,56.192L238.32,61.589L240.16,57.564L241.99,54.024L243.82,57.947L245.66,61.012L247.49,53.87L249.32,54.137L251.16,62.508L252.99,55.696L254.83,53.98L256.66,55.14L258.49,54.9L260.33,53.775L262.16,55.868L263.99,54.059L265.83,53.848L267.66,56.096L269.5,55.692L271.33,65.288L273.16,69.09L275,70.873L276.83,70.957L278.66,62.964L280.5,54.119L282.33,55.76L284.16,57.727L286,62.666L287.83,56.871L289.67,54.029L291.5,56.068L293.33,62.229L295.17,64.497L297,54.312L298.83,54.091L300.67,55.722L302.5,63.329L304.34,55.432L306.17,54.066L308,54.029L309.84,57.987L311.67,54.341L313.5,53.9L315.34,54.149L317.17,57.391L319.01,60.358L320.84,68.595L322.67,71.037L324.51,75.819L326.34,77.305L328.17,75.396L330.01,74.814L331.84,75.584L333.68,76.847L335.51,57.424L337.34,56.515L339.18,69.058L341.01,73.308L342.84,75.563L344.68,76.284L346.51,77.169L348.35,76.361L350.18,74.923L352.01,71.599L353.85,54.009L355.68,55.776L357.51,64.93L359.35,68.578L361.18,71.802L363.01,73.037L364.85,74.588L366.68,74.694L368.52,54.12L370.35,54.064L372.18,59.902L374.02,63.325L375.85,56.683L377.68,54.542L379.52,54.273L381.35,57.788L383.19,55.053L385.02,63.976L386.85,64.601L388.69,171.33L390.52,79.583L392.35,71.658L394.19,77.157L396.02,68.135L397.86,73.841L399.69,67.82L401.52,74.848L403.36,67.695L405.19,74.21L407.02,68.189L408.86,73.618L410.69,67.944L412.53,74.723L414.36,82.938L416.19,97.213L418.03,99.331L419.86,92.324L421.69,99.569L423.53,48.06L425.36,312.35L427.2,145.24L429.03,88L430.86,164.65L432.7,48.06L434.53,243.41L436.36,278.42L438.2,356.09L440.03,464.93L441.86,176.76L443.7,96.448L445.53,98.671L447.37,96.61L449.2,95.672L451.03,95.842L452.87,98.07L454.7,95.946L456.53,94.843L458.37,98.433L460.2,94.634L462.04,94.692L463.87,96.034L465.7,94.521L467.54,97.22L469.37,105.32L471.2,179.66L473.04,128.06L474.87,83.4L476.71,87.595L478.54,94.178L480.37,93.582L482.21,96.3L484.04,94.794L485.87,94.165L487.71,96.351L489.54,95.201L491.38,94.734L493.21,94.491L495.04,94.44L496.88,97.895L498.71,92.754L500.54,95.325L502.38,95.116L504.21,94.567L506.05,95.284L507.88,95.139L509.71,96.28L511.55,92.422L513.38,94.574L515.21,94.902L517.05,93.396L518.88,95.652L520.71,93.215L522.55,94.117L524.38,94.912L526.22,93.181L528.05,91.939L529.88,93.19L531.72,93.799L533.55,94.652L535.38,94.118L537.22,92.314L539.05,93.309L540.89,94.055L542.72,92.942L544.55,93.522L546.39,94.371L548.22,93.884L550.05,98.194L551.89,98.213L553.72,99.699L555.56,98.691L557.39,104.1L559.22,113.44L561.06,122.27L562.89,133.14L564.72,142.59L566.56,153.28L568.39,161.73L570.23,171.29L572.06,182.57L573.89,190.07L575.73,197.52L577.56,208.09L579.39,217.62L581.23,227.71L583.06,237.21L584.9,244.77L586.73,252.45L588.56,261.87L590.4,274.22L592.23,282.58L594.06,292.92L595.9,302.88L597.73,311.7L599.56,322.86L601.4,332.96L603.23,342.14L605.07,351.14L606.9,361.05L608.73,371.84L610.57,383.15L612.4,390.59L614.23,403.6L616.07,411.29L617.9,415.59L619.74,425.88L621.57,435.54L623.4,447.76L625.24,455.66L627.07,462.08L628.9,466L630.74,468.08L632.57,466.83L634.41,458.24L636.24,461.13L638.07,460.89L639.91,449.82L641.74,454.09L643.57,450.68L645.41,446.62L647.24,441.44L649.08,435.3L650.91,430.68L652.74,427.5L654.58,423.1L656.41,292.82L658.24,104.87L660.08,100.53L661.91,100.49L663.75,101L665.58,101.36L667.41,100.61L669.25,99.75L671.08,101.88L672.91,100.87L674.75,114.92L676.58,200.46L678.41,278.13L680.25,364.09L682.08,445.64L683.92,48.06L685.75,48.06L687.58,593.17L689.42,383.47L691.25,99.979L693.08,102.68L694.92,99.809L696.75,98.149L698.59,114.97L700.42,89.394L702.25,100.86L704.09,104.52L705.92,97.463L707.75,98.108L709.59,98.647L711.42,99.116L713.26,100.2L715.09,99.814L716.92,98.853L718.76,98.406L720.59,99.869L722.42,99.287L724.26,99.063L726.09,101.19L727.93,98.145L729.76,99.346L731.59,100.73L733.43,97.905L735.26,101.26L737.09,96.608L738.93,99.701L740.76,100.03L742.6,99.312L744.43,96.592L746.26,160.36L748.1,107.37L749.93,96.4L751.76,98.541L753.6,97.571L755.43,99.003L757.26,99.179L759.1,97.628L760.93,98.247L762.77,98.103L764.6,96.685L766.43,97.991L768.27,98.215L770.1,99.837L771.93,95.881L773.77,101.02L775.6,96.143L777.44,97.242L779.27,99.736L781.1,95.648L782.94,97.111L784.77,97.321L786.6,99.634L788.44,95.103L790.27,98.22L792.11,97.442L793.94,97.131L795.77,98.113L797.61,95.864L799.44,99.204L801.27,96.823L803.11,96.476L804.94,97.095L806.78,96.975L808.61,97.178L810.44,99.838L812.28,177.26L814.11,183.17L815.94,71.029L817.78,87.964L819.61,95.028L821.45,97.541L823.28,95.287L825.11,97.405L826.95,98.352L828.78,93.758L830.61,97.174L832.45,95.421L834.28,98.632L836.12,93.211L837.95,96.546L839.78,95.04L841.62,98.147L843.45,94.767L845.28,96.304L847.12,96.211L848.95,95.16L850.78,95.547L852.62,94.733L854.45,97.162L856.29,94.255L858.12,95.571L859.95,95.305L861.79,98.14L863.62,90.191L865.45,95.834L867.29,96.664L869.12,101.44L870.96,95.65L872.79,100.95L874.62,102L876.46,99.393L878.29,104.36L880.12,97.577L881.96,101.89L883.79,99.806L885.63,100.26L887.46,100.96L889.29,99.546L891.13,100.34L892.96,101.31L894.79,97.787L896.63,101.99L898.46,98.403L900.3,101.64L902.13,97.714L903.96,99.09L905.8,100.13L907.63,100.12L909.46,99.51L911.3,100.73L913.13,107.29L914.97,48.06L916.8,258.43L918.63,48.06L920.47,397.15L922.3,469.33L924.13,527.26L925.97,614.02L927.8,700.75L929.63,420.78L931.47,100.61L933.3,98.95L935.14,98.033L936.97,99.766L938.8,100.9L940.64,97.826L942.47,100.46L944.3,98.391L946.14,100.84L947.97,97.267L949.81,101.74L951.64,97.71L953.47,99.577L955.31,98.038L957.14,100.36L958.97,96.948L960.81,101.94L962.64,96.342L964.48,99.633L966.31,98.488L968.14,95.877L969.98,97.407L971.81,100.69L973.64,98.77L975.48,97.094L977.31,95.745L979.15,98.108L980.98,98.207L982.81,97.579L984.65,99.789L986.48,96.465L988.31,98.223L990.15,97.704L991.98,97.674L993.82,97.834L995.65,95.598L997.48,97.378L999.32,96.764L1001.1,98.362L1003,97.726L1004.8,97.2L1006.7,97.448L1008.5,95.931L1010.3,98.143L1012.2,96.896L1014,96.947L1015.8,96.5L1017.7,97.628L1019.5,96.95L1021.3,96.746L1023.2,96.074L1025,98.42L1026.8,95.964L1028.7,96.28L1030.5,96.387L1032.3,97.239L1034.2,95.994L1036,97.235L1037.8,94.616L1039.7,97.26L1041.5,96.035L1043.3,96.66L1045.2,95.207L1047,101.36L1048.8,92.857L1050.7,95.23L1052.5,96.741L1054.3,95.029L1056.2,96.888L1058,96.006L1059.8,97.752L1061.7,92.233L1063.5,95.535L1065.3,95.46L1067.2,97.619L1069,94.428L1070.8,95.391L1072.7,93.387L1074.5,95.261L1076.3,95.196L1078.2,94.71L1080,96.974" style="fill:none;stroke:#5A9BD4;stroke-width:1.875;stroke-dasharray:2.5,2.5" />
<path d="M1055,693.4L1080,693.4" style="fill:none;stroke:#F15A60;stroke-width:1.875" />
<text x="918.26" y="-686.35" transform="scale(1, -1)"
	style="font-family:Helvetica;font-weight:normal;font-style:normal;font-size:12pt">etcd v3.1 (Go 1.7.4)</text>
<path d="M1055,678.7L1080,678.7" style="fill:none;stroke:#7AC36A;stroke-width:1.875;stroke-dasharray:7.5,2.5" />
<text x="875.74" y="-671.65" transform="scale(1, -1)"
	style="font-family:Helvetica;font-weight:normal;font-style:normal;font-size:12pt">Zookeeper v3.4.9 (Java 8)</text>
<path d="M1055,664L1080,664" style="fill:none;stroke:#5A9BD4;stroke-width:1.875;stroke-dasharray:2.5,2.5" />
<text x="887.41" y="-656.95" transform="scale(1, -1)"
	style="font-family:Helvetica;font-weight:normal;font-style:normal;font-size:12pt">Consul v0.7.1 (Go 1.7.3)</text>
</g>
</svg>
