<?xml version="1.0"?>
<!-- Generated by SVGo and Plotinum VG -->
<svg width="12in" height="8in"
	xmlns="http://www.w3.org/2000/svg"
	xmlns:xlink="http://www.w3.org/1999/xlink">
<g transform="scale(1, -1) translate(0, -720)">
<path d="M0,0L1080,0L1080,720L0,720Z" style="fill:#FFFFFF" />
<text x="246.93" y="-705.6" transform="scale(1, -1)"
	style="font-family:Helvetica;font-weight:normal;font-style:normal;font-size:12pt">Write 2M keys, 1000-client (etcd v3.1 100-conn), 8-byte key, 256-byte value, Throughput</text>
<text x="552.11" y="-4.8486" transform="scale(1, -1)"
	style="font-family:Helvetica;font-weight:normal;font-style:normal;font-size:12pt">Second</text>
<text x="71.609" y="-19.498" transform="scale(1, -1)"
	style="font-family:Helvetica;font-weight:normal;font-style:normal;font-size:10pt">0</text>
<text x="246.71" y="-19.498" transform="scale(1, -1)"
	style="font-family:Helvetica;font-weight:normal;font-style:normal;font-size:10pt">100</text>
<text x="428.76" y="-19.498" transform="scale(1, -1)"
	style="font-family:Helvetica;font-weight:normal;font-style:normal;font-size:10pt">200</text>
<text x="610.81" y="-19.498" transform="scale(1, -1)"
	style="font-family:Helvetica;font-weight:normal;font-style:normal;font-size:10pt">300</text>
<text x="792.86" y="-19.498" transform="scale(1, -1)"
	style="font-family:Helvetica;font-weight:normal;font-style:normal;font-size:10pt">400</text>
<text x="974.91" y="-19.498" transform="scale(1, -1)"
	style="font-family:Helvetica;font-weight:normal;font-style:normal;font-size:10pt">500</text>
<path d="M75.085,31.498L75.085,41.498" style="fill:none;stroke:#000000;stroke-width:0.625" />
<path d="M257.14,31.498L257.14,41.498" style="fill:none;stroke:#000000;stroke-width:0.625" />
<path d="M439.18,31.498L439.18,41.498" style="fill:none;stroke:#000000;stroke-width:0.625" />
<path d="M621.23,31.498L621.23,41.498" style="fill:none;stroke:#000000;stroke-width:0.625" />
<path d="M803.28,31.498L803.28,41.498" style="fill:none;stroke:#000000;stroke-width:0.625" />
<path d="M985.33,31.498L985.33,41.498" style="fill:none;stroke:#000000;stroke-width:0.625" />
<path d="M166.11,36.498L166.11,41.498" style="fill:none;stroke:#000000;stroke-width:0.625" />
<path d="M348.16,36.498L348.16,41.498" style="fill:none;stroke:#000000;stroke-width:0.625" />
<path d="M530.21,36.498L530.21,41.498" style="fill:none;stroke:#000000;stroke-width:0.625" />
<path d="M712.26,36.498L712.26,41.498" style="fill:none;stroke:#000000;stroke-width:0.625" />
<path d="M894.31,36.498L894.31,41.498" style="fill:none;stroke:#000000;stroke-width:0.625" />
<path d="M1076.4,36.498L1076.4,41.498" style="fill:none;stroke:#000000;stroke-width:0.625" />
<path d="M75.085,41.498L1080,41.498" style="fill:none;stroke:#000000;stroke-width:0.625" />
<g transform="rotate(90)">
<text x="336.05" y="14.399" transform="scale(1, -1)"
	style="font-family:Helvetica;font-weight:normal;font-style:normal;font-size:12pt">Throughput</text>
</g>
<text x="47.404" y="-42.186" transform="scale(1, -1)"
	style="font-family:Helvetica;font-weight:normal;font-style:normal;font-size:10pt">0</text>
<text x="19.248" y="-237.91" transform="scale(1, -1)"
	style="font-family:Helvetica;font-weight:normal;font-style:normal;font-size:10pt">2e+04</text>
<text x="19.248" y="-433.64" transform="scale(1, -1)"
	style="font-family:Helvetica;font-weight:normal;font-style:normal;font-size:10pt">4e+04</text>
<text x="19.248" y="-629.37" transform="scale(1, -1)"
	style="font-family:Helvetica;font-weight:normal;font-style:normal;font-size:10pt">6e+04</text>
<path d="M57.828,48.06L67.828,48.06" style="fill:none;stroke:#000000;stroke-width:0.625" />
<path d="M57.828,243.79L67.828,243.79" style="fill:none;stroke:#000000;stroke-width:0.625" />
<path d="M57.828,439.51L67.828,439.51" style="fill:none;stroke:#000000;stroke-width:0.625" />
<path d="M57.828,635.24L67.828,635.24" style="fill:none;stroke:#000000;stroke-width:0.625" />
<path d="M62.828,145.92L67.828,145.92" style="fill:none;stroke:#000000;stroke-width:0.625" />
<path d="M62.828,341.65L67.828,341.65" style="fill:none;stroke:#000000;stroke-width:0.625" />
<path d="M62.828,537.38L67.828,537.38" style="fill:none;stroke:#000000;stroke-width:0.625" />
<path d="M67.828,48.06L67.828,700.75" style="fill:none;stroke:#000000;stroke-width:0.625" />
<path d="M75.085,345.47L76.906,553.66L78.726,480.4L80.547,461.28L82.367,464.14L84.188,450.33L86.008,456.05L87.829,440.67L89.649,457.93L91.47,439.43L93.29,443.66L95.111,439.38L96.931,440.42L98.752,450.3L100.57,445.07L102.39,433.34L104.21,451.08L106.03,438.95L107.85,438.26L109.67,425.39L111.5,442.78L113.32,435.28L115.14,416.41L116.96,424.48L118.78,443.82L120.6,443.83L122.42,428.91L124.24,449.52L126.06,402.48L127.88,445.11L129.7,434.61L131.52,436.76L133.34,447.1L135.16,436.28L136.98,397.41L138.8,444.69L140.62,453.79L142.44,436.15L144.26,436.53L146.08,412.44L147.91,420.53L149.73,422.93L151.55,427.38L153.37,440.02L155.19,438.22L157.01,428.66L158.83,423.93L160.65,431.58L162.47,428.88L164.29,419.7" style="fill:none;stroke:#F15A60;stroke-width:1.875" />
<path d="M75.085,367.9L76.906,527.58L78.726,574.18L80.547,646.6L82.367,652.51L84.188,653.8L86.008,408.94L87.829,344.97L89.649,499.43L91.47,644.53L93.29,438.83L95.111,332.35L96.931,618.03L98.752,327.41L100.57,447L102.39,638.08L104.21,582.95L106.03,700.75L107.85,635.54L109.67,303.31L111.5,48.06L113.32,591.44L115.14,610.11L116.96,555.07L118.78,298.53L120.6,369.41L122.42,212.2L124.24,455.18L126.06,335.24L127.88,58.042L129.7,58.091L131.52,58.179L133.34,57.847L135.16,68.181L136.98,478.14L138.8,538.96L140.62,584.64L142.44,599.24L144.26,575.65L146.08,426.77L147.91,517.47L149.73,492.61L151.55,48.06L153.37,48.06L155.19,474.89L157.01,564.65L158.83,548.42L160.65,558.87L162.47,51.319L164.29,464.85L166.11,551.52" style="fill:none;stroke:#7AC36A;stroke-width:1.875;stroke-dasharray:7.5,2.5" />
<path d="M75.085,134.52L76.906,185.21L78.726,173.46L80.547,173.65L82.367,174.24L84.188,170.52L86.008,165.16L87.829,166.88L89.649,170.59L91.47,167.69L93.29,163.62L95.111,168.96L96.931,156.47L98.752,171.63L100.57,163.88L102.39,171.78L104.21,143.43L106.03,134.99L107.85,132.8L109.67,151.41L111.5,161.05L113.32,170.86L115.14,173.2L116.96,171.59L118.78,170.14L120.6,158.49L122.42,130.53L124.24,153.73L126.06,162.82L127.88,173.29L129.7,174.48L131.52,151.56L133.34,177.14L135.16,167.05L136.98,162.92L138.8,172.19L140.62,148.07L142.44,144.08L144.26,139.78L146.08,175.31L147.91,161.46L149.73,181.02L151.55,149.72L153.37,117.45L155.19,97.286L157.01,108.05L158.83,111.49L160.65,101.93L162.47,91.394L164.29,98.333L166.11,88.938L167.93,84.28L169.75,80.267L171.57,79.514L173.39,87.979L175.21,91.443L177.03,84.26L178.85,84.583L180.67,83.027L182.49,78.907L184.32,93.117L186.14,92.784L187.96,90.797L189.78,87.48L191.6,78.486L193.42,83.056L195.24,84.064L197.06,86.022L198.88,91.062L200.7,86.54L202.52,98.832L204.34,105.8L206.16,92.236L207.98,87.617L209.8,85.004L211.62,97.295L213.44,89.907L215.26,86.012L217.08,86.579L218.9,82.949L220.73,111.53L222.55,179.15L224.37,149.53L226.19,175.31L228.01,161.26L229.83,174.28L231.65,158.02L233.47,143.63L235.29,164.91L237.11,128.66L238.93,97.579L240.75,178.11L242.57,141.66L244.39,106.94L246.21,135.14L248.03,184.27L249.85,124.2L251.67,112.36L253.49,187.84L255.31,170.24L257.14,102.9L258.96,160.8L260.78,183.44L262.6,147.73L264.42,177.72L266.24,188.98L268.06,146.47L269.88,187.02L271.7,185.1L273.52,147.86L275.34,149.43L277.16,91.473L278.98,85.748L280.8,82.821L282.62,83.653L284.44,106.7L286.26,179.48L288.08,150.92L289.9,128.73L291.72,100.91L293.55,145.14L295.37,182.26L297.19,143.71L299.01,103.64L300.83,99.145L302.65,176.2L304.47,181.09L306.29,146.9L308.11,97.599L309.93,168.45L311.75,180.82L313.57,181.48L315.39,120.4L317.21,189.39L319.03,183.04L320.85,180.19L322.67,133.18L324.49,108.6L326.31,86.56L328.13,81.784L329.96,76.568L331.78,75.482L333.6,77.439L335.42,77.703L337.24,76.676L339.06,75.531L340.88,146.79L342.7,135.93L344.52,84.661L346.34,79.21L348.16,76.901L349.98,76.196L351.8,75.697L353.62,76.441L355.44,78.193L357.26,85.953L359.08,183.35L360.9,144.96L362.72,94.986L364.54,86.168L366.37,80.815L368.19,79.925L370.01,77.635L371.83,82.185L373.65,179.68L375.47,181.52L377.29,112.36L379.11,102.95L380.93,140.05L382.75,172.82L384.57,175.63L386.39,130.31L388.21,156.29L390.03,98L391.85,50.712L393.67,60.636L395.49,72.634L397.31,81.882L399.13,76.607L400.95,86.237L402.77,79.905L404.6,88.703L406.42,77.37L408.24,88.899L410.06,78.75L411.88,88.135L413.7,78.75L415.52,89.398L417.34,75.619L419.16,68.729L420.98,64.345L422.8,65.421L424.62,63.895L426.44,50.566L428.26,48.06L430.08,53.071L431.9,66.38L433.72,58.483L435.54,57.24L437.36,48.06L439.18,49.303L441.01,48.696L442.83,48.696L444.65,53.717L446.47,61.83L448.29,68.103L450.11,62.466L451.93,64.971L453.75,64.971L455.57,65.597L457.39,64.971L459.21,63.718L461.03,63.092L462.85,66.85L464.67,63.718L466.49,66.224L468.31,64.971L470.13,64.345L471.95,63.718L473.77,56.203L475.59,49.939L477.42,70.755L479.24,64.736L481.06,72.252L482.88,65.597L484.7,64.971L486.52,63.709L488.34,64.345L490.16,66.85L491.98,64.345L493.8,64.971L495.62,66.224L497.44,64.971L499.26,64.345L501.08,63.092L502.9,66.224L504.72,66.224L506.54,64.961L508.36,66.224L510.18,64.971L512,64.961L513.83,63.718L515.65,65.597L517.47,66.214L519.29,63.718L521.11,66.85L522.93,65.597L524.75,66.204L526.57,64.364L528.39,63.092L530.21,68.122L532.03,65.578L533.85,65.597L535.67,64.971L537.49,65.597L539.31,66.224L541.13,65.597L542.95,66.224L544.77,66.214L546.59,64.345L548.41,66.85L550.24,65.597L552.06,64.345L553.88,64.345L555.7,63.082L557.52,64.345L559.34,62.857L561.16,61.624L562.98,59.305L564.8,58.395L566.62,56.741L568.44,56.976L570.26,54.735L572.08,54.48L573.9,54.539L575.72,53.824L577.54,52.748L579.36,53.423L581.18,52.494L583,53.149L584.82,52.122L586.65,51.985L588.47,52.024L590.29,50.83L592.11,51.701L593.93,52.043L595.75,50.252L597.57,51.652L599.39,51.476L601.21,50.595L603.03,50.703L604.85,50.82L606.67,50.575L608.49,50.155L610.31,50.526L612.13,50.752L613.95,50.556L615.77,49.978L617.59,50.096L619.41,49.9L621.23,50.194L623.06,50.536L624.88,49.43L626.7,50.047L628.52,49.881L630.34,50.106L632.16,49.998L633.98,50.037L635.8,50.027L637.62,49.9L639.44,49.695L641.26,51.045L643.08,49.43L644.9,50.067L646.72,49.871L648.54,50.204L650.36,50.673L652.18,49.46L654,50.507L655.82,50.703L657.64,50.076L659.47,57.171L661.29,63.092L663.11,62.456L664.93,63.718L666.75,64.345L668.57,62.466L670.39,62.466L672.21,63.092L674.03,63.709L675.85,63.689L677.67,55.606L679.49,50.409L681.31,48.696L683.13,48.696L684.95,48.696L686.77,48.06L688.59,48.06L690.41,49.333L692.23,63.092L694.05,63.718L695.88,63.092L697.7,63.092L699.52,63.718L701.34,60.587L703.16,66.85L704.98,63.092L706.8,62.466L708.62,63.092L710.44,64.971L712.26,63.082L714.08,64.345L715.9,63.718L717.72,63.092L719.54,64.345L721.36,63.718L723.18,63.709L725,63.718L726.82,62.466L728.64,62.466L730.46,63.092L732.29,65.578L734.11,63.718L735.93,63.718L737.75,64.345L739.57,63.092L741.39,64.345L743.21,62.466L745.03,64.345L746.85,58.708L748.67,49.939L750.49,76.871L752.31,64.345L754.13,63.092L755.95,64.345L757.77,64.345L759.59,63.092L761.41,63.709L763.23,63.718L765.05,65.597L766.87,64.345L768.69,63.718L770.52,63.718L772.34,64.345L774.16,63.092L775.98,63.718L777.8,65.597L779.62,63.718L781.44,63.797L783.26,65.343L785.08,62.632L786.9,65.597L788.72,63.092L790.54,64.971L792.36,64.345L794.18,63.718L796,63.092L797.82,65.597L799.64,64.971L801.46,63.092L803.28,64.971L805.1,64.971L806.93,62.466L808.75,66.84L810.57,64.345L812.39,56.203L814.21,49.939L816.03,61.605L817.85,84.671L819.67,64.501L821.49,64.345L823.31,64.971L825.13,64.345L826.95,64.971L828.77,64.345L830.59,64.971L832.41,64.345L834.23,62.466L836.05,66.224L837.87,63.709L839.69,65.588L841.51,65.597L843.34,63.092L845.16,65.686L846.98,65.5L848.8,64.345L850.62,65.47L852.44,64.472L854.26,64.971L856.08,62.466L857.9,66.84L859.72,65.597L861.54,63.718L863.36,66.224L865.18,65.284L867,62.153L868.82,66.224L870.64,64.012L872.46,64.051L874.28,61.84L876.1,63.718L877.92,64.971L879.75,61.213L881.57,64.971L883.39,63.092L885.21,63.092L887.03,63.709L888.85,61.84L890.67,61.928L892.49,66.762L894.31,63.581L896.13,63.219L897.95,63.718L899.77,62.466L901.59,64.345L903.41,62.466L905.23,61.213L907.05,66.84L908.87,63.092L910.69,63.718L912.51,63.718L914.33,58.708L916.16,48.06L917.98,51.143L919.8,48.06L921.62,49.333L923.44,48.696L925.26,48.696L927.08,48.696L928.9,48.696L930.72,61.213L932.54,63.092L934.36,64.345L936.18,61.84L938,64.971L939.82,63.66L941.64,63.767L943.46,63.092L945.28,63.718L947.1,61.84L948.92,66.214L950.74,62.466L952.57,64.961L954.39,63.092L956.21,64.971L958.03,62.466L959.85,64.971L961.67,63.092L963.49,64.345L965.31,64.345L967.13,63.718L968.95,64.345L970.77,64.159L972.59,63.278L974.41,63.092L976.23,66.224L978.05,63.092L979.87,64.961L981.69,63.718L983.51,64.345L985.33,62.466L987.15,64.971L988.98,63.718L990.8,63.709L992.62,64.971L994.44,64.971L996.26,64.169L998.08,64.521L999.9,64.345L1001.7,63.092L1003.5,65.597L1005.4,64.345L1007.2,64.345L1009,64.335L1010.8,64.345L1012.6,63.092L1014.5,64.971L1016.3,64.971L1018.1,64.345L1019.9,63.709L1021.7,64.971L1023.6,64.345L1025.4,63.092L1027.2,66.224L1029,63.718L1030.8,64.971L1032.7,64.345L1034.5,65.597L1036.3,63.718L1038.1,65.597L1039.9,64.335L1041.8,64.961L1043.6,61.849L1045.4,67.457L1047.2,60.606L1049.1,68.103L1050.9,64.971L1052.7,65.597L1054.5,63.533L1056.3,64.531L1058.2,66.204L1060,64.678L1061.8,64.638L1063.6,65.597L1065.4,64.971L1067.3,62.466L1069.1,67.476L1070.9,64.912L1072.7,63.151L1074.5,66.85L1076.4,64.345L1078.2,66.204L1080,61.849" style="fill:none;stroke:#5A9BD4;stroke-width:1.875;stroke-dasharray:2.5,2.5" />
<path d="M1055,693.4L1080,693.4" style="fill:none;stroke:#F15A60;stroke-width:1.875" />
<text x="918.26" y="-686.35" transform="scale(1, -1)"
	style="font-family:Helvetica;font-weight:normal;font-style:normal;font-size:12pt">etcd v3.1 (Go 1.7.4)</text>
<path d="M1055,678.7L1080,678.7" style="fill:none;stroke:#7AC36A;stroke-width:1.875;stroke-dasharray:7.5,2.5" />
<text x="875.74" y="-671.65" transform="scale(1, -1)"
	style="font-family:Helvetica;font-weight:normal;font-style:normal;font-size:12pt">Zookeeper v3.4.9 (Java 8)</text>
<path d="M1055,664L1080,664" style="fill:none;stroke:#5A9BD4;stroke-width:1.875;stroke-dasharray:2.5,2.5" />
<text x="887.41" y="-656.95" transform="scale(1, -1)"
	style="font-family:Helvetica;font-weight:normal;font-style:normal;font-size:12pt">Consul v0.7.1 (Go 1.7.3)</text>
</g>
</svg>
