<?xml version="1.0"?>
<!-- Generated by SVGo and Plotinum VG -->
<svg width="12in" height="8in"
	xmlns="http://www.w3.org/2000/svg"
	xmlns:xlink="http://www.w3.org/1999/xlink">
<g transform="scale(1, -1) translate(0, -720)">
<path d="M0,0L1080,0L1080,720L0,720Z" style="fill:#FFFFFF" />
<text x="241.82" y="-705.6" transform="scale(1, -1)"
	style="font-family:Helvetica;font-weight:normal;font-style:normal;font-size:12pt">Write 2M keys, 1000-client (etcd v3.1 100-conn), 8-byte key, 256-byte value, Memory(MB)</text>
<text x="548.46" y="-4.8486" transform="scale(1, -1)"
	style="font-family:Helvetica;font-weight:normal;font-style:normal;font-size:12pt">Second</text>
<text x="64.31" y="-19.498" transform="scale(1, -1)"
	style="font-family:Helvetica;font-weight:normal;font-style:normal;font-size:10pt">0</text>
<text x="241.06" y="-19.498" transform="scale(1, -1)"
	style="font-family:Helvetica;font-weight:normal;font-style:normal;font-size:10pt">100</text>
<text x="424.77" y="-19.498" transform="scale(1, -1)"
	style="font-family:Helvetica;font-weight:normal;font-style:normal;font-size:10pt">200</text>
<text x="608.47" y="-19.498" transform="scale(1, -1)"
	style="font-family:Helvetica;font-weight:normal;font-style:normal;font-size:10pt">300</text>
<text x="792.18" y="-19.498" transform="scale(1, -1)"
	style="font-family:Helvetica;font-weight:normal;font-style:normal;font-size:10pt">400</text>
<text x="975.88" y="-19.498" transform="scale(1, -1)"
	style="font-family:Helvetica;font-weight:normal;font-style:normal;font-size:10pt">500</text>
<path d="M67.786,31.498L67.786,41.498" style="fill:none;stroke:#000000;stroke-width:0.625" />
<path d="M251.49,31.498L251.49,41.498" style="fill:none;stroke:#000000;stroke-width:0.625" />
<path d="M435.2,31.498L435.2,41.498" style="fill:none;stroke:#000000;stroke-width:0.625" />
<path d="M618.9,31.498L618.9,41.498" style="fill:none;stroke:#000000;stroke-width:0.625" />
<path d="M802.61,31.498L802.61,41.498" style="fill:none;stroke:#000000;stroke-width:0.625" />
<path d="M986.31,31.498L986.31,41.498" style="fill:none;stroke:#000000;stroke-width:0.625" />
<path d="M159.64,36.498L159.64,41.498" style="fill:none;stroke:#000000;stroke-width:0.625" />
<path d="M343.34,36.498L343.34,41.498" style="fill:none;stroke:#000000;stroke-width:0.625" />
<path d="M527.05,36.498L527.05,41.498" style="fill:none;stroke:#000000;stroke-width:0.625" />
<path d="M710.75,36.498L710.75,41.498" style="fill:none;stroke:#000000;stroke-width:0.625" />
<path d="M894.46,36.498L894.46,41.498" style="fill:none;stroke:#000000;stroke-width:0.625" />
<path d="M1078.2,36.498L1078.2,41.498" style="fill:none;stroke:#000000;stroke-width:0.625" />
<path d="M67.786,41.498L1080,41.498" style="fill:none;stroke:#000000;stroke-width:0.625" />
<g transform="rotate(90)">
<text x="331.08" y="14.399" transform="scale(1, -1)"
	style="font-family:Helvetica;font-weight:normal;font-style:normal;font-size:12pt">Memory(MB)</text>
</g>
<text x="19.248" y="-184.53" transform="scale(1, -1)"
	style="font-family:Helvetica;font-weight:normal;font-style:normal;font-size:10pt">1000</text>
<text x="19.248" y="-330.19" transform="scale(1, -1)"
	style="font-family:Helvetica;font-weight:normal;font-style:normal;font-size:10pt">2000</text>
<text x="19.248" y="-475.84" transform="scale(1, -1)"
	style="font-family:Helvetica;font-weight:normal;font-style:normal;font-size:10pt">3000</text>
<text x="19.248" y="-621.5" transform="scale(1, -1)"
	style="font-family:Helvetica;font-weight:normal;font-style:normal;font-size:10pt">4000</text>
<path d="M50.529,190.4L60.529,190.4" style="fill:none;stroke:#000000;stroke-width:0.625" />
<path d="M50.529,336.06L60.529,336.06" style="fill:none;stroke:#000000;stroke-width:0.625" />
<path d="M50.529,481.72L60.529,481.72" style="fill:none;stroke:#000000;stroke-width:0.625" />
<path d="M50.529,627.37L60.529,627.37" style="fill:none;stroke:#000000;stroke-width:0.625" />
<path d="M55.529,117.58L60.529,117.58" style="fill:none;stroke:#000000;stroke-width:0.625" />
<path d="M55.529,263.23L60.529,263.23" style="fill:none;stroke:#000000;stroke-width:0.625" />
<path d="M55.529,408.89L60.529,408.89" style="fill:none;stroke:#000000;stroke-width:0.625" />
<path d="M55.529,554.54L60.529,554.54" style="fill:none;stroke:#000000;stroke-width:0.625" />
<path d="M55.529,700.2L60.529,700.2" style="fill:none;stroke:#000000;stroke-width:0.625" />
<path d="M60.529,48.06L60.529,700.75" style="fill:none;stroke:#000000;stroke-width:0.625" />
<path d="M67.786,48.06L69.623,56.877L71.46,59.03L73.297,61.163L75.134,63.341L76.971,65.692L78.808,67.804L80.645,70.21L82.482,72.252L84.319,73.653L86.156,75.913L87.993,78.325L89.83,80.236L91.667,82.288L93.504,84.479L95.341,86.678L97.178,88.748L99.015,90.721L100.85,92.283L102.69,94.54L104.53,97.199L106.36,99.398L108.2,100.79L110.04,102.45L111.87,105.45L113.71,107.16L115.55,108.78L117.39,111.5L119.22,113.29L121.06,115.08L122.9,117.38L124.73,119.57L126.57,121.59L128.41,123.26L130.25,125.81L132.08,127.48L133.92,130.29L135.76,132.34L137.59,134.15L139.43,135.98L141.27,138L143.1,139.93L144.94,141.14L146.78,143.79L148.62,145.82L150.45,148.34L152.29,149.95L154.13,151.51L155.96,154.1" style="fill:none;stroke:#F15A60;stroke-width:1.875" />
<path d="M67.786,72.602L69.623,98.555L71.46,122.27L73.297,150.82L75.134,173.19L76.971,208.11L78.808,230.34L80.645,241.89L82.482,241.73L84.319,252.29L86.156,291.33L87.993,293.35L89.83,293.35L91.667,305.83L93.504,306.8L95.341,307.26L97.178,314.23L99.015,314.23L100.85,322.58L102.69,328.34L104.53,328.81L106.36,334.98L108.2,338.01L110.04,338.08L111.87,345.92L113.71,345.94L115.55,346.88L117.39,347.72L119.22,350.66L121.06,350.66L122.9,350.66L124.73,350.66L126.57,350.66L128.41,350.66L130.25,350.66L132.08,354.11L133.92,357.79L135.76,359.81L137.59,365.11L139.43,367.43L141.27,369.32L143.1,373.26L144.94,379.06L146.78,380.77L148.62,383.33L150.45,383.42L152.29,389.67L154.13,389.45L155.96,394.43L157.8,395.94" style="fill:none;stroke:#7AC36A;stroke-width:1.875;stroke-dasharray:7.5,2.5" />
<path d="M67.786,52.546L69.623,55.698L71.46,57.911L73.297,61.89L75.134,65.989L76.971,66.1L78.808,70.213L80.645,73.709L82.482,78.042L84.319,82.005L86.156,77.264L87.993,80.77L89.83,85.382L91.667,88.353L93.504,93.342L95.341,96.967L97.178,100.36L99.015,103.41L100.85,106.72L102.69,110.14L104.53,113.39L106.36,117.15L108.2,103.21L110.04,107.43L111.87,111.75L113.71,116.3L115.55,118.15L117.39,121.64L119.22,125.86L121.06,130.73L122.9,133.78L124.73,137.11L126.57,141.26L128.41,145.63L130.25,147.85L132.08,150.87L133.92,154.29L135.76,155.64L137.59,159.91L139.43,161.9L141.27,166.22L143.1,169.83L144.94,170.84L146.78,176.82L148.62,177.63L150.45,179.06L152.29,150.63L154.13,152.03L155.96,152.69L157.8,154.49L159.64,157.86L161.48,158.46L163.31,158.9L165.15,159.43L166.99,161.29L168.82,164.33L170.66,164.98L172.5,165.41L174.33,166.07L176.17,166.99L178.01,169.73L179.85,170.36L181.68,170.99L183.52,171.72L185.36,173.43L187.19,175.8L189.03,176.31L190.87,176.77L192.71,177.26L194.54,177.95L196.38,179.99L198.22,182.63L200.05,183.38L201.89,184L203.73,185.58L205.56,187.79L207.4,189.59L209.24,190.04L211.08,190.64L212.91,191.21L214.75,193.43L216.59,196.41L218.42,197.54L220.26,201.79L222.1,204.62L223.93,207.59L225.77,213.37L227.61,214.9L229.45,218.69L231.28,223.74L233.12,224.75L234.96,227.88L236.79,231.24L238.63,234.48L240.47,236.33L242.31,238.33L244.14,243.38L245.98,245.26L247.82,248.37L249.65,251.26L251.49,255.96L253.33,259.5L255.16,260.17L257,264.47L258.84,270.84L260.68,271.96L262.51,273.97L264.35,281.19L266.19,284.32L268.02,287.19L269.86,293.05L271.7,296.97L273.54,298.38L275.37,299L277.21,299.72L279.05,300.89L280.88,302.72L282.72,307.7L284.56,243.09L286.39,244.17L288.23,246.76L290.07,248.15L291.91,253.2L293.74,256.38L295.58,257.5L297.42,260.43L299.25,261.61L301.09,266.21L302.93,270.21L304.77,273.93L306.6,275.06L308.44,279.78L310.28,283.65L312.11,288.84L313.95,293.53L315.79,295.42L317.62,299.42L319.46,356.89L321.3,363.9L323.14,389.9L324.97,394.94L326.81,396.09L328.65,396.48L330.48,397.47L332.32,399.09L334.16,401.31L335.99,402.92L337.83,409.2L339.67,411.12L341.51,411.61L343.34,411.93L345.18,412.16L347.02,412.51L348.85,412.83L350.69,413.22L352.53,413.8L354.37,415.29L356.2,416.88L358.04,419.17L359.88,419.5L361.71,419.9L363.55,420.28L365.39,420.5L367.22,421.09L369.06,422.95L370.9,423.54L372.74,427.54L374.57,428.77L376.41,433.47L378.25,434.01L380.08,434.91L381.92,437.13L383.76,439.16L385.6,443.3L387.43,472.21L389.27,498.31L391.11,506.3L392.94,519.52L394.78,540.57L396.62,541.74L398.45,542.46L400.29,543.47L402.13,543.47L403.97,544.46L405.8,544.96L407.64,545.19L409.48,545.31L411.31,546.81L413.15,549.65L414.99,553.12L416.83,553.12L418.66,553.18L420.5,553.21L422.34,582.78L424.17,610.81L426.01,612.72L427.85,620.68L429.68,645.23L431.52,653.08L433.36,653.58L435.2,653.58L437.03,653.58L438.87,653.58L440.71,653.58L442.54,653.6L444.38,653.6L446.22,653.61L448.05,653.72L449.89,653.72L451.73,653.72L453.57,653.92L455.4,656.26L457.24,656.26L459.08,656.26L460.91,656.36L462.75,657.13L464.59,657.14L466.43,657.16L468.26,657.38L470.1,657.38L471.94,657.38L473.77,657.38L475.61,658.21L477.45,658.84L479.28,658.84L481.12,658.84L482.96,658.85L484.8,658.85L486.63,658.85L488.47,658.85L490.31,659.06L492.14,659.06L493.98,659.06L495.82,659.06L497.66,659.16L499.49,659.16L501.33,659.16L503.17,659.16L505,659.26L506.84,659.26L508.68,659.26L510.51,659.26L512.35,659.26L514.19,659.27L516.03,659.27L517.86,659.27L519.7,659.27L521.54,659.27L523.37,659.27L525.21,659.27L527.05,659.27L528.89,659.27L530.72,659.3L532.56,659.3L534.4,659.44L536.23,659.44L538.07,659.44L539.91,659.44L541.74,660.14L543.58,660.14L545.42,660.14L547.26,660.14L549.09,660.71L550.93,660.71L552.77,660.71L554.6,660.76L556.44,661.01L558.28,661.01L560.11,661.01L561.95,661.01L563.79,663L565.63,663.58L567.46,663.58L569.3,663.58L571.14,663.58L572.97,667.33L574.81,668.15L576.65,668.15L578.49,668.15L580.32,668.15L582.16,669.23L584,669.23L585.83,669.23L587.67,669.23L589.51,669.23L591.34,670.87L593.18,670.87L595.02,670.87L596.86,670.87L598.69,670.87L600.53,672.11L602.37,672.11L604.2,672.11L606.04,672.11L607.88,672.11L609.72,672.11L611.55,672.52L613.39,672.52L615.23,672.52L617.06,672.52L618.9,672.52L620.74,672.52L622.57,672.53L624.41,672.53L626.25,672.53L628.09,672.53L629.92,672.53L631.76,672.58L633.6,672.58L635.43,672.58L637.27,672.59L639.11,672.6L640.95,674.86L642.78,674.99L644.62,675L646.46,675L648.29,675L650.13,676.02L651.97,676.02L653.8,676.02L655.64,676.02L657.48,676.02L659.32,676.02L661.15,676.02L662.99,681.98L664.83,681.98L666.66,681.98L668.5,681.98L670.34,681.98L672.17,682.11L674.01,682.11L675.85,682.11L677.69,682.11L679.52,682.11L681.36,682.11L683.2,682.11L685.03,682.11L686.87,682.11L688.71,682.11L690.55,682.11L692.38,682.11L694.22,682.11L696.06,682.11L697.89,682.11L699.73,682.17L701.57,682.17L703.4,682.17L705.24,682.17L707.08,682.17L708.92,682.17L710.75,682.17L712.59,682.17L714.43,682.17L716.26,682.17L718.1,682.17L719.94,682.55L721.78,682.55L723.61,682.55L725.45,682.55L727.29,682.55L729.12,682.75L730.96,682.75L732.8,682.75L734.63,682.75L736.47,682.96L738.31,682.96L740.15,682.96L741.98,682.96L743.82,682.96L745.66,683.47L747.49,683.47L749.33,683.47L751.17,683.47L753.01,683.88L754.84,683.88L756.68,683.88L758.52,683.88L760.35,683.88L762.19,683.88L764.03,683.88L765.86,683.88L767.7,683.88L769.54,683.88L771.38,683.88L773.21,684.9L775.05,684.9L776.89,684.9L778.72,684.9L780.56,684.9L782.4,684.9L784.24,684.9L786.07,684.9L787.91,684.9L789.75,684.9L791.58,684.9L793.42,684.9L795.26,684.9L797.09,684.9L798.93,684.9L800.77,684.9L802.61,684.9L804.44,684.9L806.28,684.9L808.12,684.9L809.95,684.9L811.79,684.9L813.63,684.9L815.46,684.9L817.3,685.84L819.14,685.84L820.98,685.84L822.81,685.84L824.65,686.23L826.49,686.23L828.32,686.23L830.16,686.23L832,686.23L833.84,686.23L835.67,686.25L837.51,686.25L839.35,686.25L841.18,686.25L843.02,686.25L844.86,686.25L846.69,686.32L848.53,686.32L850.37,686.32L852.21,686.32L854.04,686.32L855.88,686.32L857.72,686.32L859.55,686.32L861.39,686.32L863.23,686.33L865.07,686.33L866.9,686.33L868.74,687.08L870.58,687.08L872.41,687.08L874.25,687.08L876.09,687.08L877.92,687.08L879.76,687.08L881.6,687.08L883.44,687.09L885.27,687.59L887.11,687.61L888.95,687.71L890.78,687.71L892.62,687.71L894.46,687.71L896.3,688.28L898.13,688.28L899.97,688.28L901.81,688.28L903.64,688.28L905.48,688.93L907.32,688.93L909.15,689.15L910.99,689.15L912.83,689.15L914.67,689.15L916.5,689.15L918.34,689.15L920.18,689.15L922.01,689.15L923.85,689.15L925.69,689.15L927.52,689.15L929.36,689.15L931.2,689.18L933.04,689.18L934.87,689.18L936.71,689.18L938.55,689.19L940.38,689.19L942.22,689.19L944.06,689.39L945.9,689.39L947.73,689.39L949.57,689.39L951.41,689.39L953.24,689.39L955.08,689.39L956.92,689.39L958.75,689.41L960.59,689.41L962.43,689.41L964.27,689.73L966.1,689.73L967.94,689.73L969.78,689.73L971.61,689.73L973.45,689.73L975.29,689.83L977.13,689.83L978.96,689.83L980.8,689.83L982.64,690.12L984.47,690.12L986.31,690.43L988.15,690.43L989.98,690.43L991.82,690.43L993.66,690.69L995.5,691L997.33,691L999.17,691L1001,691L1002.8,691.31L1004.7,691.95L1006.5,692.05L1008.4,692.05L1010.2,692.05L1012,692.05L1013.9,692.54L1015.7,692.54L1017.5,692.75L1019.4,692.75L1021.2,692.75L1023.1,692.75L1024.9,692.75L1026.7,692.75L1028.6,692.75L1030.4,692.75L1032.2,692.75L1034.1,692.75L1035.9,692.75L1037.7,692.75L1039.6,692.75L1041.4,692.75L1043.3,692.79L1045.1,692.87L1046.9,692.87L1048.8,692.87L1050.6,692.89L1052.4,692.89L1054.3,692.89L1056.1,693.13L1058,693.13L1059.8,693.13L1061.6,698.51L1063.5,698.51L1065.3,698.51L1067.1,698.86L1069,698.86L1070.8,699.93L1072.7,699.93L1074.5,699.93L1076.3,699.93L1078.2,700.52L1080,700.75" style="fill:none;stroke:#5A9BD4;stroke-width:1.875;stroke-dasharray:2.5,2.5" />
<path d="M1055,693.4L1080,693.4" style="fill:none;stroke:#F15A60;stroke-width:1.875" />
<text x="918.26" y="-686.35" transform="scale(1, -1)"
	style="font-family:Helvetica;font-weight:normal;font-style:normal;font-size:12pt">etcd v3.1 (Go 1.7.4)</text>
<path d="M1055,678.7L1080,678.7" style="fill:none;stroke:#7AC36A;stroke-width:1.875;stroke-dasharray:7.5,2.5" />
<text x="875.74" y="-671.65" transform="scale(1, -1)"
	style="font-family:Helvetica;font-weight:normal;font-style:normal;font-size:12pt">Zookeeper v3.4.9 (Java 8)</text>
<path d="M1055,664L1080,664" style="fill:none;stroke:#5A9BD4;stroke-width:1.875;stroke-dasharray:2.5,2.5" />
<text x="887.41" y="-656.95" transform="scale(1, -1)"
	style="font-family:Helvetica;font-weight:normal;font-style:normal;font-size:12pt">Consul v0.7.3 (Go 1.7.3)</text>
</g>
</svg>
