<?xml version="1.0"?>
<!-- Generated by SVGo and Plotinum VG -->
<svg width="12in" height="8in"
	xmlns="http://www.w3.org/2000/svg"
	xmlns:xlink="http://www.w3.org/1999/xlink">
<g transform="scale(1, -1) translate(0, -720)">
<path d="M0,0L1080,0L1080,720L0,720Z" style="fill:#FFFFFF" />
<text x="269.32" y="-705.6" transform="scale(1, -1)"
	style="font-family:Helvetica;font-weight:normal;font-style:normal;font-size:12pt">Write 2M keys, 1000-client (etcd v3.1 100-conn), 8-byte key, 256-byte value, CPU</text>
<text x="544.98" y="-4.8486" transform="scale(1, -1)"
	style="font-family:Helvetica;font-weight:normal;font-style:normal;font-size:12pt">Second</text>
<text x="57.358" y="-19.498" transform="scale(1, -1)"
	style="font-family:Helvetica;font-weight:normal;font-style:normal;font-size:10pt">0</text>
<text x="235.37" y="-19.498" transform="scale(1, -1)"
	style="font-family:Helvetica;font-weight:normal;font-style:normal;font-size:10pt">100</text>
<text x="420.34" y="-19.498" transform="scale(1, -1)"
	style="font-family:Helvetica;font-weight:normal;font-style:normal;font-size:10pt">200</text>
<text x="605.31" y="-19.498" transform="scale(1, -1)"
	style="font-family:Helvetica;font-weight:normal;font-style:normal;font-size:10pt">300</text>
<text x="790.27" y="-19.498" transform="scale(1, -1)"
	style="font-family:Helvetica;font-weight:normal;font-style:normal;font-size:10pt">400</text>
<text x="975.24" y="-19.498" transform="scale(1, -1)"
	style="font-family:Helvetica;font-weight:normal;font-style:normal;font-size:10pt">500</text>
<path d="M60.834,31.498L60.834,41.498" style="fill:none;stroke:#000000;stroke-width:0.625" />
<path d="M245.8,31.498L245.8,41.498" style="fill:none;stroke:#000000;stroke-width:0.625" />
<path d="M430.77,31.498L430.77,41.498" style="fill:none;stroke:#000000;stroke-width:0.625" />
<path d="M615.73,31.498L615.73,41.498" style="fill:none;stroke:#000000;stroke-width:0.625" />
<path d="M800.7,31.498L800.7,41.498" style="fill:none;stroke:#000000;stroke-width:0.625" />
<path d="M985.67,31.498L985.67,41.498" style="fill:none;stroke:#000000;stroke-width:0.625" />
<path d="M153.32,36.498L153.32,41.498" style="fill:none;stroke:#000000;stroke-width:0.625" />
<path d="M338.28,36.498L338.28,41.498" style="fill:none;stroke:#000000;stroke-width:0.625" />
<path d="M523.25,36.498L523.25,41.498" style="fill:none;stroke:#000000;stroke-width:0.625" />
<path d="M708.22,36.498L708.22,41.498" style="fill:none;stroke:#000000;stroke-width:0.625" />
<path d="M893.18,36.498L893.18,41.498" style="fill:none;stroke:#000000;stroke-width:0.625" />
<path d="M1078.2,36.498L1078.2,41.498" style="fill:none;stroke:#000000;stroke-width:0.625" />
<path d="M60.834,41.498L1080,41.498" style="fill:none;stroke:#000000;stroke-width:0.625" />
<g transform="rotate(90)">
<text x="358.57" y="14.399" transform="scale(1, -1)"
	style="font-family:Helvetica;font-weight:normal;font-style:normal;font-size:12pt">CPU</text>
</g>
<text x="19.248" y="-215.05" transform="scale(1, -1)"
	style="font-family:Helvetica;font-weight:normal;font-style:normal;font-size:10pt">100</text>
<text x="19.248" y="-391.56" transform="scale(1, -1)"
	style="font-family:Helvetica;font-weight:normal;font-style:normal;font-size:10pt">200</text>
<text x="19.248" y="-568.06" transform="scale(1, -1)"
	style="font-family:Helvetica;font-weight:normal;font-style:normal;font-size:10pt">300</text>
<path d="M43.577,220.93L53.577,220.93" style="fill:none;stroke:#000000;stroke-width:0.625" />
<path d="M43.577,397.43L53.577,397.43" style="fill:none;stroke:#000000;stroke-width:0.625" />
<path d="M43.577,573.93L53.577,573.93" style="fill:none;stroke:#000000;stroke-width:0.625" />
<path d="M48.577,132.68L53.577,132.68" style="fill:none;stroke:#000000;stroke-width:0.625" />
<path d="M48.577,309.18L53.577,309.18" style="fill:none;stroke:#000000;stroke-width:0.625" />
<path d="M48.577,485.68L53.577,485.68" style="fill:none;stroke:#000000;stroke-width:0.625" />
<path d="M48.577,662.19L53.577,662.19" style="fill:none;stroke:#000000;stroke-width:0.625" />
<path d="M53.577,48.06L53.577,700.75" style="fill:none;stroke:#000000;stroke-width:0.625" />
<path d="M60.834,48.06L62.683,133.52L64.533,204.53L66.383,263.66L68.232,312.07L70.082,352.42L71.932,387.25L73.781,416.32L75.631,441.82L77.481,463.41L79.33,482.66L81.18,501L83.03,517.1L84.879,531.36L86.729,543.66L88.579,554.84L90.428,565.57L92.278,575.15L94.128,583.96L95.977,592.33L97.827,600.97L99.677,607.98L101.53,614.53L103.38,619.91L105.23,625.7L107.08,631.26L108.93,635.98L110.77,640.99L112.62,645.07L114.47,649.71L116.32,654.58L118.17,658.16L120.02,661.29L121.87,665.13L123.72,668.36L125.57,671.26L127.42,674.12L129.27,676.82L131.12,679.29L132.97,682.34L134.82,684.27L136.67,686.1L138.52,688.79L140.37,691.22L142.22,693.73L144.07,695.69L145.92,697.17L147.77,698.78L149.62,700.75" style="fill:none;stroke:#F15A60;stroke-width:1.875" />
<path d="M60.834,148.83L62.683,215.31L64.533,262.39L66.383,306.8L68.232,341.36L70.082,371.52L71.932,394.02L73.781,414.11L75.631,438.38L77.481,456.61L79.33,473.2L81.18,474.7L83.03,487.38L84.879,508.63L86.729,517.79L88.579,527.09L90.428,536.3L92.278,545.46L94.128,553.2L95.977,558.63L97.827,556.8L99.677,563.03L101.53,577.55L103.38,582.34L105.23,589.64L107.08,593.83L108.93,588.32L110.77,585.83L112.62,584.37L114.47,571.75L116.32,559.8L118.17,547.88L120.02,535.83L121.87,525.96L123.72,524.81L125.57,527.6L127.42,531.64L129.27,536.69L131.12,542L132.97,545.78L134.82,547.97L136.67,550.39L138.52,550.19L140.37,549.97L142.22,549.89L144.07,549.17L145.92,554.06L147.77,562.18L149.62,568.41L151.47,571.73" style="fill:none;stroke:#7AC36A;stroke-width:1.875;stroke-dasharray:7.5,2.5" />
<path d="M60.834,79.531L62.683,125.62L64.533,162.59L66.383,192.72L68.232,216.87L70.082,238.05L71.932,253.55L73.781,267.42L75.631,281.79L77.481,293.06L79.33,302.58L81.18,311.62L83.03,318.98L84.879,325.36L86.729,332.42L88.579,339.82L90.428,343.05L92.278,344.71L94.128,345.63L95.977,348.45L97.827,352.85L99.677,356.73L101.53,360.84L103.38,364.99L105.23,368.86L107.08,372.54L108.93,370.51L110.77,372.74L112.62,376.02L114.47,378.72L116.32,381.6L118.17,383.66L120.02,386.24L121.87,389.33L123.72,390.58L125.57,392.1L127.42,393.69L129.27,392.97L131.12,395.35L132.97,395L134.82,398.14L136.67,399.23L138.52,400.01L140.37,402.11L142.22,399.44L144.07,396.09L145.92,395.49L147.77,393.58L149.62,390.65L151.47,387.3L153.32,386.95L155.17,383.61L157.02,380.17L158.87,376.73L160.72,373.43L162.57,373.2L164.42,370.5L166.26,367.57L168.11,364.72L169.96,362.01L171.81,361.51L173.66,359.39L175.51,357.22L177.36,354.96L179.21,353.29L181.06,352.25L182.91,350.08L184.76,347.67L186.61,345.54L188.46,343.77L190.31,342.4L192.16,342.38L194.01,340.97L195.86,339.33L197.71,337.58L199.56,336.47L201.41,336.33L203.26,334.7L205.11,332.88L206.96,331.19L208.81,330.06L210.66,331.47L212.51,332.65L214.36,334.35L216.21,336.03L218.06,337.33L219.91,339.56L221.75,339.94L223.6,341.07L225.45,343.16L227.3,342.57L229.15,342.54L231,344.27L232.85,344.83L234.7,343.88L236.55,344.97L238.4,346.69L240.25,346.67L242.1,347.34L243.95,348.49L245.8,350.36L247.65,350.96L249.5,351.86L251.35,353.41L253.2,355.18L255.05,356.04L256.9,356.96L258.75,358.92L260.6,360.7L262.45,361.6L264.3,362.8L266.15,363.51L268,362.5L269.85,361L271.7,359.52L273.55,358.34L275.4,359.43L277.24,360.93L279.09,362.06L280.94,361.44L282.79,360.95L284.64,361.71L286.49,363.15L288.34,363.42L290.19,362.43L292.04,362.82L293.89,363.31L295.74,364.71L297.59,365.11L299.44,365.31L301.29,366.14L303.14,367.81L304.99,368.77L306.84,370.57L308.69,372.21L310.54,373.48L312.39,374.36L314.24,375.58L316.09,375.92L317.94,374.79L319.79,374.19L321.64,373.59L323.49,372.63L325.34,371.75L327.19,371.2L329.04,370.73L330.89,370.41L332.73,371.64L334.58,372.16L336.43,371.01L338.28,369.67L340.13,368.36L341.98,367.76L343.83,366.45L345.68,365.17L347.53,364.07L349.38,364.95L351.23,365.38L353.08,365.41L354.93,364.94L356.78,363.82L358.63,362.64L360.48,361.48L362.33,360.21L364.18,360.47L366.03,360.89L367.88,361.94L369.73,361.48L371.58,361.87L373.43,362.41L375.28,363.45L377.13,363.81L378.98,364.55L380.83,365.24L382.68,364.76L384.53,363.44L386.38,363.01L388.22,362.64L390.07,362.11L391.92,361.88L393.77,361.62L395.62,361.48L397.47,361.19L399.32,360.75L401.17,360.79L403.02,360.22L404.87,360.14L406.72,359.8L408.57,360.07L410.42,360.15L412.27,359.59L414.12,359.11L415.97,358.94L417.82,358.28L419.67,357.51L421.52,356.45L423.37,356.25L425.22,356.01L427.07,354.65L428.92,354.06L430.77,352.71L432.62,351.36L434.47,350.02L436.32,348.95L438.17,347.82L440.02,346.74L441.87,346.26L443.71,346.02L445.56,344.9L447.41,343.79L449.26,342.82L451.11,342.98L452.96,341.92L454.81,340.83L456.66,340.16L458.51,339.87L460.36,339.04L462.21,338.16L464.06,337.7L465.91,337.17L467.76,336.33L469.61,335.28L471.46,334.95L473.31,334.42L475.16,334L477.01,333.08L478.86,332.69L480.71,332.02L482.56,331.74L484.41,330.84L486.26,330.47L488.11,329.85L489.96,328.95L491.81,328.58L493.66,328.17L495.51,327.55L497.36,326.67L499.2,326.26L501.05,325.96L502.9,325.33L504.75,324.5L506.6,323.65L508.45,323.79L510.3,323.23L512.15,322.42L514,321.62L515.85,321.46L517.7,321.27L519.55,320.48L521.4,319.75L523.25,319.43L525.1,319.4L526.95,318.62L528.8,318.08L530.65,317.53L532.5,317.02L534.35,316.8L536.2,316.24L538.05,315.71L539.9,315.2L541.75,314.99L543.6,314.37L545.45,313.96L547.3,313.45L549.15,312.71L551,312.44L552.85,312.2L554.69,311.7L556.54,310.96L558.39,310.2L560.24,309.96L562.09,309.9L563.94,309.13L565.79,308.37L567.64,307.59L569.49,307.75L571.34,307.11L573.19,306.34L575.04,305.58L576.89,304.94L578.74,305.14L580.59,304.38L582.44,303.62L584.29,302.88L586.14,302.37L587.99,302.6L589.84,301.85L591.69,301.11L593.54,300.62L595.39,299.9L597.24,300.05L599.09,299.35L600.94,298.85L602.79,298.15L604.64,297.42L606.49,297.46L608.34,296.89L610.18,296.45L612.03,295.75L613.88,295.06L615.73,295.24L617.58,295.02L619.43,294.53L621.28,294.02L623.13,293.98L624.98,293.84L626.83,293.54L628.68,293.49L630.53,293.01L632.38,292.48L634.23,292.32L636.08,291.81L637.93,291.72L639.78,291.21L641.63,290.89L643.48,290.65L645.33,290.19L647.18,290.17L649.03,289.68L650.88,289.43L652.73,289.08L654.58,288.48L656.43,288.3L658.28,287.73L660.13,287.72L661.98,287.17L663.83,286.64L665.67,286.52L667.52,285.99L669.37,286.04L671.22,285.51L673.07,284.95L674.92,284.42L676.77,283.87L678.62,283.55L680.47,282.88L682.32,282.21L684.17,281.61L686.02,281.12L687.87,280.71L689.72,281.03L691.57,280.99L693.42,280.64L695.27,280.29L697.12,280.46L698.97,280.23L700.82,279.92L702.67,279.42L704.52,279.3L706.37,279.09L708.22,279.03L710.07,278.57L711.92,278.1L713.77,277.87L715.62,277.71L717.47,277.59L719.32,277.13L721.16,276.69L723.01,276.58L724.86,276.42L726.71,276.19L728.56,275.75L730.41,275.61L732.26,275.2L734.11,275.2L735.96,274.92L737.81,274.5L739.66,274.39L741.51,273.93L743.36,274.07L745.21,273.58L747.06,273.08L748.91,272.71L750.76,272.43L752.61,272.38L754.46,272.22L756.31,272.48L758.16,272.22L760.01,271.95L761.86,272.1L763.71,271.8L765.56,271.71L767.41,271.3L769.26,270.9L771.11,270.9L772.96,270.65L774.81,270.56L776.65,270.15L778.5,269.94L780.35,269.71L782.2,269.59L784.05,269.45L785.9,269.06L787.75,268.83L789.6,268.64L791.45,268.6L793.3,268.34L795.15,268.12L797,267.74L798.85,267.51L800.7,267.65L802.55,267.3L804.4,267.08L806.25,266.71L808.1,266.32L809.95,266.64L811.8,266.17L813.65,265.72L815.5,265.67L817.35,265.35L819.2,265.74L821.05,265.42L822.9,265.23L824.75,264.86L826.6,264.51L828.45,264.82L830.3,264.47L832.14,264.29L833.99,263.92L835.84,263.57L837.69,263.85L839.54,263.62L841.39,263.34L843.24,262.99L845.09,262.62L846.94,262.69L848.79,262.69L850.64,262.35L852.49,262L854.34,261.77L856.19,262.19L858.04,262.18L859.89,261.96L861.74,261.77L863.59,261.95L865.44,262.04L867.29,261.96L869.14,261.68L870.99,261.72L872.84,261.4L874.69,261.4L876.54,261.24L878.39,260.92L880.24,260.99L882.09,260.68L883.94,260.64L885.79,260.31L887.63,260.15L889.48,260.18L891.33,259.85L893.18,259.76L895.03,259.53L896.88,259.37L898.73,259.14L900.58,259.07L902.43,258.81L904.28,258.73L906.13,258.42L907.98,258.28L909.83,258.33L911.68,258.01L913.53,257.99L915.38,257.62L917.23,257.18L919.08,256.78L920.93,256.26L922.78,255.84L924.63,255.42L926.48,254.99L928.33,254.57L930.18,254.5L932.03,254.38L933.88,254.41L935.73,254.11L937.58,253.79L939.43,253.53L941.28,253.49L943.12,253.4L944.97,253.4L946.82,253.1L948.67,252.82L950.52,252.84L952.37,252.72L954.22,252.7L956.07,252.42L957.92,252.13L959.77,251.85L961.62,251.87L963.47,251.76L965.32,251.82L967.17,251.53L969.02,251.25L970.87,251.29L972.72,251.07L974.57,250.95L976.42,250.86L978.27,250.72L980.12,250.44L981.97,250.44L983.82,250.28L985.67,250.07L987.52,250.12L989.37,249.86L991.22,249.61L993.07,249.64L994.92,249.54L996.77,249.42L998.61,249.36L1000.5,249.1L1002.3,249.08L1004.2,248.89L1006,248.78L1007.9,248.85L1009.7,248.59L1011.6,248.34L1013.4,248.41L1015.3,248.14L1017.1,248.07L1019,248.09L1020.8,247.84L1022.7,247.58L1024.5,247.58L1026.4,247.33L1028.2,247.53L1030.1,247.28L1031.9,247.03L1033.8,246.77L1035.6,246.77L1037.5,246.56L1039.3,246.87L1041.2,246.73L1043,246.59L1044.9,246.79L1046.7,246.73L1048.6,246.68L1050.4,246.71L1052.3,246.61L1054.1,246.36L1056,246.41L1057.8,246.17L1059.7,246.24L1061.5,246.13L1063.4,245.9L1065.2,245.66L1067.1,245.71L1068.9,245.48L1070.8,245.74L1072.6,245.51L1074.5,245.29L1076.3,245.06L1078.2,245.14L1080,245.13" style="fill:none;stroke:#5A9BD4;stroke-width:1.875;stroke-dasharray:2.5,2.5" />
<path d="M1055,693.4L1080,693.4" style="fill:none;stroke:#F15A60;stroke-width:1.875" />
<text x="918.26" y="-686.35" transform="scale(1, -1)"
	style="font-family:Helvetica;font-weight:normal;font-style:normal;font-size:12pt">etcd v3.1 (Go 1.7.4)</text>
<path d="M1055,678.7L1080,678.7" style="fill:none;stroke:#7AC36A;stroke-width:1.875;stroke-dasharray:7.5,2.5" />
<text x="875.74" y="-671.65" transform="scale(1, -1)"
	style="font-family:Helvetica;font-weight:normal;font-style:normal;font-size:12pt">Zookeeper v3.4.9 (Java 8)</text>
<path d="M1055,664L1080,664" style="fill:none;stroke:#5A9BD4;stroke-width:1.875;stroke-dasharray:2.5,2.5" />
<text x="887.41" y="-656.95" transform="scale(1, -1)"
	style="font-family:Helvetica;font-weight:normal;font-style:normal;font-size:12pt">Consul v0.7.1 (Go 1.7.3)</text>
</g>
</svg>
