<?xml version="1.0"?>
<!-- Generated by SVGo and Plotinum VG -->
<svg width="12in" height="8in"
	xmlns="http://www.w3.org/2000/svg"
	xmlns:xlink="http://www.w3.org/1999/xlink">
<g transform="scale(1, -1) translate(0, -720)">
<path d="M0,0L1080,0L1080,720L0,720Z" style="fill:#FFFFFF" />
<text x="269.32" y="-705.6" transform="scale(1, -1)"
	style="font-family:Helvetica;font-weight:normal;font-style:normal;font-size:12pt">Write 2M keys, 1000-client (etcd v3.1 100-conn), 8-byte key, 256-byte value, CPU</text>
<text x="544.98" y="-4.8486" transform="scale(1, -1)"
	style="font-family:Helvetica;font-weight:normal;font-style:normal;font-size:12pt">Second</text>
<text x="57.358" y="-19.498" transform="scale(1, -1)"
	style="font-family:Helvetica;font-weight:normal;font-style:normal;font-size:10pt">0</text>
<text x="267.71" y="-19.498" transform="scale(1, -1)"
	style="font-family:Helvetica;font-weight:normal;font-style:normal;font-size:10pt">100</text>
<text x="485.02" y="-19.498" transform="scale(1, -1)"
	style="font-family:Helvetica;font-weight:normal;font-style:normal;font-size:10pt">200</text>
<text x="702.32" y="-19.498" transform="scale(1, -1)"
	style="font-family:Helvetica;font-weight:normal;font-style:normal;font-size:10pt">300</text>
<text x="919.63" y="-19.498" transform="scale(1, -1)"
	style="font-family:Helvetica;font-weight:normal;font-style:normal;font-size:10pt">400</text>
<path d="M60.834,31.498L60.834,41.498" style="fill:none;stroke:#000000;stroke-width:0.625" />
<path d="M278.14,31.498L278.14,41.498" style="fill:none;stroke:#000000;stroke-width:0.625" />
<path d="M495.45,31.498L495.45,41.498" style="fill:none;stroke:#000000;stroke-width:0.625" />
<path d="M712.75,31.498L712.75,41.498" style="fill:none;stroke:#000000;stroke-width:0.625" />
<path d="M930.06,31.498L930.06,41.498" style="fill:none;stroke:#000000;stroke-width:0.625" />
<path d="M169.49,36.498L169.49,41.498" style="fill:none;stroke:#000000;stroke-width:0.625" />
<path d="M386.79,36.498L386.79,41.498" style="fill:none;stroke:#000000;stroke-width:0.625" />
<path d="M604.1,36.498L604.1,41.498" style="fill:none;stroke:#000000;stroke-width:0.625" />
<path d="M821.41,36.498L821.41,41.498" style="fill:none;stroke:#000000;stroke-width:0.625" />
<path d="M1038.7,36.498L1038.7,41.498" style="fill:none;stroke:#000000;stroke-width:0.625" />
<path d="M60.834,41.498L1080,41.498" style="fill:none;stroke:#000000;stroke-width:0.625" />
<g transform="rotate(90)">
<text x="358.57" y="14.399" transform="scale(1, -1)"
	style="font-family:Helvetica;font-weight:normal;font-style:normal;font-size:12pt">CPU</text>
</g>
<text x="19.248" y="-218.29" transform="scale(1, -1)"
	style="font-family:Helvetica;font-weight:normal;font-style:normal;font-size:10pt">100</text>
<text x="19.248" y="-396.68" transform="scale(1, -1)"
	style="font-family:Helvetica;font-weight:normal;font-style:normal;font-size:10pt">200</text>
<text x="19.248" y="-575.07" transform="scale(1, -1)"
	style="font-family:Helvetica;font-weight:normal;font-style:normal;font-size:10pt">300</text>
<path d="M43.577,224.17L53.577,224.17" style="fill:none;stroke:#000000;stroke-width:0.625" />
<path d="M43.577,402.56L53.577,402.56" style="fill:none;stroke:#000000;stroke-width:0.625" />
<path d="M43.577,580.95L53.577,580.95" style="fill:none;stroke:#000000;stroke-width:0.625" />
<path d="M48.577,134.97L53.577,134.97" style="fill:none;stroke:#000000;stroke-width:0.625" />
<path d="M48.577,313.36L53.577,313.36" style="fill:none;stroke:#000000;stroke-width:0.625" />
<path d="M48.577,491.75L53.577,491.75" style="fill:none;stroke:#000000;stroke-width:0.625" />
<path d="M48.577,670.14L53.577,670.14" style="fill:none;stroke:#000000;stroke-width:0.625" />
<path d="M53.577,48.06L53.577,700.75" style="fill:none;stroke:#000000;stroke-width:0.625" />
<path d="M60.834,49.523L63.007,137.56L65.18,208.59L67.353,262.52L69.526,311.74L71.699,353.37L73.872,388.09L76.045,417.81L78.218,442.09L80.391,464.05L82.564,483.76L84.737,500.83L86.91,515.35L89.084,525.25L91.257,537.76L93.43,549.99L95.603,560.18L97.776,569.64L99.949,578.14L102.12,587.71L104.29,595.22L106.47,602.41L108.64,609.36L110.81,614.22L112.99,619.32L115.16,624.67L117.33,630.43L119.51,635.19L121.68,638.83L123.85,643.27L126.03,647.82L128.2,651.3L130.37,656.26L132.54,659.87L134.72,663.25L136.89,667.04L139.06,669.69L141.24,672.71L143.41,675.58L145.58,678.45L147.76,681.04L149.93,683.68L152.1,686L154.28,688.62L156.45,690.44L158.62,692.76L160.79,695.24L162.97,696.74L165.14,698.43L167.31,700.75" style="fill:none;stroke:#F15A60;stroke-width:1.875" />
<path d="M60.834,60.298L63.007,148.78L65.18,205.49L67.353,251.17L69.526,295.38L71.699,324.81L73.872,351.91L76.045,381.26L78.218,393.48L80.391,420.72L82.564,432.1L84.737,444.5L86.91,456.39L89.084,459.98L91.257,463.74L93.43,465.05L95.603,486.92L97.776,490.59L99.949,496.69L102.12,500.22L104.29,505.84L106.47,507.9L108.64,515.87L110.81,519.22L112.99,522.75L115.16,529.12L117.33,541.79L119.51,541.82L121.68,544.63L123.85,552.9L126.03,551.67L128.2,551.39L130.37,548.28L132.54,537.36L134.72,526.55L136.89,515.65L139.06,505.02L141.24,494.64L143.41,490.43L145.58,495.44L147.76,501.19L149.93,506.97L152.1,512.44L154.28,518.01L156.45,520.01L158.62,524.86L160.79,527.87L162.97,529.77L165.14,527.84L167.31,532.49L169.49,539.4L171.66,542.81L173.83,544.38L176.01,547.5L178.18,549.94" style="fill:none;stroke:#7AC36A;stroke-width:1.875;stroke-dasharray:7.5,2.5" />
<path d="M60.834,48.06L63.007,95.137L65.18,135.17L67.353,169.42L69.526,196.73L71.699,219.96L73.872,238.71L76.045,255.19L78.218,270.21L80.391,282.37L82.564,293.27L84.737,302.37L86.91,311.79L89.084,320.62L91.257,327.88L93.43,335.02L95.603,341.28L97.776,346.33L99.949,351.84L102.12,356.17L104.29,360.42L106.47,363.83L108.64,368.75L110.81,371.77L112.99,375.05L115.16,378.67L117.33,381.51L119.51,383.74L121.68,386.95L123.85,390.23L126.03,391.73L128.2,393.62L130.37,396.01L132.54,397.67L134.72,399.2L136.89,401.25L139.06,402.79L141.24,405.2L143.41,406.98L145.58,408.07L147.76,409.67L149.93,410.9L152.1,412.64L154.28,413.79L156.45,415.15L158.62,416.54L160.79,418L162.97,419.43L165.14,420.56L167.31,421.77L169.49,422.25L171.66,423.66L173.83,424.71L176.01,426.12L178.18,427.19L180.35,427.42L182.53,428.6L184.7,430.03L186.87,430.47L189.04,430.81L191.22,431.85L193.39,432.6L195.56,432.79L197.74,433.74L199.91,435.01L202.08,434.84L204.26,435.52L206.43,435.97L208.6,436.82L210.78,438.09L212.95,437.84L215.12,438.79L217.29,439.57L219.47,440.2L221.64,441.27L223.81,441.41L225.99,442.18L228.16,442.48L230.33,443.34L232.51,444.41L234.68,444.91L236.85,445.33L239.02,445.78L241.2,446.81L243.37,447.22L245.54,448.49L247.72,448.76L249.89,449.56L252.06,449.63L254.24,450.56L256.41,451.17L258.58,451.38L260.76,452.45L262.93,452.81L265.1,453.56L267.27,453.45L269.45,454.66L271.62,454.79L273.79,455.31L275.97,456.06L278.14,456.43L280.31,457.29L282.49,457.23L284.66,458.64L286.83,458.75L289.01,459.14L291.18,459.57L293.35,459.71L295.52,460.68L297.7,460.55L299.87,461.09L302.04,461.51L304.22,461.42L306.39,462.32L308.56,462.21L310.74,462.32L312.91,463.49L315.08,462.98L317.26,463.07L319.43,462.28L321.6,461.5L323.77,460.34L325.95,459.64L328.12,462.26L330.29,461.19L332.47,459.96L334.64,459.02L336.81,458.48L338.99,457.95L341.16,458.62L343.33,458.36L345.5,460.23L347.68,461.41L349.85,461.96L352.02,463.6L354.2,465.3L356.37,464.3L358.54,462.26L360.72,461.78L362.89,460.37L365.06,459.05L367.24,458.23L369.41,456.91L371.58,457.55L373.75,455.89L375.93,456L378.1,454.41L380.27,455.06L382.45,453.45L384.62,453.38L386.79,451.51L388.97,449.31L391.14,448.78L393.31,446.51L395.49,444.23L397.66,442.93L399.83,441.21L402,439.91L404.18,437.77L406.35,435.67L408.52,434.47L410.7,433.22L412.87,431.62L415.04,429.47L417.22,427.32L419.39,425.19L421.56,423.05L423.74,420.95L425.91,419.54L428.08,417.63L430.25,415.72L432.43,413.87L434.6,413.44L436.77,412.26L438.95,410.44L441.12,408.67L443.29,406.89L445.47,406.52L447.64,405.39L449.81,403.68L451.98,401.97L454.16,400.27L456.33,399.99L458.5,398.88L460.68,397.24L462.85,395.6L465.02,394.58L467.2,394.14L469.37,392.67L471.54,391.09L473.72,389.53L475.89,388.59L478.06,388.25L480.23,386.72L482.41,385.2L484.58,383.72L486.75,382.79L488.93,382.52L491.1,381.06L493.27,379.63L495.45,378.62L497.62,377.35L499.79,377.12L501.97,375.74L504.14,374.35L506.31,373.55L508.48,372.18L510.66,372L512.83,370.66L515,369.34L517.18,368.54L519.35,367.23L521.52,367.13L523.7,365.84L525.87,364.7L528.04,363.85L530.22,362.7L532.39,362.61L534.56,361.53L536.73,360.96L538.91,359.83L541.08,358.73L543.25,358.39L545.43,357.66L547.6,357.08L549.77,356.01L551.95,355.35L554.12,354.46L556.29,354.46L558.47,353.43L560.64,352.39L562.81,351.95L564.98,350.93L567.16,350.97L569.33,349.95L571.5,348.97L573.68,348.52L575.85,347.99L578.02,347.59L580.2,346.63L582.37,345.67L584.54,345.28L586.71,344.83L588.89,344.31L591.06,343.47L593.23,343.03L595.41,342.19L597.58,341.76L599.75,340.85L601.93,340.46L604.1,340.08L606.27,339.67L608.45,338.82L610.62,337.94L612.79,337.52L614.96,337.21L617.14,336.82L619.31,335.98L621.48,335.12L623.66,334.75L625.83,334.54L628,334.05L630.18,333.23L632.35,332.41L634.52,331.65L636.7,332.18L638.87,331.38L641.04,330.58L643.21,329.77L645.39,329.34L647.56,329.61L649.73,328.83L651.91,328.06L654.08,327.29L656.25,326.97L658.43,326.85L660.6,326.38L662.77,325.63L664.95,324.89L667.12,324.9L669.29,324.33L671.46,324.03L673.64,323.32L675.81,322.58L677.98,322.76L680.16,322.07L682.33,321.62L684.5,321.1L686.68,320.53L688.85,320.92L691.02,320.59L693.19,320.39L695.37,319.89L697.54,319.39L699.71,320.21L701.89,319.66L704.06,318.98L706.23,318.3L708.41,318.07L710.58,318.3L712.75,317.64L714.93,317L717.1,316.54L719.27,316.13L721.44,316.38L723.62,315.73L725.79,315.11L727.96,314.86L730.14,314.25L732.31,314.5L734.48,313.88L736.66,313.58L738.83,313.06L741,312.54L743.18,312.68L745.35,312.08L747.52,311.9L749.69,311.31L751.87,310.85L754.04,310.95L756.21,310.31L758.39,309.6L760.56,309.47L762.73,309.37L764.91,309.17L767.08,309.04L769.25,308.46L771.43,307.9L773.6,307.72L775.77,307.72L777.94,307.42L780.12,306.87L782.29,306.31L784.46,306.17L786.64,306.1L788.81,305.92L790.98,305.39L793.16,304.98L795.33,305.08L797.5,305.05L799.67,305.08L801.85,305.08L804.02,304.73L806.19,304.76L808.37,304.35L810.54,304.58L812.71,304.12L814.89,303.75L817.06,303.76L819.23,303.94L821.41,303.82L823.58,303.46L825.75,303.64L827.92,303.51L830.1,303.1L832.27,302.93L834.44,302.41L836.62,302.6L838.79,302.23L840.96,301.71L843.14,301.61L845.31,301.09L847.48,300.77L849.66,300.95L851.83,300.43L854,300.29L856.17,299.79L858.35,299.25L860.52,299.09L862.69,298.91L864.87,298.38L867.04,297.86L869.21,297.32L871.39,297L873.56,296.66L875.73,296.54L877.91,296.04L880.08,295.52L882.25,295.29L884.42,294.7L886.6,294.1L888.77,293.49L890.94,292.88L893.12,292.28L895.29,291.67L897.46,291.08L899.64,290.92L901.81,290.85L903.98,290.58L906.16,290.28L908.33,289.83L910.5,289.71L912.67,289.23L914.85,289.19L917.02,288.92L919.19,288.65L921.37,288.32L923.54,288.14L925.71,288.05L927.89,287.62L930.06,287.39L932.23,287.1L934.4,287.01L936.58,286.58L938.75,286.55L940.92,286.12L943.1,285.85L945.27,285.98L947.44,285.55L949.62,285.37L951.79,285.07L953.96,284.66L956.14,284.37L958.31,284.52L960.48,284.11L962.65,284.05L964.83,283.64L967,283.23L969.17,283.18L971.35,283.12L973.52,282.95L975.69,282.68L977.87,282.27L980.04,282.04L982.21,281.79L984.39,281.86L986.56,281.84L988.73,281.45L990.9,281.05L993.08,280.72L995.25,280.73L997.42,280.34L999.6,280.63L1001.8,280.25L1003.9,279.88L1006.1,279.73L1008.3,279.45L1010.5,279.41L1012.6,279.4L1014.8,279.02L1017,278.65L1019.2,278.61L1021.3,278.24L1023.5,278.22L1025.7,278.16L1027.8,277.81L1030,277.65L1032.2,277.42L1034.4,277.17L1036.5,277.04L1038.7,276.76L1040.9,276.67L1043.1,276.63L1045.2,276.27L1047.4,276.26L1049.6,275.92L1051.8,275.56L1053.9,275.7L1056.1,275.6L1058.3,275.33L1060.4,274.97L1062.6,274.97L1064.8,274.63L1067,274.95L1069.1,274.62L1071.3,274.28L1073.5,273.94L1075.7,273.94L1077.8,273.6L1080,273.67" style="fill:none;stroke:#5A9BD4;stroke-width:1.875;stroke-dasharray:2.5,2.5" />
<path d="M1055,693.4L1080,693.4" style="fill:none;stroke:#F15A60;stroke-width:1.875" />
<text x="918.26" y="-686.35" transform="scale(1, -1)"
	style="font-family:Helvetica;font-weight:normal;font-style:normal;font-size:12pt">etcd v3.1 (Go 1.7.3)</text>
<path d="M1055,678.7L1080,678.7" style="fill:none;stroke:#7AC36A;stroke-width:1.875;stroke-dasharray:7.5,2.5" />
<text x="875.74" y="-671.65" transform="scale(1, -1)"
	style="font-family:Helvetica;font-weight:normal;font-style:normal;font-size:12pt">Zookeeper v3.4.9 (Java 8)</text>
<path d="M1055,664L1080,664" style="fill:none;stroke:#5A9BD4;stroke-width:1.875;stroke-dasharray:2.5,2.5" />
<text x="887.41" y="-656.95" transform="scale(1, -1)"
	style="font-family:Helvetica;font-weight:normal;font-style:normal;font-size:12pt">Consul v0.7.1 (Go 1.7.3)</text>
</g>
</svg>
