<?xml version="1.0"?>
<!-- Generated by SVGo and Plotinum VG -->
<svg width="12in" height="8in"
	xmlns="http://www.w3.org/2000/svg"
	xmlns:xlink="http://www.w3.org/1999/xlink">
<g transform="scale(1, -1) translate(0, -720)">
<path d="M0,0L1080,0L1080,720L0,720Z" style="fill:#FFFFFF" />
<text x="246.93" y="-705.6" transform="scale(1, -1)"
	style="font-family:Helvetica;font-weight:normal;font-style:normal;font-size:12pt">Write 2M keys, 1000-client (etcd v3.1 100-conn), 8-byte key, 256-byte value, Throughput</text>
<text x="552.11" y="-4.8486" transform="scale(1, -1)"
	style="font-family:Helvetica;font-weight:normal;font-style:normal;font-size:12pt">Second</text>
<text x="71.609" y="-19.498" transform="scale(1, -1)"
	style="font-family:Helvetica;font-weight:normal;font-style:normal;font-size:10pt">0</text>
<text x="278.47" y="-19.498" transform="scale(1, -1)"
	style="font-family:Helvetica;font-weight:normal;font-style:normal;font-size:10pt">100</text>
<text x="492.28" y="-19.498" transform="scale(1, -1)"
	style="font-family:Helvetica;font-weight:normal;font-style:normal;font-size:10pt">200</text>
<text x="706.09" y="-19.498" transform="scale(1, -1)"
	style="font-family:Helvetica;font-weight:normal;font-style:normal;font-size:10pt">300</text>
<text x="919.9" y="-19.498" transform="scale(1, -1)"
	style="font-family:Helvetica;font-weight:normal;font-style:normal;font-size:10pt">400</text>
<path d="M75.085,31.498L75.085,41.498" style="fill:none;stroke:#000000;stroke-width:0.625" />
<path d="M288.9,31.498L288.9,41.498" style="fill:none;stroke:#000000;stroke-width:0.625" />
<path d="M502.71,31.498L502.71,41.498" style="fill:none;stroke:#000000;stroke-width:0.625" />
<path d="M716.52,31.498L716.52,41.498" style="fill:none;stroke:#000000;stroke-width:0.625" />
<path d="M930.33,31.498L930.33,41.498" style="fill:none;stroke:#000000;stroke-width:0.625" />
<path d="M181.99,36.498L181.99,41.498" style="fill:none;stroke:#000000;stroke-width:0.625" />
<path d="M395.8,36.498L395.8,41.498" style="fill:none;stroke:#000000;stroke-width:0.625" />
<path d="M609.61,36.498L609.61,41.498" style="fill:none;stroke:#000000;stroke-width:0.625" />
<path d="M823.43,36.498L823.43,41.498" style="fill:none;stroke:#000000;stroke-width:0.625" />
<path d="M1037.2,36.498L1037.2,41.498" style="fill:none;stroke:#000000;stroke-width:0.625" />
<path d="M75.085,41.498L1080,41.498" style="fill:none;stroke:#000000;stroke-width:0.625" />
<g transform="rotate(90)">
<text x="336.05" y="14.399" transform="scale(1, -1)"
	style="font-family:Helvetica;font-weight:normal;font-style:normal;font-size:12pt">Throughput</text>
</g>
<text x="47.404" y="-42.186" transform="scale(1, -1)"
	style="font-family:Helvetica;font-weight:normal;font-style:normal;font-size:10pt">0</text>
<text x="19.248" y="-252.39" transform="scale(1, -1)"
	style="font-family:Helvetica;font-weight:normal;font-style:normal;font-size:10pt">2e+04</text>
<text x="19.248" y="-462.59" transform="scale(1, -1)"
	style="font-family:Helvetica;font-weight:normal;font-style:normal;font-size:10pt">4e+04</text>
<text x="19.248" y="-672.8" transform="scale(1, -1)"
	style="font-family:Helvetica;font-weight:normal;font-style:normal;font-size:10pt">6e+04</text>
<path d="M57.828,48.06L67.828,48.06" style="fill:none;stroke:#000000;stroke-width:0.625" />
<path d="M57.828,258.26L67.828,258.26" style="fill:none;stroke:#000000;stroke-width:0.625" />
<path d="M57.828,468.47L67.828,468.47" style="fill:none;stroke:#000000;stroke-width:0.625" />
<path d="M57.828,678.67L67.828,678.67" style="fill:none;stroke:#000000;stroke-width:0.625" />
<path d="M62.828,153.16L67.828,153.16" style="fill:none;stroke:#000000;stroke-width:0.625" />
<path d="M62.828,363.37L67.828,363.37" style="fill:none;stroke:#000000;stroke-width:0.625" />
<path d="M62.828,573.57L67.828,573.57" style="fill:none;stroke:#000000;stroke-width:0.625" />
<path d="M67.828,48.06L67.828,700.75" style="fill:none;stroke:#000000;stroke-width:0.625" />
<path d="M75.085,102.74L77.224,575.01L79.362,551.55L81.5,478.13L83.638,488.53L85.776,488.39L87.914,465.07L90.052,485.21L92.19,441.25L94.328,464.83L96.467,479.4L98.605,454.87L100.74,454.39L102.88,418.93L105.02,457.35L107.16,481.16L109.3,431.97L111.43,460.92L113.57,453.25L115.71,475.91L117.85,472.08L119.99,450.86L122.12,444.58L124.26,457.95L126.4,475.29L128.54,454.18L130.68,474.14L132.81,451.55L134.95,456.5L137.09,472.5L139.23,483.17L141.37,429.35L143.51,477.39L145.64,450.38L147.78,426.43L149.92,478.07L152.06,475.46L154.2,463.12L156.33,461.16L158.47,461.3L160.61,453.96L162.75,445.33L164.89,455.76L167.02,462.09L169.16,457.65L171.3,475.61L173.44,441.59L175.58,454.74L177.72,476.14L179.85,436.34L181.99,461.23" style="fill:none;stroke:#F15A60;stroke-width:1.875" />
<path d="M75.085,129.94L77.224,518.62L79.362,528.75L81.5,624.62L83.638,622.85L85.776,464.84L87.914,617.18L90.052,650.16L92.19,339.01L94.328,206.2L96.467,641.96L98.605,583.77L100.74,329.67L102.88,473.33L105.02,550.68L107.16,231.37L109.3,324.11L111.43,500.12L113.57,571.21L115.71,524.84L117.85,664.37L119.99,448.54L122.12,595.68L124.26,78.466L126.4,131.91L128.54,675.56L130.68,578.25L132.81,374.23L134.95,244.55L137.09,319.97L139.23,445.09L141.37,486.38L143.51,74.945L145.64,58.634L147.78,58.57L149.92,58.623L152.06,58.644L154.2,58.476L156.33,512.98L158.47,700.75L160.61,655.8L162.75,615.78L164.89,598.05L167.02,648.36L169.16,523.37L171.3,640.71L173.44,51.518L175.58,48.06L177.72,477.77L179.85,441.5L181.99,460.16L184.13,419.43L186.27,445.04L188.41,479.2L190.54,491.56L192.68,452.17" style="fill:none;stroke:#7AC36A;stroke-width:1.875;stroke-dasharray:7.5,2.5" />
<path d="M75.085,102.93L77.224,190.13L79.362,193.92L81.5,184.94L83.638,169.12L85.776,182.88L87.914,172.1L90.052,177.87L92.19,171.46L94.328,174.55L96.467,172.64L98.605,175.82L100.74,173.14L102.88,173.9L105.02,177.89L107.16,173.18L109.3,175.52L111.43,179.55L113.57,174.28L115.71,172.57L117.85,177.02L119.99,169.34L122.12,186.78L124.26,170.92L126.4,167.59L128.54,173.14L130.68,183.03L132.81,182.15L134.95,167.84L137.09,177.2L139.23,171.98L141.37,178.18L143.51,172.47L145.64,167.79L147.78,186.16L149.92,170.4L152.06,177.87L154.2,183.81L156.33,165.77L158.47,188.2L160.61,167.49L162.75,174.21L164.89,173.8L167.02,168.22L169.16,185.33L171.3,170.61L173.44,192.48L175.58,165.16L177.72,193.92L179.85,160.08L181.99,194.25L184.13,150.44L186.27,193.34L188.41,165.1L190.54,185.95L192.68,165.67L194.82,190.09L196.96,152.72L199.1,186.18L201.23,153.04L203.37,183.93L205.51,183.24L207.65,156.58L209.79,190.68L211.92,150.07L214.06,183.12L216.2,174.83L218.34,155.06L220.48,190.87L222.62,149.11L224.75,186.05L226.89,191.23L229.03,153.53L231.17,188.9L233.31,157.08L235.44,188.64L237.58,186.71L239.72,151.94L241.86,185.49L244,191.33L246.13,150.3L248.27,181L250.41,196.14L252.55,149.6L254.69,190.62L256.83,181.46L258.96,143.11L261.1,175.84L263.24,183.32L265.38,150.83L267.52,185.22L269.65,183.42L271.79,185.72L273.93,148.88L276.07,171.05L278.21,183.67L280.34,143.21L282.48,179.22L284.62,182.49L286.76,183.6L288.9,147.02L291.04,179.81L293.17,190.32L295.31,155.71L297.45,178.84L299.59,183.13L301.73,184.45L303.86,138.41L306,185.83L308.14,189.55L310.28,176L312.42,139.3L314.55,187.35L316.69,181.71L318.83,185.67L320.97,133.67L323.11,176.48L325.25,142.16L327.38,127.21L329.52,115.12L331.66,113.24L333.8,116.51L335.94,129.31L338.07,135.45L340.21,115.22L342.35,120.7L344.49,127.36L346.63,117.88L348.76,116.79L350.9,92.928L353.04,148.47L355.18,186.14L357.32,184.31L359.45,135.09L361.59,152.17L363.73,61.04L365.87,48.06L368.01,65.97L370.15,48.733L372.28,48.06L374.42,70.363L376.56,85.729L378.7,74.725L380.84,87.747L382.97,79.065L385.11,88.094L387.25,82.113L389.39,89.765L391.53,79.318L393.66,77.005L395.8,58.581L397.94,55.228L400.08,53.42L402.22,53.2L404.36,51.424L406.49,52.748L408.63,51.171L410.77,50.782L412.91,51.413L415.05,51.108L417.18,50.12L419.32,48.071L421.46,48.071L423.6,48.092L425.74,48.06L427.87,48.691L430.01,48.06L432.15,48.733L434.29,51.413L436.43,50.541L438.57,51.392L440.7,51.445L442.84,51.36L444.98,51.224L447.12,50.814L449.26,52.033L451.39,51.15L453.53,51.445L455.67,51.466L457.81,51.129L459.95,51.434L462.08,51.56L464.22,51.056L466.36,52.065L468.5,51.539L470.64,51.108L472.78,51.382L474.91,52.222L477.05,51.707L479.19,51.434L481.33,52.096L483.47,51.182L485.6,52.117L487.74,52.033L489.88,51.224L492.02,51.487L494.16,52.054L496.29,51.823L498.43,52.107L500.57,51.487L502.71,51.802L504.85,52.107L506.98,51.812L509.12,52.128L511.26,52.075L513.4,51.854L515.54,52.138L517.68,52.054L519.81,51.865L521.95,52.128L524.09,52.433L526.23,52.128L528.37,52.149L530.5,52.454L532.64,51.476L534.78,62.501L536.92,64.204L539.06,64.204L541.19,64.54L543.33,64.54L545.47,63.521L547.61,65.549L549.75,64.204L551.89,64.204L554.02,62.859L556.16,66.222L558.3,63.521L560.44,64.877L562.58,63.531L564.71,66.222L566.85,64.204L568.99,65.549L571.13,63.521L573.27,65.549L575.4,64.204L577.54,65.549L579.68,64.204L581.82,62.859L583.96,64.866L586.1,66.222L588.23,63.531L590.37,66.222L592.51,63.531L594.65,66.873L596.79,64.414L598.92,64.687L601.06,62.859L603.2,65.539L605.34,66.222L607.48,64.204L609.61,65.549L611.75,64.204L613.89,65.549L616.03,64.866L618.17,65.549L620.31,65.549L622.44,65.549L624.58,64.877L626.72,64.193L628.86,63.531L631,66.895L633.13,64.877L635.27,66.222L637.41,64.204L639.55,66.222L641.69,65.549L643.82,64.877L645.96,63.531L648.1,66.895L650.24,65.539L652.38,64.877L654.51,65.549L656.65,65.549L658.79,65.549L660.93,62.859L663.07,66.211L665.21,67.567L667.34,65.549L669.48,65.381L671.62,65.717L673.76,64.866L675.9,66.222L678.03,66.222L680.17,64.877L682.31,65.192L684.45,67.925L686.59,64.204L688.72,66.895L690.86,65.549L693,64.877L695.14,64.877L697.28,68.229L699.42,65.549L701.55,64.877L703.69,61.513L705.83,70.93L707.97,64.877L710.11,66.895L712.24,66.211L714.38,64.877L716.52,66.895L718.66,66.211L720.8,66.222L722.93,65.045L725.07,64.708L727.21,67.567L729.35,66.895L731.49,66.211L733.63,66.895L735.76,66.222L737.9,64.877L740.04,66.895L742.18,66.884L744.32,63.531L746.45,68.912L748.59,66.432L750.73,65.339L752.87,67.567L755.01,66.222L757.14,65.549L759.28,54.787L761.42,72.023L763.56,66.895L765.7,66.884L767.84,66.222L769.97,66.895L772.11,67.567L774.25,65.549L776.39,67.567L778.53,65.539L780.66,66.895L782.8,67.567L784.94,66.222L787.08,67.567L789.22,66.884L791.35,65.549L793.49,67.567L795.63,64.877L797.77,68.24L799.91,68.219L802.04,66.243L804.18,67.567L806.32,65.549L808.46,65.549L810.6,66.895L812.74,64.866L814.87,65.297L817.01,65.549L819.15,66.222L821.29,68.24L823.43,69.585L825.56,66.895L827.7,66.958L829.84,66.831L831.98,66.895L834.12,62.175L836.25,64.204L838.39,62.186L840.53,65.539L842.67,62.859L844.81,63.531L846.95,63.531L849.08,61.513L851.22,65.549L853.36,64.204L855.5,62.859L857.64,64.204L859.77,63.531L861.91,62.859L864.05,64.877L866.19,62.859L868.33,62.848L870.46,64.877L872.6,63.531L874.74,64.204L876.88,62.859L879.02,64.204L881.16,56.805L883.29,52.517L885.43,48.743L887.57,48.06L889.71,48.06L891.85,50.11L893.98,48.06L896.12,48.06L898.26,48.06L900.4,62.07L902.54,64.362L904.67,62.859L906.81,65.549L908.95,62.186L911.09,65.549L913.23,62.859L915.37,63.342L917.5,64.393L919.64,61.513L921.78,66.895L923.92,64.193L926.06,63.531L928.19,63.899L930.33,63.163L932.47,64.877L934.61,62.186L936.75,65.539L938.88,64.204L941.02,63.531L943.16,61.513L945.3,64.204L947.44,66.222L949.57,64.204L951.71,64.204L953.85,62.859L955.99,64.204L958.13,65.539L960.27,63.531L962.4,64.877L964.54,62.186L966.68,66.222L968.82,62.848L970.96,63.521L973.09,65.549L975.23,64.204L977.37,63.531L979.51,64.204L981.65,65.549L983.78,64.877L985.92,64.204L988.06,64.204L990.2,63.531L992.34,64.204L994.48,64.782L996.61,64.961L998.75,64.877L1000.9,64.877L1003,64.204L1005.2,63.773L1007.3,65.297L1009.4,64.204L1011.6,64.877L1013.7,63.531L1015.9,64.877L1018,64.866L1020.1,63.531L1022.3,64.877L1024.4,65.549L1026.5,65.549L1028.7,64.204L1030.8,64.877L1033,63.531L1035.1,66.096L1037.2,65.003L1039.4,64.866L1041.5,64.877L1043.7,64.877L1045.8,62.459L1047.9,65.949L1050.1,65.444L1052.2,65.644L1054.3,64.214L1056.5,64.877L1058.6,64.204L1060.8,64.877L1062.9,64.866L1065,66.895L1067.2,64.877L1069.3,64.877L1071.4,63.531L1073.6,65.549L1075.7,66.211L1077.9,64.877L1080,64.877" style="fill:none;stroke:#5A9BD4;stroke-width:1.875;stroke-dasharray:2.5,2.5" />
<path d="M1055,693.4L1080,693.4" style="fill:none;stroke:#F15A60;stroke-width:1.875" />
<text x="918.26" y="-686.35" transform="scale(1, -1)"
	style="font-family:Helvetica;font-weight:normal;font-style:normal;font-size:12pt">etcd v3.1 (Go 1.7.3)</text>
<path d="M1055,678.7L1080,678.7" style="fill:none;stroke:#7AC36A;stroke-width:1.875;stroke-dasharray:7.5,2.5" />
<text x="875.74" y="-671.65" transform="scale(1, -1)"
	style="font-family:Helvetica;font-weight:normal;font-style:normal;font-size:12pt">Zookeeper v3.4.9 (Java 8)</text>
<path d="M1055,664L1080,664" style="fill:none;stroke:#5A9BD4;stroke-width:1.875;stroke-dasharray:2.5,2.5" />
<text x="887.41" y="-656.95" transform="scale(1, -1)"
	style="font-family:Helvetica;font-weight:normal;font-style:normal;font-size:12pt">Consul v0.7.1 (Go 1.7.3)</text>
</g>
</svg>
